<?xml version="1.0" encoding="utf-8"?>
<!-- Generator: Adobe Illustrator 23.0.2, SVG Export Plug-In . SVG Version: 6.00 Build 0)  -->
<svg version="1.1" id="Layer_1" xmlns="http://www.w3.org/2000/svg" xmlns:xlink="http://www.w3.org/1999/xlink" x="0px" y="0px"
	 viewBox="0 0 405.36 275.63" enable-background="new 0 0 405.36 275.63" xml:space="preserve">
<rect fill="#F0F0F0" width="405.36" height="275.63"/>
<rect y="14.38" fill="#878787" width="318.15" height="34.8"/>
<g>
	<path fill="#FFFFFF" d="M24.34,36.32v0.13c0,1.53,0.22,4.22-1.92,4.22c-1.91,0-2.13-1.83-2.13-4.1c0-2.25,0.18-4.14,2.03-4.14
		c1.14,0,1.68,0.58,1.96,1.64l-1.01,0.42c-0.11-0.53-0.26-1.05-0.92-1.05c-0.87,0-0.94,1.19-0.94,3.13c0,2.79,0.47,3.11,0.94,3.11
		c0.44,0,0.92-0.06,0.92-1.98v-0.44h-0.9v-0.93H24.34z"/>
	<path fill="#FFFFFF" d="M26.56,32.53v7.1h1.79v0.93H25.5v-8.03H26.56z"/>
	<path fill="#FFFFFF" d="M33.09,36.54c0,1.45-0.02,4.12-2.09,4.12c-2.07,0-2.09-2.67-2.09-4.12c0-1.45,0.02-4.12,2.09-4.12
		C33.07,32.42,33.09,35.09,33.09,36.54z M30.04,36.54c0,1.7,0.12,3.12,0.96,3.12c0.84,0,0.96-1.42,0.96-3.12s-0.12-3.12-0.96-3.12
		C30.16,33.42,30.04,34.84,30.04,36.54z"/>
	<path fill="#FFFFFF" d="M34.28,40.56v-8.03h1.33c1.45,0,1.85,0.8,1.85,2.15c0,0.79-0.16,1.55-1.01,1.78v0.02
		c0.92,0.29,1.13,0.99,1.13,1.88c0,1.48-0.54,2.19-2.02,2.19H34.28z M35.48,33.43h-0.18v2.63c0.99,0.04,1.13-0.58,1.13-1.43
		C36.42,34.01,36.21,33.42,35.48,33.43z M35.29,39.65c0.93,0.04,1.16-0.44,1.16-1.32c0-0.88-0.18-1.44-1.16-1.42V39.65z"/>
	<path fill="#FFFFFF" d="M40.81,32.53l1.73,8.03h-1.08l-0.3-1.57h-1.6l-0.3,1.57h-1.04l1.75-8.03H40.81z M40.79,37l-0.4-2.92h-0.02
		l-0.64,4.08H41L40.79,37z"/>
	<path fill="#FFFFFF" d="M44.41,32.53v7.1h1.79v0.93h-2.85v-8.03H44.41z"/>
	<path fill="#FFFFFF" d="M52.1,32.53v0.93h-1.2v7.1h-1.06v-7.1h-1.26v-0.93H52.1z"/>
	<path fill="#FFFFFF" d="M52.8,32.53h1.28c0.78,0,1.99,0.04,1.99,2.06c0,0.76-0.22,1.91-1.11,2.07l1.48,3.91h-1.11l-1.45-3.93h-0.02
		v3.93H52.8V32.53z M54.94,34.82c0-0.77-0.1-1.41-0.91-1.38h-0.17v2.65C54.66,36.14,54.94,35.63,54.94,34.82z"/>
	<path fill="#FFFFFF" d="M60.2,32.53v0.93h-1.8v2.52h1.61v0.93H58.4v2.73h1.8v0.93h-2.86v-8.03H60.2z"/>
	<path fill="#FFFFFF" d="M62.04,34.91l0.16,2.69v2.95h-1.06v-8.03h1.02l1.87,6.1l0.02-0.02l-0.26-3.22v-2.86h1.06v8.03h-0.99
		L62,34.37l-0.02,0.02L62.04,34.91z"/>
	<path fill="#FFFFFF" d="M67.46,32.53c1.26,0,2.68,0.08,2.68,4.15c0,3.71-1.24,3.88-3.14,3.88h-0.73v-8.03H67.46z M67.34,33.43v6.22
		c1.76,0.05,1.68-1.61,1.68-2.97C69.02,35.45,69.14,33.33,67.34,33.43z"/>
	<path fill="#FFFFFF" d="M73.81,33.76c-0.28-0.2-0.54-0.34-0.91-0.34c-0.59,0-0.95,0.48-0.95,1.03c0,0.35,0.08,0.6,0.3,0.87
		l0.81,0.88c0.72,0.74,1.14,1.27,1.14,2.35c0,1.13-0.7,2.1-1.89,2.1c-0.42,0-0.84-0.12-1.17-0.38v-1.08
		c0.32,0.23,0.64,0.42,1.05,0.42c0.66,0,0.94-0.52,0.94-1.12c0-1.6-2.25-1.92-2.25-4.03c0-1.13,0.6-2.06,1.8-2.06
		c0.4,0,0.79,0.06,1.13,0.27L73.81,33.76z"/>
	<path fill="#FFFFFF" d="M78.57,40.56H77.5v-8.03h1.06V40.56z"/>
	<path fill="#FFFFFF" d="M80.88,34.91l0.16,2.69v2.95h-1.06v-8.03H81l1.87,6.1l0.02-0.02l-0.26-3.22v-2.86h1.06v8.03h-0.99
		l-1.87-6.19l-0.02,0.02L80.88,34.91z"/>
	<path fill="#FFFFFF" d="M90.23,32.53v0.93h-1.2v7.1h-1.06v-7.1H86.7v-0.93H90.23z"/>
	<path fill="#FFFFFF" d="M92.01,32.53v3.13h1.61v-3.13h1.07v8.03h-1.07v-3.97h-1.61v3.97h-1.06v-8.03H92.01z"/>
	<path fill="#FFFFFF" d="M98.95,32.53v0.93h-1.8v2.52h1.61v0.93h-1.61v2.73h1.8v0.93h-2.86v-8.03H98.95z"/>
	<path fill="#FFFFFF" d="M104.65,33.76c-0.28-0.2-0.54-0.34-0.91-0.34c-0.59,0-0.95,0.48-0.95,1.03c0,0.35,0.08,0.6,0.3,0.87
		l0.81,0.88c0.72,0.74,1.14,1.27,1.14,2.35c0,1.13-0.7,2.1-1.89,2.1c-0.42,0-0.84-0.12-1.17-0.38v-1.08
		c0.32,0.23,0.64,0.42,1.05,0.42c0.66,0,0.94-0.52,0.94-1.12c0-1.6-2.25-1.92-2.25-4.03c0-1.13,0.6-2.06,1.8-2.06
		c0.4,0,0.79,0.06,1.13,0.27L104.65,33.76z"/>
	<path fill="#FFFFFF" d="M108.89,32.53v0.93h-1.2v7.1h-1.06v-7.1h-1.26v-0.93H108.89z"/>
	<path fill="#FFFFFF" d="M111.19,32.53l1.73,8.03h-1.08l-0.3-1.57h-1.6l-0.3,1.57h-1.04l1.75-8.03H111.19z M111.17,37l-0.4-2.92
		h-0.02l-0.64,4.08h1.28L111.17,37z"/>
	<path fill="#FFFFFF" d="M116.17,32.53v0.93h-1.2v7.1h-1.06v-7.1h-1.26v-0.93H116.17z"/>
	<path fill="#FFFFFF" d="M119.75,32.53v0.93h-1.8v2.52h1.61v0.93h-1.61v2.73h1.8v0.93h-2.86v-8.03H119.75z"/>
	<path fill="#FFFFFF" d="M126.95,36.54c0,1.45-0.02,4.12-2.09,4.12c-2.07,0-2.09-2.67-2.09-4.12c0-1.45,0.02-4.12,2.09-4.12
		C126.93,32.42,126.95,35.09,126.95,36.54z M123.9,36.54c0,1.7,0.12,3.12,0.96,3.12c0.84,0,0.96-1.42,0.96-3.12
		s-0.12-3.12-0.96-3.12C124.02,33.42,123.9,34.84,123.9,36.54z"/>
	<path fill="#FFFFFF" d="M131.02,32.53v0.93h-1.82v2.52h1.64v0.93h-1.64v3.65h-1.06v-8.03H131.02z"/>
	<path fill="#FFFFFF" d="M137.01,32.53v0.93h-1.2v7.1h-1.06v-7.1h-1.26v-0.93H137.01z"/>
	<path fill="#FFFFFF" d="M138.79,32.53v3.13h1.61v-3.13h1.07v8.03h-1.07v-3.97h-1.61v3.97h-1.06v-8.03H138.79z"/>
	<path fill="#FFFFFF" d="M145.73,32.53v0.93h-1.8v2.52h1.61v0.93h-1.61v2.73h1.8v0.93h-2.86v-8.03H145.73z"/>
	<path fill="#FFFFFF" d="M149.37,32.53l0.76,5.44l0.04,0.6h0.02l0.32-2.7l0.55-3.34h0.83l0.87,5.99h0.02l0.29-2.58l0.49-3.41h1.03
		l-1.41,8.03h-0.85l-0.61-3.74l-0.25-2.02l-0.01-0.2h-0.02l-0.23,2.16l-0.64,3.8h-0.87l-1.38-8.03H149.37z"/>
	<path fill="#FFFFFF" d="M159.33,36.54c0,1.45-0.02,4.12-2.09,4.12c-2.07,0-2.09-2.67-2.09-4.12c0-1.45,0.02-4.12,2.09-4.12
		C159.31,32.42,159.33,35.09,159.33,36.54z M156.28,36.54c0,1.7,0.12,3.12,0.96,3.12c0.84,0,0.96-1.42,0.96-3.12
		s-0.12-3.12-0.96-3.12C156.4,33.42,156.28,34.84,156.28,36.54z"/>
	<path fill="#FFFFFF" d="M160.52,32.53h1.28c0.78,0,1.99,0.04,1.99,2.06c0,0.76-0.22,1.91-1.11,2.07l1.48,3.91h-1.11l-1.45-3.93
		h-0.02v3.93h-1.06V32.53z M162.66,34.82c0-0.77-0.1-1.41-0.91-1.38h-0.17v2.65C162.38,36.14,162.66,35.63,162.66,34.82z"/>
	<path fill="#FFFFFF" d="M166.12,32.53v7.1h1.79v0.93h-2.85v-8.03H166.12z"/>
	<path fill="#FFFFFF" d="M169.88,32.53c1.26,0,2.68,0.08,2.68,4.15c0,3.71-1.24,3.88-3.14,3.88h-0.73v-8.03H169.88z M169.75,33.43
		v6.22c1.76,0.05,1.68-1.61,1.68-2.97C171.44,35.45,171.55,33.33,169.75,33.43z"/>
	<path fill="#FFFFFF" d="M175.09,32.68l-1.03,2.82l-0.54-0.15l0.71-2.93L175.09,32.68z"/>
	<path fill="#FFFFFF" d="M178.6,33.76c-0.28-0.2-0.54-0.34-0.91-0.34c-0.59,0-0.95,0.48-0.95,1.03c0,0.35,0.08,0.6,0.3,0.87
		l0.81,0.88c0.72,0.74,1.14,1.27,1.14,2.35c0,1.13-0.7,2.1-1.89,2.1c-0.42,0-0.84-0.12-1.17-0.38v-1.08
		c0.32,0.23,0.64,0.42,1.05,0.42c0.66,0,0.94-0.52,0.94-1.12c0-1.6-2.25-1.92-2.25-4.03c0-1.13,0.6-2.06,1.8-2.06
		c0.4,0,0.79,0.06,1.13,0.27L178.6,33.76z"/>
	<path fill="#FFFFFF" d="M183.48,32.53l1.14,5.79h0.02l0.03-0.33l0.32-1.93l0.69-3.54h0.94l0.75,8.03h-1.04l-0.19-2.99l-0.06-1.49
		l-0.02-1.05h-0.02l-0.18,1.15l-0.83,4.39h-0.73l-1.03-5.54h-0.02l-0.31,5.54h-1.01l0.66-8.03H183.48z"/>
	<path fill="#FFFFFF" d="M190.36,32.53l1.73,8.03h-1.08l-0.3-1.57h-1.6l-0.3,1.57h-1.04l1.75-8.03H190.36z M190.34,37l-0.4-2.92
		h-0.02l-0.64,4.08h1.28L190.34,37z"/>
	<path fill="#FFFFFF" d="M192.89,32.53h1.28c0.78,0,1.99,0.04,1.99,2.06c0,0.76-0.22,1.91-1.11,2.07l1.48,3.91h-1.11l-1.45-3.93
		h-0.02v3.93h-1.06V32.53z M195.03,34.82c0-0.77-0.1-1.41-0.91-1.38h-0.17v2.65C194.76,36.14,195.03,35.63,195.03,34.82z"/>
	<path fill="#FFFFFF" d="M198.49,40.56h-1.06v-8.03h1.06V40.56z"/>
	<path fill="#FFFFFF" d="M200.8,34.91l0.16,2.69v2.95h-1.06v-8.03h1.02l1.87,6.1l0.02-0.02l-0.26-3.22v-2.86h1.06v8.03h-0.99
		l-1.87-6.19l-0.02,0.02L200.8,34.91z"/>
	<path fill="#FFFFFF" d="M207.9,32.53v0.93h-1.8v2.52h1.61v0.93h-1.61v2.73h1.8v0.93h-2.86v-8.03H207.9z"/>
	<path fill="#FFFFFF" d="M214.01,32.53v0.93h-1.82v2.52h1.64v0.93h-1.64v3.65h-1.06v-8.03H214.01z"/>
	<path fill="#FFFFFF" d="M215.94,40.56h-1.07v-8.03h1.07V40.56z"/>
	<path fill="#FFFFFF" d="M219.81,33.76c-0.28-0.2-0.54-0.34-0.91-0.34c-0.59,0-0.95,0.48-0.95,1.03c0,0.35,0.09,0.6,0.3,0.87
		l0.81,0.88c0.72,0.74,1.14,1.27,1.14,2.35c0,1.13-0.7,2.1-1.89,2.1c-0.42,0-0.84-0.12-1.17-0.38v-1.08
		c0.32,0.23,0.64,0.42,1.05,0.42c0.66,0,0.94-0.52,0.94-1.12c0-1.6-2.25-1.92-2.25-4.03c0-1.13,0.6-2.06,1.8-2.06
		c0.41,0,0.79,0.06,1.13,0.27L219.81,33.76z"/>
	<path fill="#FFFFFF" d="M222.28,32.53v3.13h1.61v-3.13h1.07v8.03h-1.07v-3.97h-1.61v3.97h-1.07v-8.03H222.28z"/>
	<path fill="#FFFFFF" d="M231.12,33.76c-0.28-0.2-0.54-0.34-0.91-0.34c-0.59,0-0.95,0.48-0.95,1.03c0,0.35,0.09,0.6,0.3,0.87
		l0.81,0.88c0.72,0.74,1.14,1.27,1.14,2.35c0,1.13-0.7,2.1-1.89,2.1c-0.42,0-0.84-0.12-1.17-0.38v-1.08
		c0.32,0.23,0.64,0.42,1.05,0.42c0.66,0,0.94-0.52,0.94-1.12c0-1.6-2.25-1.92-2.25-4.03c0-1.13,0.6-2.06,1.8-2.06
		c0.41,0,0.79,0.06,1.13,0.27L231.12,33.76z"/>
	<path fill="#FFFFFF" d="M235.36,32.53v0.93h-1.2v7.1h-1.07v-7.1h-1.26v-0.93H235.36z"/>
	<path fill="#FFFFFF" d="M240.04,36.54c0,1.45-0.02,4.12-2.09,4.12c-2.07,0-2.09-2.67-2.09-4.12c0-1.45,0.02-4.12,2.09-4.12
		C240.02,32.42,240.04,35.09,240.04,36.54z M237,36.54c0,1.7,0.12,3.12,0.96,3.12c0.84,0,0.96-1.42,0.96-3.12s-0.12-3.12-0.96-3.12
		C237.12,33.42,237,34.84,237,36.54z"/>
	<path fill="#FFFFFF" d="M244.35,33.62c-0.21-0.11-0.44-0.2-0.68-0.2c-1.49,0-1.5,2.17-1.5,3.17c0,1.07,0.08,3.07,1.54,3.07
		c0.23,0,0.44-0.05,0.64-0.16v0.94c-0.27,0.17-0.54,0.22-0.85,0.22c-2.17,0-2.46-2.31-2.46-3.99c0-1.61,0.2-4.25,2.38-4.25
		c0.36,0,0.62,0.05,0.93,0.23V33.62z"/>
	<path fill="#FFFFFF" d="M246.36,32.53v3.86l1.5-3.86h1.1l-1.58,3.89l1.71,4.14h-1.22l-1.5-4.07v4.07h-1.09v-8.03H246.36z"/>
	<path fill="#FFFFFF" d="M252.37,33.76c-0.28-0.2-0.54-0.34-0.91-0.34c-0.59,0-0.95,0.48-0.95,1.03c0,0.35,0.09,0.6,0.3,0.87
		l0.81,0.88c0.72,0.74,1.14,1.27,1.14,2.35c0,1.13-0.7,2.1-1.89,2.1c-0.42,0-0.84-0.12-1.17-0.38v-1.08
		c0.32,0.23,0.64,0.42,1.05,0.42c0.66,0,0.94-0.52,0.94-1.12c0-1.6-2.25-1.92-2.25-4.03c0-1.13,0.6-2.06,1.8-2.06
		c0.41,0,0.79,0.06,1.13,0.27L252.37,33.76z"/>
	<path fill="#FFFFFF" d="M254.79,39.7l-1.03,2.82l-0.54-0.15l0.71-2.94L254.79,39.7z"/>
	<path fill="#FFFFFF" d="M260.42,32.53v8.03h-1.04v-7.1h-0.79v-0.93H260.42z"/>
	<path fill="#FFFFFF" d="M263.27,40.56l1.6-3.35l-0.02-0.02c-0.23,0.22-0.46,0.32-0.81,0.32c-1.25,0-1.38-1.37-1.38-2.33
		c0-1.25,0.1-2.74,1.71-2.74c1.62,0,1.74,1.47,1.74,2.73c0,1.76-0.46,2.89-1.2,4.44l-0.47,0.96H263.27z M265.02,34.95
		c0-0.46-0.01-1.55-0.65-1.55c-0.64,0-0.63,1.16-0.63,1.62c0,0.47-0.01,1.53,0.63,1.53C265.06,36.54,265.02,35.4,265.02,34.95z"/>
	<path fill="#FFFFFF" d="M270.66,32.53l-2.44,8.03h-1.15l2.24-7.1h-2.24v-0.93H270.66z"/>
	<path fill="#FFFFFF" d="M274.65,37.57h0.51v0.79h-0.51v2.21h-1.04v-2.21h-2.16v-0.92l2.16-4.91h1.04V37.57z M273.61,34.16h-0.02
		l-1.3,3.41h1.32V34.16z"/>
	<path fill="#FFFFFF" d="M280.95,37.41v0.79h-5.33v-0.79H280.95z"/>
	<path fill="#FFFFFF" d="M281.54,34.85c0-1.28,0.16-2.42,1.71-2.42c1.32,0,1.79,0.73,1.79,1.98c0,1.2-0.82,2.87-1.38,3.92l-0.68,1.3
		h1.99v0.93h-3.54l1.95-4.12c0.29-0.65,0.58-1.36,0.58-2.09c0-0.44-0.16-0.96-0.71-0.96c-0.72,0-0.62,1.2-0.62,1.53v0.21h-1.09
		V34.85z"/>
	<path fill="#FFFFFF" d="M289.53,36.54c0,1.27,0.1,4.11-1.82,4.11s-1.82-2.84-1.82-4.11s-0.1-4.11,1.82-4.11
		S289.53,35.28,289.53,36.54z M287.71,33.39c-0.74,0-0.79,1.48-0.78,3.15c-0.01,1.67,0.04,3.15,0.78,3.15s0.79-1.48,0.78-3.15
		C288.5,34.87,288.44,33.39,287.71,33.39z"/>
	<path fill="#FFFFFF" d="M292.71,32.53v8.03h-1.04v-7.1h-0.79v-0.93H292.71z"/>
	<path fill="#FFFFFF" d="M298.31,32.53v0.93h-1.74l-0.26,2.02c1.45-0.05,2.1,0.91,2.1,2.26c0,1.47-0.55,2.92-2.26,2.92
		c-0.47,0-0.83-0.14-1.25-0.33l0.28-0.95c0.32,0.17,0.56,0.32,0.94,0.32c0.94,0,1.2-1.08,1.2-1.79c0-0.93-0.39-1.58-1.4-1.58
		c-0.21,0-0.44,0.04-0.65,0.1l0.47-3.9H298.31z"/>
</g>
<rect x="49.81" y="251.47" fill="#0088A2" width="5.73" height="5.73"/>
<g>
	<path d="M59.72,256.06v-4.88h0.81c0.88,0,1.13,0.49,1.13,1.31c0,0.48-0.1,0.94-0.61,1.08v0.01c0.56,0.17,0.69,0.6,0.69,1.14
		c0,0.9-0.33,1.33-1.23,1.33H59.72z M60.44,251.73h-0.11v1.6c0.6,0.03,0.69-0.35,0.69-0.87C61.02,252.08,60.89,251.72,60.44,251.73z
		 M60.33,255.51c0.56,0.03,0.71-0.27,0.71-0.8c0-0.54-0.11-0.87-0.71-0.86V255.51z"/>
	<path d="M62.27,251.8c0-0.22,0.18-0.4,0.41-0.4c0.21,0,0.4,0.18,0.4,0.4c0,0.23-0.19,0.41-0.4,0.41
		C62.45,252.21,62.27,252.03,62.27,251.8z M62.97,256.06h-0.61v-3.27h0.61V256.06z"/>
	<path d="M63.5,254.43c0-0.71,0.1-1.7,1.03-1.7s1.03,0.98,1.03,1.7c0,0.69-0.1,1.68-1.03,1.68S63.5,255.12,63.5,254.43z
		 M64.94,254.43c0-0.26,0.06-1.14-0.41-1.14s-0.41,0.88-0.41,1.14c0,0.23-0.06,1.12,0.41,1.12S64.94,254.67,64.94,254.43z"/>
	<path d="M66.68,256.06h-0.61v-5.37h0.61V256.06z"/>
	<path d="M67.21,254.43c0-0.71,0.1-1.7,1.03-1.7s1.03,0.98,1.03,1.7c0,0.69-0.1,1.68-1.03,1.68S67.21,255.12,67.21,254.43z
		 M68.65,254.43c0-0.26,0.06-1.14-0.41-1.14s-0.41,0.88-0.41,1.14c0,0.23-0.06,1.12,0.41,1.12S68.65,254.67,68.65,254.43z"/>
	<path d="M71.7,256.08c0,1.17-0.35,1.37-1,1.37c-0.59,0-0.96-0.34-0.96-0.94v-0.09h0.59c-0.01,0.23,0.08,0.49,0.39,0.49
		c0.41,0,0.37-0.39,0.37-0.69v-0.54h-0.01c-0.08,0.27-0.28,0.45-0.58,0.44c-0.78,0-0.8-1.11-0.8-1.66c0-0.52-0.01-1.71,0.78-1.71
		c0.32,0,0.47,0.18,0.59,0.44l0.01-0.01v-0.38h0.61V256.08z M70.7,253.28c-0.42,0-0.38,0.89-0.38,1.13c0,0.25-0.04,1.16,0.4,1.16
		s0.38-0.86,0.38-1.12C71.09,254.17,71.09,253.28,70.7,253.28z"/>
	<path d="M72.22,251.8c0-0.22,0.18-0.4,0.41-0.4c0.21,0,0.4,0.18,0.4,0.4c0,0.23-0.19,0.41-0.4,0.41
		C72.4,252.21,72.22,252.03,72.22,251.8z M72.93,256.06h-0.61v-3.27h0.61V256.06z"/>
	<path d="M74.91,253.46H74.9c-0.06-0.1-0.15-0.15-0.28-0.16c-0.52,0.01-0.54,0.74-0.54,1.09c0,0.33,0.01,1.15,0.52,1.15
		c0.14,0,0.21-0.05,0.31-0.12v0.56c-0.16,0.09-0.31,0.13-0.49,0.13c-0.86,0-0.96-1.01-0.96-1.66c0-0.67,0.08-1.71,0.97-1.71
		c0.18,0,0.32,0.03,0.48,0.11V253.46z"/>
	<path d="M76.7,255.64h-0.01c-0.12,0.29-0.25,0.47-0.6,0.47c-0.76,0-0.77-1.2-0.77-1.73c0-0.54,0.02-1.64,0.79-1.64
		c0.28,0,0.47,0.17,0.58,0.41h0.01v-0.36h0.61v3.27H76.7V255.64z M76.72,254.42c0-0.26,0.03-1.14-0.38-1.14
		c-0.45,0-0.4,0.87-0.4,1.14c0,0.27-0.05,1.14,0.4,1.14C76.75,255.56,76.72,254.68,76.72,254.42z"/>
	<path d="M78.54,256.06h-0.61v-5.37h0.61V256.06z"/>
	<path d="M79.76,256.06h-0.61v-5.37h0.61V256.06z"/>
	<path d="M80.81,252.79l0.48,2.28h0.01l0.55-2.28h0.61l-1.33,4.61h-0.64l0.5-1.6l-0.87-3H80.81z"/>
	<path d="M85.48,253.46c-0.12-0.1-0.3-0.17-0.45-0.17c-0.23,0-0.41,0.13-0.41,0.35c0.01,0.55,1.02,0.58,1.02,1.51
		c0,0.58-0.36,0.97-0.94,0.97c-0.21,0-0.35-0.04-0.53-0.16v-0.6c0.16,0.12,0.3,0.21,0.5,0.21c0.27,0,0.41-0.16,0.41-0.41
		c0-0.58-1.02-0.61-1.02-1.52c0-0.52,0.36-0.89,0.87-0.89c0.21,0,0.38,0.04,0.55,0.14V253.46z"/>
	<path d="M86.71,252.79v2.04c0,0.29-0.04,0.72,0.38,0.72c0.41,0,0.36-0.39,0.36-0.69v-2.08h0.61V255c0,0.67-0.2,1.11-0.94,1.11
		c-0.89,0-1.01-0.5-1.01-1.24v-2.08H86.71z"/>
	<path d="M89.91,253.46c-0.12-0.1-0.3-0.17-0.45-0.17c-0.23,0-0.41,0.13-0.41,0.35c0.01,0.55,1.02,0.58,1.02,1.51
		c0,0.58-0.36,0.97-0.94,0.97c-0.21,0-0.35-0.04-0.53-0.16v-0.6c0.16,0.12,0.3,0.21,0.5,0.21c0.27,0,0.41-0.16,0.41-0.41
		c0-0.58-1.02-0.61-1.02-1.52c0-0.52,0.36-0.89,0.87-0.89c0.21,0,0.38,0.04,0.55,0.14V253.46z"/>
	<path d="M91.26,251.86v0.92h0.32v0.48h-0.32v2.79h-0.61v-2.79h-0.33v-0.48h0.33v-0.92H91.26z"/>
	<path d="M93.31,255.64H93.3c-0.12,0.29-0.25,0.47-0.6,0.47c-0.76,0-0.77-1.2-0.77-1.73c0-0.54,0.02-1.64,0.79-1.64
		c0.28,0,0.47,0.17,0.58,0.41h0.01v-0.36h0.61v3.27h-0.61V255.64z M93.33,254.42c0-0.26,0.03-1.14-0.38-1.14
		c-0.45,0-0.4,0.87-0.4,1.14c0,0.27-0.05,1.14,0.4,1.14C93.35,255.56,93.33,254.68,93.33,254.42z"/>
	<path d="M94.44,251.8c0-0.22,0.18-0.4,0.41-0.4c0.21,0,0.4,0.18,0.4,0.4c0,0.23-0.19,0.41-0.4,0.41
		C94.62,252.21,94.44,252.03,94.44,251.8z M95.14,256.06h-0.61v-3.27h0.61V256.06z"/>
	<path d="M96.38,253.16h0.01c0.07-0.14,0.16-0.24,0.26-0.31c0.11-0.08,0.24-0.12,0.4-0.12c0.65,0,0.67,0.58,0.67,1.07v2.25h-0.61
		v-2.26c0-0.23-0.04-0.52-0.36-0.52c-0.4,0-0.37,0.46-0.37,0.74v2.04h-0.61v-3.27h0.61V253.16z"/>
	<path d="M99.63,255.64h-0.01c-0.12,0.29-0.25,0.47-0.6,0.47c-0.76,0-0.77-1.2-0.77-1.73c0-0.54,0.02-1.64,0.79-1.64
		c0.28,0,0.47,0.17,0.58,0.41h0.01v-0.36h0.61v3.27h-0.61V255.64z M99.65,254.42c0-0.26,0.03-1.14-0.38-1.14
		c-0.45,0-0.4,0.87-0.4,1.14c0,0.27-0.05,1.14,0.4,1.14C99.68,255.56,99.65,254.68,99.65,254.42z"/>
	<path d="M100.86,250.69h0.61v2.46h0.01c0.06-0.13,0.13-0.23,0.22-0.3c0.09-0.07,0.21-0.11,0.36-0.11c0.77,0,0.79,1.1,0.79,1.64
		c0,0.53-0.01,1.73-0.77,1.73c-0.35,0-0.48-0.19-0.6-0.47h-0.01v0.42h-0.61V250.69z M102.23,254.42c0-0.27,0.05-1.14-0.4-1.14
		c-0.41,0-0.38,0.88-0.38,1.14s-0.03,1.14,0.38,1.14C102.28,255.56,102.23,254.69,102.23,254.42z"/>
	<path d="M103.99,256.06h-0.61v-5.37h0.61V256.06z"/>
	<path d="M105.14,254.54c0,0.27-0.01,1.02,0.38,1.02c0.32,0,0.38-0.36,0.38-0.61h0.56c0,0.6-0.27,1.15-0.95,1.15
		c-0.91,0-1-0.97-1-1.66c0-0.67,0.08-1.71,0.98-1.71c0.89,0,0.99,1.04,0.99,1.71v0.1H105.14z M105.86,254.11
		c0-0.25,0-0.83-0.37-0.83c-0.38,0-0.36,0.58-0.36,0.83H105.86z"/>
</g>
<rect x="127.08" y="251.47" fill="#F19235" width="5.73" height="5.73"/>
<g>
	<path d="M136.99,256.06v-4.88h0.81c0.88,0,1.13,0.49,1.13,1.31c0,0.48-0.1,0.94-0.61,1.08v0.01c0.56,0.17,0.69,0.6,0.69,1.14
		c0,0.9-0.33,1.33-1.23,1.33H136.99z M137.72,251.73h-0.11v1.6c0.6,0.03,0.69-0.35,0.69-0.87
		C138.29,252.08,138.16,251.72,137.72,251.73z M137.61,255.51c0.56,0.03,0.71-0.27,0.71-0.8c0-0.54-0.11-0.87-0.71-0.86V255.51z"/>
	<path d="M139.54,251.8c0-0.22,0.18-0.4,0.41-0.4c0.21,0,0.4,0.18,0.4,0.4c0,0.23-0.19,0.41-0.4,0.41
		C139.72,252.21,139.54,252.03,139.54,251.8z M140.24,256.06h-0.61v-3.27h0.61V256.06z"/>
	<path d="M140.77,254.43c0-0.71,0.1-1.7,1.03-1.7s1.03,0.98,1.03,1.7c0,0.69-0.1,1.68-1.03,1.68S140.77,255.12,140.77,254.43z
		 M142.21,254.43c0-0.26,0.06-1.14-0.41-1.14s-0.41,0.88-0.41,1.14c0,0.23-0.06,1.12,0.41,1.12S142.21,254.67,142.21,254.43z"/>
	<path d="M143.95,256.06h-0.61v-5.37h0.61V256.06z"/>
	<path d="M144.48,254.43c0-0.71,0.1-1.7,1.03-1.7s1.03,0.98,1.03,1.7c0,0.69-0.1,1.68-1.03,1.68S144.48,255.12,144.48,254.43z
		 M145.92,254.43c0-0.26,0.06-1.14-0.41-1.14s-0.41,0.88-0.41,1.14c0,0.23-0.06,1.12,0.41,1.12S145.92,254.67,145.92,254.43z"/>
	<path d="M148.97,256.08c0,1.17-0.35,1.37-1,1.37c-0.59,0-0.96-0.34-0.96-0.94v-0.09h0.59c-0.01,0.23,0.08,0.49,0.39,0.49
		c0.41,0,0.37-0.39,0.37-0.69v-0.54h-0.01c-0.08,0.27-0.29,0.45-0.58,0.44c-0.78,0-0.8-1.11-0.8-1.66c0-0.52-0.01-1.71,0.78-1.71
		c0.32,0,0.47,0.18,0.6,0.44l0.01-0.01v-0.38h0.61V256.08z M147.97,253.28c-0.42,0-0.38,0.89-0.38,1.13c0,0.25-0.04,1.16,0.4,1.16
		s0.38-0.86,0.38-1.12C148.36,254.17,148.36,253.28,147.97,253.28z"/>
	<path d="M149.49,251.8c0-0.22,0.18-0.4,0.41-0.4c0.21,0,0.4,0.18,0.4,0.4c0,0.23-0.19,0.41-0.4,0.41
		C149.67,252.21,149.49,252.03,149.49,251.8z M150.2,256.06h-0.61v-3.27h0.61V256.06z"/>
	<path d="M152.18,253.46h-0.01c-0.06-0.1-0.15-0.15-0.28-0.16c-0.52,0.01-0.54,0.74-0.54,1.09c0,0.33,0.01,1.15,0.52,1.15
		c0.14,0,0.21-0.05,0.31-0.12v0.56c-0.16,0.09-0.31,0.13-0.49,0.13c-0.86,0-0.96-1.01-0.96-1.66c0-0.67,0.08-1.71,0.97-1.71
		c0.18,0,0.32,0.03,0.49,0.11V253.46z"/>
	<path d="M153.97,255.64h-0.01c-0.12,0.29-0.25,0.47-0.6,0.47c-0.76,0-0.77-1.2-0.77-1.73c0-0.54,0.02-1.64,0.79-1.64
		c0.28,0,0.47,0.17,0.58,0.41h0.01v-0.36h0.61v3.27h-0.61V255.64z M153.99,254.42c0-0.26,0.03-1.14-0.38-1.14
		c-0.45,0-0.4,0.87-0.4,1.14c0,0.27-0.05,1.14,0.4,1.14C154.01,255.56,153.99,254.68,153.99,254.42z"/>
	<path d="M155.8,256.06h-0.61v-5.37h0.61V256.06z"/>
	<path d="M157.03,256.06h-0.61v-5.37h0.61V256.06z"/>
	<path d="M158.08,252.79l0.48,2.28h0.01l0.55-2.28h0.61l-1.33,4.61h-0.64l0.5-1.6l-0.87-3H158.08z"/>
	<path d="M162.13,252.79v2.04c0,0.29-0.04,0.72,0.38,0.72c0.41,0,0.36-0.39,0.36-0.69v-2.08h0.61V255c0,0.67-0.2,1.11-0.94,1.11
		c-0.89,0-1.01-0.5-1.01-1.24v-2.08H162.13z"/>
	<path d="M164.71,253.16h0.01c0.07-0.14,0.16-0.24,0.26-0.31c0.11-0.08,0.24-0.12,0.4-0.12c0.65,0,0.67,0.58,0.67,1.07v2.25h-0.61
		v-2.26c0-0.23-0.04-0.52-0.36-0.52c-0.4,0-0.37,0.46-0.37,0.74v2.04h-0.61v-3.27h0.61V253.16z"/>
	<path d="M167.91,253.46c-0.12-0.1-0.3-0.17-0.45-0.17c-0.23,0-0.41,0.13-0.41,0.35c0.01,0.55,1.02,0.58,1.02,1.51
		c0,0.58-0.36,0.97-0.94,0.97c-0.21,0-0.35-0.04-0.53-0.16v-0.6c0.16,0.12,0.3,0.21,0.5,0.21c0.27,0,0.41-0.16,0.41-0.41
		c0-0.58-1.02-0.61-1.02-1.52c0-0.52,0.36-0.89,0.87-0.89c0.21,0,0.38,0.04,0.55,0.14V253.46z"/>
	<path d="M169.13,252.79v2.04c0,0.29-0.04,0.72,0.38,0.72c0.41,0,0.36-0.39,0.36-0.69v-2.08h0.61V255c0,0.67-0.2,1.11-0.94,1.11
		c-0.89,0-1.01-0.5-1.01-1.24v-2.08H169.13z"/>
	<path d="M172.33,253.46c-0.12-0.1-0.3-0.17-0.45-0.17c-0.23,0-0.41,0.13-0.41,0.35c0.01,0.55,1.02,0.58,1.02,1.51
		c0,0.58-0.36,0.97-0.94,0.97c-0.21,0-0.35-0.04-0.53-0.16v-0.6c0.16,0.12,0.3,0.21,0.5,0.21c0.27,0,0.41-0.16,0.41-0.41
		c0-0.58-1.02-0.61-1.02-1.52c0-0.52,0.36-0.89,0.87-0.89c0.21,0,0.38,0.04,0.55,0.14V253.46z"/>
	<path d="M173.68,251.86v0.92h0.32v0.48h-0.32v2.79h-0.61v-2.79h-0.33v-0.48h0.33v-0.92H173.68z"/>
	<path d="M175.73,255.64h-0.01c-0.12,0.29-0.25,0.47-0.6,0.47c-0.76,0-0.77-1.2-0.77-1.73c0-0.54,0.02-1.64,0.79-1.64
		c0.28,0,0.47,0.17,0.58,0.41h0.01v-0.36h0.61v3.27h-0.61V255.64z M175.75,254.42c0-0.26,0.03-1.14-0.38-1.14
		c-0.45,0-0.4,0.87-0.4,1.14c0,0.27-0.05,1.14,0.4,1.14C175.78,255.56,175.75,254.68,175.75,254.42z"/>
	<path d="M176.86,251.8c0-0.22,0.18-0.4,0.41-0.4c0.21,0,0.4,0.18,0.4,0.4c0,0.23-0.19,0.41-0.4,0.41
		C177.04,252.21,176.86,252.03,176.86,251.8z M177.57,256.06h-0.61v-3.27h0.61V256.06z"/>
	<path d="M178.8,253.16h0.01c0.07-0.14,0.16-0.24,0.26-0.31c0.11-0.08,0.24-0.12,0.4-0.12c0.65,0,0.67,0.58,0.67,1.07v2.25h-0.61
		v-2.26c0-0.23-0.04-0.52-0.36-0.52c-0.4,0-0.37,0.46-0.37,0.74v2.04h-0.61v-3.27h0.61V253.16z"/>
	<path d="M182.06,255.64h-0.01c-0.12,0.29-0.25,0.47-0.6,0.47c-0.76,0-0.77-1.2-0.77-1.73c0-0.54,0.02-1.64,0.79-1.64
		c0.28,0,0.47,0.17,0.58,0.41h0.01v-0.36h0.61v3.27h-0.61V255.64z M182.08,254.42c0-0.26,0.03-1.14-0.38-1.14
		c-0.45,0-0.4,0.87-0.4,1.14c0,0.27-0.05,1.14,0.4,1.14C182.1,255.56,182.08,254.68,182.08,254.42z"/>
	<path d="M183.28,250.69h0.61v2.46h0.01c0.06-0.13,0.13-0.23,0.22-0.3c0.09-0.07,0.21-0.11,0.36-0.11c0.77,0,0.79,1.1,0.79,1.64
		c0,0.53-0.01,1.73-0.77,1.73c-0.35,0-0.48-0.19-0.6-0.47h-0.01v0.42h-0.61V250.69z M184.65,254.42c0-0.27,0.05-1.14-0.4-1.14
		c-0.41,0-0.38,0.88-0.38,1.14s-0.03,1.14,0.38,1.14C184.71,255.56,184.65,254.69,184.65,254.42z"/>
	<path d="M186.41,256.06h-0.61v-5.37h0.61V256.06z"/>
	<path d="M187.56,254.54c0,0.27-0.01,1.02,0.38,1.02c0.32,0,0.38-0.36,0.38-0.61h0.56c0,0.6-0.27,1.15-0.95,1.15
		c-0.91,0-1-0.97-1-1.66c0-0.67,0.08-1.71,0.98-1.71c0.89,0,0.99,1.04,0.99,1.71v0.1H187.56z M188.29,254.11
		c0-0.25,0-0.83-0.37-0.83c-0.38,0-0.36,0.58-0.36,0.83H188.29z"/>
</g>
<line fill="none" stroke="#000000" stroke-width="0.196" stroke-miterlimit="10" x1="41.88" y1="129.01" x2="386.8" y2="129.01"/>
<line fill="none" stroke="#000000" stroke-width="0.196" stroke-miterlimit="10" x1="41.88" y1="192.67" x2="386.8" y2="192.67"/>
<line fill="none" stroke="#000000" stroke-width="0.196" stroke-miterlimit="10" x1="41.88" y1="160.84" x2="386.8" y2="160.84"/>
<line fill="none" stroke="#000000" stroke-width="0.196" stroke-miterlimit="10" x1="41.88" y1="97.18" x2="386.8" y2="97.18"/>
<line fill="none" stroke="#000000" stroke-width="0.196" stroke-miterlimit="10" x1="41.88" y1="65.35" x2="386.8" y2="65.35"/>
<polygon fill-rule="evenodd" clip-rule="evenodd" fill="#F19235" points="49.68,104.92 49.68,65.07 380.3,65.07 380.3,135.87 "/>
<polygon fill-rule="evenodd" clip-rule="evenodd" fill="#0088A2" points="49.68,224.22 49.68,80.54 81.93,78.2 90,85.23 
	106.13,86.12 122.25,91.18 138.38,93.6 154.51,103.86 170.64,107.42 178.7,94.29 194.83,104.12 219.02,107.74 235.15,102.31 
	259.34,108.37 291.6,103.49 307.72,109.22 323.85,117.24 331.91,112.38 348.04,110.46 364.17,114.66 380.3,117.48 380.3,224.22 "/>
<polyline fill="none" stroke="#FFFFFF" stroke-width="1.616" stroke-linejoin="round" stroke-miterlimit="10" points="49.98,161.99 
	82.24,159.41 90.3,165.44 106.43,164.86 122.56,175.58 138.68,174.18 154.81,174.4 170.94,175.81 179,174.45 195.13,177.78 
	219.32,177.25 235.45,181.99 259.64,183.95 291.9,187.88 308.02,191.68 324.15,201.87 332.22,204.52 348.34,208.43 364.47,206.97 
	380.6,213.01 "/>
<g>
	<path fill="#FFFFFF" d="M98.79,75.97c0,1.78-0.83,2.45-1.67,2.45c-0.84,0-1.67-0.67-1.67-2.45s0.83-2.45,1.67-2.45
		C97.96,73.52,98.79,74.18,98.79,75.97z M97.12,77.55c0.62,0,0.67-1.2,0.67-1.58c0-0.42-0.04-1.58-0.67-1.58
		c-0.62,0-0.67,1.16-0.67,1.58C96.45,76.35,96.5,77.55,97.12,77.55z"/>
	<path fill="#FFFFFF" d="M100,75.16l0.42,1.75l0.01,0.05h0.01l0.07-0.33l0.35-1.47h0.92l-0.92,3.18h-0.83l-0.91-3.18H100z"/>
	<path fill="#FFFFFF" d="M104.36,76.99h-1.41c0.01,0.23-0.01,0.74,0.33,0.74c0.23,0,0.28-0.18,0.28-0.37h0.76
		c-0.04,0.29-0.13,0.55-0.29,0.74c-0.16,0.19-0.39,0.3-0.72,0.3c-0.9,0-1.22-0.8-1.22-1.59c0-0.76,0.28-1.72,1.2-1.72
		c0.59,0,1.13,0.52,1.08,1.52L104.36,76.99z M103.61,76.37c0-0.21-0.04-0.59-0.32-0.59c-0.27,0-0.33,0.37-0.33,0.57v0.09h0.65V76.37
		z"/>
	<path fill="#FFFFFF" d="M105.72,75.16v0.38h0.01c0.16-0.28,0.38-0.47,0.73-0.5v0.86c-0.04-0.01-0.09-0.01-0.14-0.01
		c-0.59,0-0.6,0.39-0.6,0.86v1.59h-0.89v-3.18H105.72z"/>
	<path fill="#FFFFFF" d="M107.1,75.16v-0.89c0-0.6,0.12-1.07,0.91-1.07c0.13,0,0.26,0.03,0.38,0.08v0.86
		c-0.06-0.03-0.09-0.05-0.16-0.05c-0.28,0-0.25,0.32-0.25,0.52v0.57h0.41v0.73h-0.41v2.45h-0.89v-2.45h-0.33v-0.73H107.1z
		 M108.68,74.21c0-0.32,0.26-0.56,0.58-0.56c0.31,0,0.55,0.27,0.55,0.57c0,0.3-0.26,0.56-0.57,0.56
		C108.94,74.78,108.68,74.52,108.68,74.21z M109.69,75.16v3.18h-0.89v-3.18H109.69z"/>
	<path fill="#FFFFFF" d="M111.91,76.02c-0.13-0.11-0.25-0.21-0.43-0.21c-0.16,0-0.24,0.09-0.24,0.23c0.01,0.37,1.01,0.3,1.01,1.25
		c0,0.63-0.37,1.12-1.02,1.12c-0.34,0-0.69-0.15-0.96-0.37l0.39-0.63c0.13,0.11,0.26,0.21,0.44,0.21c0.14,0,0.26-0.1,0.26-0.26
		c0.01-0.42-1.01-0.32-1.01-1.32c0-0.61,0.5-0.93,1.06-0.93c0.32,0,0.59,0.08,0.85,0.27L111.91,76.02z"/>
	<path fill="#FFFFFF" d="M113.63,73.26v2.4h0.01c0.12-0.3,0.39-0.55,0.74-0.55c0.66,0,0.6,0.73,0.6,1.19v2.05h-0.89V76.6
		c0-0.16,0.06-0.6-0.22-0.6c-0.2,0-0.24,0.21-0.24,0.37v1.99h-0.89v-5.09H113.63z"/>
	<path fill="#FFFFFF" d="M117.69,76.99h-1.41c0.01,0.23-0.01,0.74,0.33,0.74c0.23,0,0.28-0.18,0.28-0.37h0.76
		c-0.04,0.29-0.13,0.55-0.29,0.74c-0.16,0.19-0.39,0.3-0.72,0.3c-0.9,0-1.22-0.8-1.22-1.59c0-0.76,0.28-1.72,1.2-1.72
		c0.59,0,1.13,0.52,1.08,1.52L117.69,76.99z M116.94,76.37c0-0.21-0.04-0.59-0.32-0.59c-0.27,0-0.33,0.37-0.33,0.57v0.09h0.65V76.37
		z"/>
	<path fill="#FFFFFF" d="M119.56,77.98h-0.01c-0.12,0.24-0.3,0.42-0.59,0.42c-0.72,0-0.86-1.15-0.86-1.66
		c0-0.55,0.11-1.65,0.85-1.65c0.3,0,0.5,0.2,0.6,0.45h0.01v-2.29h0.89v5.09h-0.89V77.98z M119.62,76.74c0-0.18-0.02-0.85-0.32-0.85
		c-0.3,0-0.32,0.67-0.32,0.85c0,0.2,0.01,0.86,0.33,0.86C119.6,77.59,119.62,76.91,119.62,76.74z"/>
</g>
<g>
	<path fill="#FFFFFF" d="M97.08,124.31l0.46,2.8h0.01l0.38-2.8h1.26l0.5,4.75h-0.96l-0.23-3.42h-0.01l-0.15,1.17l-0.4,2.25h-0.73
		l-0.46-2.28l-0.16-1.06v-0.09h-0.01l-0.14,3.42h-1.01l0.42-4.75H97.08z"/>
	<path fill="#FFFFFF" d="M101.53,128.7h-0.01c-0.12,0.24-0.3,0.42-0.59,0.42c-0.72,0-0.86-1.15-0.86-1.66
		c0-0.55,0.11-1.65,0.85-1.65c0.3,0,0.5,0.2,0.6,0.45h0.01v-0.39h0.89v3.18h-0.89V128.7z M101.59,127.45c0-0.18-0.02-0.85-0.32-0.85
		c-0.3,0-0.32,0.67-0.32,0.85c0,0.2,0.01,0.86,0.33,0.86C101.57,128.31,101.59,127.62,101.59,127.45z"/>
	<path fill="#FFFFFF" d="M103.88,125.88l0.25,0.49l0.09,0.2l0.36-0.68h0.92l-0.81,1.47l0.94,1.71h-0.94l-0.47-0.88l-0.47,0.88h-0.91
		l0.91-1.71l-0.79-1.47H103.88z"/>
	<path fill="#FFFFFF" d="M105.93,124.93c0-0.32,0.26-0.56,0.58-0.56c0.31,0,0.55,0.27,0.55,0.57c0,0.3-0.26,0.56-0.57,0.56
		C106.18,125.5,105.93,125.24,105.93,124.93z M106.94,125.88v3.18h-0.89v-3.18H106.94z"/>
	<path fill="#FFFFFF" d="M108.33,126.39h0.01c0.15-0.31,0.4-0.57,0.78-0.57c0.33,0,0.5,0.25,0.55,0.54h0.01
		c0.15-0.28,0.42-0.54,0.76-0.54c0.57,0,0.57,0.64,0.57,1.05v2.2h-0.89v-1.73c0-0.16,0.04-0.63-0.22-0.63
		c-0.21,0-0.24,0.21-0.24,0.36v2h-0.89v-1.78c0-0.16,0.04-0.56-0.21-0.56c-0.22,0-0.25,0.2-0.25,0.37v1.98h-0.89v-3.18h0.89
		L108.33,126.39z"/>
	<path fill="#FFFFFF" d="M112.93,128.7h-0.01c-0.12,0.24-0.3,0.42-0.59,0.42c-0.72,0-0.86-1.15-0.86-1.66
		c0-0.55,0.11-1.65,0.85-1.65c0.3,0,0.5,0.2,0.6,0.45h0.01v-0.39h0.89v3.18h-0.89V128.7z M112.99,127.45c0-0.18-0.02-0.85-0.32-0.85
		c-0.3,0-0.32,0.67-0.32,0.85c0,0.2,0.01,0.86,0.33,0.86C112.97,128.31,112.99,127.62,112.99,127.45z"/>
	<path fill="#FFFFFF" d="M115.2,123.98v5.09h-0.89v-5.09H115.2z"/>
	<path fill="#FFFFFF" d="M116.58,123.98v5.09h-0.89v-5.09H116.58z"/>
	<path fill="#FFFFFF" d="M117.85,125.88l0.33,1.29l0.11,0.53h0.01l0.42-1.82h0.9l-1.37,4.75h-0.88l0.51-1.63l-0.93-3.12H117.85z"/>
	<path fill="#FFFFFF" d="M123.21,126.74c-0.13-0.11-0.25-0.21-0.43-0.21c-0.16,0-0.24,0.09-0.24,0.23c0.01,0.37,1.01,0.3,1.01,1.25
		c0,0.63-0.37,1.12-1.02,1.12c-0.34,0-0.69-0.15-0.96-0.37l0.39-0.63c0.13,0.11,0.26,0.21,0.44,0.21c0.14,0,0.26-0.1,0.26-0.26
		c0.01-0.42-1.01-0.32-1.01-1.32c0-0.61,0.5-0.93,1.06-0.93c0.32,0,0.59,0.08,0.85,0.27L123.21,126.74z"/>
	<path fill="#FFFFFF" d="M124.93,125.88v1.75c0,0.18-0.07,0.67,0.23,0.67c0.24,0,0.22-0.32,0.22-0.47l0.01-1.94h0.88v2.03
		c0,0.74-0.35,1.22-1.13,1.22c-1.01,0-1.09-0.76-1.09-1.34v-1.91H124.93z"/>
	<path fill="#FFFFFF" d="M128.37,126.74c-0.13-0.11-0.25-0.21-0.43-0.21c-0.16,0-0.24,0.09-0.24,0.23c0.01,0.37,1.01,0.3,1.01,1.25
		c0,0.63-0.37,1.12-1.02,1.12c-0.34,0-0.69-0.15-0.96-0.37l0.39-0.63c0.13,0.11,0.26,0.21,0.44,0.21c0.14,0,0.26-0.1,0.26-0.26
		c0.01-0.42-1.01-0.32-1.01-1.32c0-0.61,0.5-0.93,1.06-0.93c0.32,0,0.59,0.08,0.85,0.27L128.37,126.74z"/>
	<path fill="#FFFFFF" d="M130.37,125v0.88h0.37v0.73h-0.37v2.45h-0.89v-2.45h-0.31v-0.73h0.31V125H130.37z"/>
	<path fill="#FFFFFF" d="M132.61,128.7h-0.01c-0.12,0.24-0.3,0.42-0.59,0.42c-0.72,0-0.86-1.15-0.86-1.66
		c0-0.55,0.11-1.65,0.85-1.65c0.3,0,0.5,0.2,0.6,0.45h0.01v-0.39h0.89v3.18h-0.89V128.7z M132.68,127.45c0-0.18-0.02-0.85-0.32-0.85
		c-0.3,0-0.32,0.67-0.32,0.85c0,0.2,0.01,0.86,0.33,0.86C132.65,128.31,132.68,127.62,132.68,127.45z"/>
	<path fill="#FFFFFF" d="M133.87,124.93c0-0.32,0.26-0.56,0.58-0.56c0.31,0,0.55,0.27,0.55,0.57c0,0.3-0.26,0.56-0.57,0.56
		C134.13,125.5,133.87,125.24,133.87,124.93z M134.88,125.88v3.18h-0.89v-3.18H134.88z"/>
	<path fill="#FFFFFF" d="M136.26,126.37h0.01c0.12-0.3,0.39-0.55,0.74-0.55c0.66,0,0.6,0.73,0.6,1.19v2.05h-0.89v-1.75
		c0-0.16,0.06-0.6-0.22-0.6c-0.2,0-0.24,0.21-0.24,0.37v1.99h-0.89v-3.18h0.89V126.37z"/>
	<path fill="#FFFFFF" d="M139.52,128.7h-0.01c-0.12,0.24-0.3,0.42-0.59,0.42c-0.72,0-0.86-1.15-0.86-1.66
		c0-0.55,0.11-1.65,0.85-1.65c0.3,0,0.5,0.2,0.6,0.45h0.01v-0.39h0.89v3.18h-0.89V128.7z M139.58,127.45c0-0.18-0.02-0.85-0.32-0.85
		c-0.3,0-0.32,0.67-0.32,0.85c0,0.2,0.01,0.86,0.33,0.86C139.55,128.31,139.58,127.62,139.58,127.45z"/>
	<path fill="#FFFFFF" d="M140.9,123.98h0.89v2.29h0.01c0.1-0.26,0.3-0.45,0.59-0.45c0.75,0,0.85,1.1,0.85,1.65
		c0,0.51-0.13,1.66-0.86,1.66c-0.29,0-0.47-0.18-0.59-0.42h-0.01v0.36h-0.89V123.98z M142.36,127.45c0-0.18-0.03-0.85-0.31-0.85
		c-0.3,0-0.32,0.67-0.32,0.85c0,0.17,0.02,0.86,0.31,0.86C142.34,128.31,142.36,127.66,142.36,127.45z"/>
	<path fill="#FFFFFF" d="M144.59,123.98v5.09h-0.89v-5.09H144.59z"/>
	<path fill="#FFFFFF" d="M145.85,125.88l0.33,1.29l0.11,0.53h0.01l0.42-1.82h0.9l-1.37,4.75h-0.88l0.51-1.63l-0.93-3.12H145.85z"/>
	<path fill="#FFFFFF" d="M149.83,125.88v-0.89c0-0.6,0.12-1.07,0.91-1.07c0.13,0,0.26,0.03,0.38,0.08v0.86
		c-0.06-0.03-0.09-0.05-0.16-0.05c-0.28,0-0.25,0.32-0.25,0.52v0.57h0.41v0.73h-0.41v2.45h-0.89v-2.45h-0.33v-0.73H149.83z
		 M151.41,124.93c0-0.32,0.26-0.56,0.58-0.56c0.31,0,0.55,0.27,0.55,0.57c0,0.3-0.26,0.56-0.57,0.56
		C151.66,125.5,151.41,125.24,151.41,124.93z M152.42,125.88v3.18h-0.89v-3.18H152.42z"/>
	<path fill="#FFFFFF" d="M154.64,126.74c-0.13-0.11-0.25-0.21-0.43-0.21c-0.16,0-0.24,0.09-0.24,0.23c0.01,0.37,1.01,0.3,1.01,1.25
		c0,0.63-0.37,1.12-1.02,1.12c-0.34,0-0.69-0.15-0.96-0.37l0.39-0.63c0.13,0.11,0.26,0.21,0.44,0.21c0.14,0,0.26-0.1,0.26-0.26
		c0.01-0.42-1.01-0.32-1.01-1.32c0-0.61,0.5-0.93,1.06-0.93c0.32,0,0.59,0.08,0.85,0.27L154.64,126.74z"/>
	<path fill="#FFFFFF" d="M156.36,123.98v2.4h0.01c0.12-0.3,0.39-0.55,0.74-0.55c0.66,0,0.6,0.73,0.6,1.19v2.05h-0.89v-1.75
		c0-0.16,0.06-0.6-0.22-0.6c-0.2,0-0.24,0.21-0.24,0.37v1.99h-0.89v-5.09H156.36z"/>
	<path fill="#FFFFFF" d="M160.41,127.71h-1.41c0.01,0.23-0.01,0.74,0.33,0.74c0.23,0,0.28-0.18,0.28-0.37h0.76
		c-0.04,0.29-0.13,0.55-0.29,0.74c-0.16,0.19-0.39,0.3-0.72,0.3c-0.9,0-1.22-0.8-1.22-1.59c0-0.76,0.28-1.72,1.2-1.72
		c0.59,0,1.13,0.52,1.08,1.52L160.41,127.71z M159.66,127.08c0-0.21-0.04-0.59-0.32-0.59c-0.27,0-0.33,0.37-0.33,0.57v0.09h0.65
		V127.08z"/>
	<path fill="#FFFFFF" d="M162.28,128.7h-0.01c-0.12,0.24-0.3,0.42-0.59,0.42c-0.72,0-0.86-1.15-0.86-1.66
		c0-0.55,0.11-1.65,0.85-1.65c0.3,0,0.5,0.2,0.6,0.45h0.01v-2.29h0.89v5.09h-0.89V128.7z M162.35,127.45c0-0.18-0.02-0.85-0.32-0.85
		c-0.3,0-0.32,0.67-0.32,0.85c0,0.2,0.01,0.86,0.33,0.86C162.32,128.31,162.35,127.62,162.35,127.45z"/>
</g>
<g>
	<path fill="#FFFFFF" d="M96.54,188.84v3.08c0,0.36-0.04,0.9,0.47,0.9c0.46,0,0.46-0.35,0.47-0.7v-3.28h0.94v3.47
		c0,0.5-0.06,1.36-1.41,1.36c-0.88,0-1.4-0.41-1.4-1.3v-3.53H96.54z"/>
	<path fill="#FFFFFF" d="M99.89,190.9h0.01c0.12-0.3,0.39-0.55,0.74-0.55c0.66,0,0.6,0.73,0.6,1.19v2.05h-0.89v-1.75
		c0-0.16,0.06-0.6-0.22-0.6c-0.2,0-0.24,0.21-0.24,0.37v1.99H99v-3.18h0.89V190.9z"/>
	<path fill="#FFFFFF" d="M103.14,193.24h-0.01c-0.12,0.24-0.3,0.42-0.59,0.42c-0.72,0-0.86-1.15-0.86-1.66
		c0-0.55,0.11-1.65,0.85-1.65c0.3,0,0.5,0.2,0.6,0.45h0.01v-2.29h0.89v5.09h-0.89V193.24z M103.21,191.99
		c0-0.18-0.02-0.85-0.32-0.85c-0.3,0-0.32,0.67-0.32,0.85c0,0.2,0.01,0.86,0.33,0.86C103.18,192.84,103.21,192.16,103.21,191.99z"/>
	<path fill="#FFFFFF" d="M106.74,192.24h-1.41c0.01,0.23-0.01,0.74,0.33,0.74c0.23,0,0.28-0.18,0.28-0.37h0.76
		c-0.04,0.29-0.13,0.55-0.29,0.74c-0.16,0.19-0.39,0.3-0.72,0.3c-0.9,0-1.22-0.8-1.22-1.59c0-0.76,0.28-1.72,1.2-1.72
		c0.59,0,1.13,0.52,1.08,1.52L106.74,192.24z M105.99,191.62c0-0.21-0.04-0.59-0.32-0.59c-0.27,0-0.33,0.37-0.33,0.57v0.09h0.65
		V191.62z"/>
	<path fill="#FFFFFF" d="M108.09,190.41v0.38h0.01c0.16-0.28,0.38-0.47,0.73-0.5v0.86c-0.04-0.01-0.09-0.01-0.14-0.01
		c-0.59,0-0.6,0.39-0.6,0.86v1.59h-0.89v-3.18H108.09z"/>
	<path fill="#FFFFFF" d="M109.48,190.41v-0.89c0-0.6,0.12-1.07,0.91-1.07c0.13,0,0.26,0.03,0.38,0.08v0.86
		c-0.06-0.03-0.09-0.05-0.16-0.05c-0.28,0-0.25,0.32-0.25,0.52v0.57h0.41v0.73h-0.41v2.45h-0.89v-2.45h-0.33v-0.73H109.48z
		 M111.06,189.46c0-0.32,0.26-0.56,0.58-0.56c0.31,0,0.55,0.27,0.55,0.57c0,0.3-0.26,0.56-0.57,0.56
		C111.31,190.03,111.06,189.78,111.06,189.46z M112.07,190.41v3.18h-0.89v-3.18H112.07z"/>
	<path fill="#FFFFFF" d="M114.29,191.27c-0.13-0.11-0.25-0.21-0.43-0.21c-0.16,0-0.24,0.09-0.24,0.23c0.01,0.37,1.01,0.3,1.01,1.25
		c0,0.63-0.37,1.12-1.02,1.12c-0.34,0-0.69-0.15-0.96-0.37l0.39-0.63c0.13,0.11,0.26,0.21,0.44,0.21c0.14,0,0.26-0.1,0.26-0.26
		c0.01-0.42-1.01-0.32-1.01-1.32c0-0.61,0.5-0.93,1.06-0.93c0.32,0,0.59,0.08,0.85,0.27L114.29,191.27z"/>
	<path fill="#FFFFFF" d="M116.01,188.51v2.4h0.01c0.12-0.3,0.39-0.55,0.74-0.55c0.66,0,0.6,0.73,0.6,1.19v2.05h-0.89v-1.75
		c0-0.16,0.06-0.6-0.22-0.6c-0.2,0-0.24,0.21-0.24,0.37v1.99h-0.89v-5.09H116.01z"/>
	<path fill="#FFFFFF" d="M120.06,192.24h-1.41c0.01,0.23-0.01,0.74,0.33,0.74c0.23,0,0.28-0.18,0.28-0.37h0.76
		c-0.04,0.29-0.13,0.55-0.29,0.74c-0.16,0.19-0.39,0.3-0.72,0.3c-0.9,0-1.22-0.8-1.22-1.59c0-0.76,0.28-1.72,1.2-1.72
		c0.59,0,1.13,0.52,1.08,1.52L120.06,192.24z M119.31,191.62c0-0.21-0.04-0.59-0.32-0.59c-0.27,0-0.33,0.37-0.33,0.57v0.09h0.65
		V191.62z"/>
	<path fill="#FFFFFF" d="M121.94,193.24h-0.01c-0.12,0.24-0.3,0.42-0.59,0.42c-0.72,0-0.86-1.15-0.86-1.66
		c0-0.55,0.11-1.65,0.85-1.65c0.3,0,0.5,0.2,0.6,0.45h0.01v-2.29h0.89v5.09h-0.89V193.24z M122,191.99c0-0.18-0.02-0.85-0.32-0.85
		c-0.3,0-0.32,0.67-0.32,0.85c0,0.2,0.01,0.86,0.33,0.86C121.98,192.84,122,192.16,122,191.99z"/>
</g>
<g>
	<path d="M37.85,223.21c0,0.67,0.05,2.18-0.97,2.18s-0.97-1.51-0.97-2.18c0-0.67-0.05-2.19,0.97-2.19S37.85,222.54,37.85,223.21z
		 M36.88,221.53c-0.39,0-0.42,0.79-0.41,1.68c-0.01,0.89,0.02,1.67,0.41,1.67s0.42-0.79,0.41-1.67
		C37.3,222.32,37.27,221.53,36.88,221.53z"/>
</g>
<g>
	<path d="M33.76,191.2c0-0.66,0.08-1.25,0.89-1.25c0.69,0,0.93,0.38,0.93,1.03c0,0.62-0.43,1.49-0.72,2.03l-0.35,0.67h1.03v0.48
		h-1.83l1.01-2.14c0.15-0.34,0.3-0.71,0.3-1.08c0-0.23-0.08-0.5-0.37-0.5c-0.38,0-0.32,0.62-0.32,0.8v0.11h-0.56V191.2z"/>
	<path d="M37.85,192.07c0,0.66,0.05,2.13-0.94,2.13c-0.99,0-0.94-1.47-0.94-2.13c0-0.66-0.05-2.13,0.94-2.13
		C37.9,189.94,37.85,191.42,37.85,192.07z M36.91,190.44c-0.38,0-0.41,0.77-0.4,1.64c-0.01,0.87,0.02,1.63,0.4,1.63
		c0.38,0,0.41-0.77,0.4-1.63C37.32,191.21,37.29,190.44,36.91,190.44z"/>
</g>
<g>
	<path d="M35.33,160.77h0.27v0.41h-0.27v1.14h-0.54v-1.14h-1.12v-0.47l1.12-2.55h0.54V160.77z M34.79,159h-0.01l-0.67,1.77h0.69V159
		z"/>
	<path d="M37.85,160.24c0,0.66,0.05,2.13-0.94,2.13c-0.99,0-0.94-1.47-0.94-2.13c0-0.66-0.05-2.13,0.94-2.13
		C37.9,158.11,37.85,159.58,37.85,160.24z M36.91,158.61c-0.38,0-0.41,0.77-0.4,1.64c-0.01,0.87,0.02,1.63,0.4,1.63
		c0.38,0,0.41-0.77,0.4-1.63C37.32,159.37,37.29,158.61,36.91,158.61z"/>
</g>
<g>
	<path d="M35.18,126.33l-0.81,1.78l0.01,0.01c0.12-0.11,0.25-0.19,0.43-0.19c0.69,0,0.73,0.8,0.73,1.31c0,0.64-0.08,1.3-0.9,1.3
		c-0.82,0-0.9-0.77-0.9-1.41c0-1.13,0.37-1.82,0.85-2.81H35.18z M34.65,128.43c-0.08,0-0.34-0.03-0.34,0.81
		c0,0.24,0.01,0.81,0.34,0.81c0.31,0,0.33-0.56,0.33-0.8C34.97,128.99,34.98,128.43,34.65,128.43z"/>
	<path d="M37.85,128.41c0,0.66,0.05,2.13-0.94,2.13c-0.99,0-0.94-1.47-0.94-2.13s-0.05-2.13,0.94-2.13
		C37.9,126.28,37.85,127.76,37.85,128.41z M36.91,126.78c-0.38,0-0.41,0.77-0.4,1.64c-0.01,0.87,0.02,1.63,0.4,1.63
		c0.38,0,0.41-0.77,0.4-1.63C37.32,127.55,37.29,126.78,36.91,126.78z"/>
</g>
<g>
	<path d="M34.23,96.41c-0.4-0.13-0.46-0.57-0.46-0.93c0-0.58,0.18-1.02,0.83-1.02c0.69,0,0.9,0.35,0.9,1.02
		c0,0.36-0.06,0.8-0.45,0.93v0c0.44,0.11,0.49,0.62,0.49,1.01c0,0.63-0.12,1.3-0.9,1.3c-0.75,0-0.9-0.6-0.9-1.22
		c0-0.41,0.01-0.96,0.49-1.08V96.41z M34.98,97.53c0-0.24,0.01-0.82-0.34-0.82c-0.35,0-0.33,0.57-0.33,0.82
		c0,0.24,0.02,0.7,0.33,0.7C34.96,98.22,34.98,97.76,34.98,97.53z M34.95,95.53c0-0.2-0.03-0.58-0.3-0.58
		c-0.28,0-0.31,0.38-0.31,0.58c0,0.19,0.03,0.64,0.31,0.64C34.91,96.17,34.95,95.73,34.95,95.53z"/>
	<path d="M37.85,96.59c0,0.66,0.05,2.13-0.94,2.13c-0.99,0-0.94-1.47-0.94-2.13c0-0.66-0.05-2.13,0.94-2.13
		C37.9,94.45,37.85,95.93,37.85,96.59z M36.91,94.95c-0.38,0-0.41,0.77-0.4,1.64c-0.01,0.87,0.02,1.63,0.4,1.63
		c0.38,0,0.41-0.77,0.4-1.63C37.32,95.72,37.29,94.95,36.91,94.95z"/>
</g>
<g>
	<path d="M32.65,62v4.17H32.1v-3.68H31.7V62H32.65z"/>
	<path d="M35.59,64.09c0,0.66,0.05,2.13-0.94,2.13c-0.99,0-0.94-1.47-0.94-2.13c0-0.66-0.05-2.13,0.94-2.13
		C35.64,61.95,35.59,63.43,35.59,64.09z M34.64,62.45c-0.38,0-0.41,0.77-0.4,1.64c-0.01,0.87,0.02,1.63,0.4,1.63
		c0.38,0,0.41-0.77,0.4-1.63C35.05,63.22,35.02,62.45,34.64,62.45z"/>
	<path d="M37.85,64.09c0,0.66,0.05,2.13-0.94,2.13c-0.99,0-0.94-1.47-0.94-2.13c0-0.66-0.05-2.13,0.94-2.13
		C37.9,61.95,37.85,63.43,37.85,64.09z M36.91,62.45c-0.38,0-0.41,0.77-0.4,1.64c-0.01,0.87,0.02,1.63,0.4,1.63
		c0.38,0,0.41-0.77,0.4-1.63C37.32,63.22,37.29,62.45,36.91,62.45z"/>
</g>
<g>
	<path d="M87.73,229.12v4.27h-0.55v-3.78h-0.42v-0.49H87.73z"/>
	<path d="M89.18,233.39l0.85-1.78l-0.01-0.01c-0.12,0.12-0.24,0.17-0.43,0.17c-0.66,0-0.74-0.73-0.74-1.24
		c0-0.66,0.05-1.46,0.91-1.46c0.86,0,0.92,0.78,0.92,1.45c0,0.93-0.24,1.53-0.64,2.36l-0.25,0.51H89.18z M90.11,230.41
		c0-0.24-0.01-0.83-0.35-0.83c-0.34,0-0.33,0.62-0.33,0.86c0,0.25-0.01,0.82,0.33,0.82C90.14,231.26,90.11,230.65,90.11,230.41z"/>
	<path d="M91.68,231.07c-0.41-0.13-0.47-0.58-0.47-0.95c0-0.59,0.18-1.05,0.85-1.05c0.71,0,0.92,0.36,0.92,1.05
		c0,0.37-0.06,0.82-0.46,0.96v0.01c0.45,0.11,0.5,0.63,0.5,1.03c0,0.65-0.12,1.33-0.92,1.33c-0.76,0-0.92-0.62-0.92-1.25
		c0-0.42,0.01-0.99,0.5-1.11V231.07z M92.44,232.22c0-0.25,0.01-0.84-0.35-0.84c-0.36,0-0.34,0.59-0.34,0.84
		c0,0.24,0.02,0.71,0.34,0.71C92.43,232.93,92.44,232.46,92.44,232.22z M92.41,230.18c0-0.2-0.03-0.59-0.31-0.59
		c-0.29,0-0.32,0.39-0.32,0.59c0,0.2,0.03,0.65,0.32,0.65C92.38,230.83,92.41,230.37,92.41,230.18z"/>
	<path d="M95.39,231.26c0,0.67,0.05,2.18-0.97,2.18s-0.97-1.51-0.97-2.18c0-0.67-0.05-2.19,0.97-2.19S95.39,230.58,95.39,231.26z
		 M94.42,229.58c-0.39,0-0.42,0.79-0.41,1.68c-0.01,0.89,0.02,1.67,0.41,1.67s0.42-0.79,0.41-1.67
		C94.84,230.37,94.81,229.58,94.42,229.58z"/>
</g>
<g>
	<path d="M170.39,229.12v4.27h-0.55v-3.78h-0.42v-0.49H170.39z"/>
	<path d="M171.85,233.39l0.85-1.78l-0.01-0.01c-0.12,0.12-0.24,0.17-0.43,0.17c-0.66,0-0.74-0.73-0.74-1.24
		c0-0.66,0.05-1.46,0.91-1.46c0.86,0,0.92,0.78,0.92,1.45c0,0.93-0.24,1.53-0.64,2.36l-0.25,0.51H171.85z M172.78,230.41
		c0-0.24-0.01-0.83-0.35-0.83c-0.34,0-0.33,0.62-0.33,0.86c0,0.25-0.01,0.82,0.33,0.82C172.8,231.26,172.78,230.65,172.78,230.41z"
		/>
	<path d="M174.17,233.39l0.85-1.78l-0.01-0.01c-0.12,0.12-0.24,0.17-0.43,0.17c-0.66,0-0.74-0.73-0.74-1.24
		c0-0.66,0.05-1.46,0.91-1.46c0.86,0,0.92,0.78,0.92,1.45c0,0.93-0.24,1.53-0.64,2.36l-0.25,0.51H174.17z M175.1,230.41
		c0-0.24-0.01-0.83-0.35-0.83c-0.34,0-0.33,0.62-0.33,0.86c0,0.25-0.01,0.82,0.33,0.82C175.12,231.26,175.1,230.65,175.1,230.41z"/>
	<path d="M178.05,231.26c0,0.67,0.05,2.18-0.97,2.18s-0.97-1.51-0.97-2.18c0-0.67-0.05-2.19,0.97-2.19S178.05,230.58,178.05,231.26z
		 M177.08,229.58c-0.39,0-0.42,0.79-0.41,1.68c-0.01,0.89,0.02,1.67,0.41,1.67s0.42-0.79,0.41-1.67
		C177.5,230.37,177.48,229.58,177.08,229.58z"/>
</g>
<g>
	<path d="M251.87,230.36c0-0.68,0.09-1.29,0.91-1.29c0.7,0,0.95,0.39,0.95,1.05c0,0.64-0.44,1.52-0.74,2.08l-0.36,0.69h1.06v0.49
		h-1.88l1.04-2.19c0.15-0.35,0.3-0.72,0.3-1.11c0-0.23-0.08-0.51-0.38-0.51c-0.38,0-0.33,0.64-0.33,0.81v0.11h-0.58V230.36z"/>
	<path d="M256.07,231.26c0,0.67,0.05,2.18-0.97,2.18c-1.02,0-0.97-1.51-0.97-2.18c0-0.67-0.05-2.19,0.97-2.19
		C256.12,229.07,256.07,230.58,256.07,231.26z M255.1,229.58c-0.39,0-0.42,0.79-0.41,1.68c-0.01,0.89,0.02,1.67,0.41,1.67
		s0.42-0.79,0.41-1.67C255.52,230.37,255.49,229.58,255.1,229.58z"/>
	<path d="M258.39,231.26c0,0.67,0.05,2.18-0.97,2.18s-0.97-1.51-0.97-2.18c0-0.67-0.05-2.19,0.97-2.19S258.39,230.58,258.39,231.26z
		 M257.42,229.58c-0.39,0-0.42,0.79-0.41,1.68c-0.01,0.89,0.02,1.67,0.41,1.67s0.42-0.79,0.41-1.67
		C257.84,230.37,257.81,229.58,257.42,229.58z"/>
	<path d="M260.72,231.26c0,0.67,0.05,2.18-0.97,2.18c-1.02,0-0.97-1.51-0.97-2.18c0-0.67-0.05-2.19,0.97-2.19
		C260.77,229.07,260.72,230.58,260.72,231.26z M259.75,229.58c-0.39,0-0.42,0.79-0.41,1.68c-0.01,0.89,0.02,1.67,0.41,1.67
		s0.42-0.79,0.41-1.67C260.17,230.37,260.14,229.58,259.75,229.58z"/>
</g>
<g>
	<path d="M334.54,230.36c0-0.68,0.08-1.29,0.91-1.29c0.7,0,0.95,0.39,0.95,1.05c0,0.64-0.44,1.52-0.74,2.08l-0.36,0.69h1.06v0.49
		h-1.88l1.04-2.19c0.15-0.35,0.31-0.72,0.31-1.11c0-0.23-0.08-0.51-0.38-0.51c-0.38,0-0.33,0.64-0.33,0.81v0.11h-0.58V230.36z"/>
	<path d="M338.73,231.26c0,0.67,0.05,2.18-0.97,2.18s-0.97-1.51-0.97-2.18c0-0.67-0.05-2.19,0.97-2.19S338.73,230.58,338.73,231.26z
		 M337.76,229.58c-0.39,0-0.42,0.79-0.41,1.68c-0.01,0.89,0.02,1.67,0.41,1.67s0.42-0.79,0.41-1.67
		C338.18,230.37,338.15,229.58,337.76,229.58z"/>
	<path d="M340.36,229.12v4.27h-0.55v-3.78h-0.42v-0.49H340.36z"/>
	<path d="M343.38,231.26c0,0.67,0.05,2.18-0.97,2.18s-0.97-1.51-0.97-2.18c0-0.67-0.05-2.19,0.97-2.19S343.38,230.58,343.38,231.26z
		 M342.41,229.58c-0.39,0-0.42,0.79-0.41,1.68c-0.01,0.89,0.02,1.67,0.41,1.67s0.42-0.79,0.41-1.67
		C342.83,230.37,342.8,229.58,342.41,229.58z"/>
</g>
<g>
	<path d="M215.22,241.42l0.5,1.33l0.07,0.24h0.01l0.11-0.36l0.43-1.2h1.08l-1.14,2.54v2.34h-0.96v-2.34l-1.17-2.54H215.22z"/>
	<path d="M219.74,241.42v0.91h-0.98v1.06h0.86v0.91h-0.86v1.1h0.99v0.91h-1.95v-4.88H219.74z"/>
	<path d="M222.19,241.42l1.17,4.88h-1.03l-0.18-0.82h-0.98L221,246.3h-0.96l1.13-4.88H222.19z M221.76,243.42l-0.11-0.74h-0.01
		l-0.1,0.74l-0.21,1.3h0.68L221.76,243.42z"/>
	<path d="M223.75,246.3v-4.88h0.97c0.61,0,1.71,0.06,1.71,1.4c0,0.54-0.21,1-0.69,1.26l0.85,2.22h-1.02l-0.85-2.25h-0.01v2.25
		H223.75z M224.71,243.52l0.17,0.01c0.44,0,0.61-0.3,0.61-0.7c0-0.35-0.17-0.63-0.65-0.61h-0.13V243.52z"/>
</g>
<g>
	<path d="M46.39,229.12v4.27h-0.55v-3.78h-0.42v-0.49H46.39z"/>
	<path d="M47.85,233.39l0.85-1.78l-0.01-0.01c-0.12,0.12-0.24,0.17-0.43,0.17c-0.66,0-0.74-0.73-0.74-1.24
		c0-0.66,0.05-1.46,0.91-1.46c0.86,0,0.92,0.78,0.92,1.45c0,0.93-0.24,1.53-0.64,2.36l-0.25,0.51H47.85z M48.78,230.41
		c0-0.24-0.01-0.83-0.35-0.83c-0.34,0-0.33,0.62-0.33,0.86c0,0.25-0.01,0.82,0.33,0.82C48.8,231.26,48.78,230.65,48.78,230.41z"/>
	<path d="M51.72,229.12l-1.3,4.27h-0.61l1.19-3.78h-1.19v-0.49H51.72z"/>
	<path d="M53.97,229.12v0.49h-0.92l-0.14,1.08c0.77-0.03,1.12,0.48,1.12,1.2c0,0.78-0.29,1.55-1.2,1.55c-0.25,0-0.44-0.07-0.66-0.18
		l0.15-0.5c0.17,0.09,0.3,0.17,0.5,0.17c0.5,0,0.64-0.57,0.64-0.95c0-0.49-0.21-0.84-0.74-0.84c-0.11,0-0.23,0.02-0.35,0.05
		l0.25-2.07H53.97z"/>
</g>
<g>
	<path d="M129.06,229.12v4.27h-0.55v-3.78h-0.42v-0.49H129.06z"/>
	<path d="M130.52,233.39l0.85-1.78l-0.01-0.01c-0.12,0.12-0.24,0.17-0.43,0.17c-0.66,0-0.74-0.73-0.74-1.24
		c0-0.66,0.05-1.46,0.91-1.46c0.86,0,0.92,0.78,0.92,1.45c0,0.93-0.24,1.53-0.64,2.36l-0.25,0.51H130.52z M131.44,230.41
		c0-0.24-0.01-0.83-0.35-0.83c-0.34,0-0.33,0.62-0.33,0.86c0,0.25-0.01,0.82,0.33,0.82C131.47,231.26,131.44,230.65,131.44,230.41z"
		/>
	<path d="M133.01,231.07c-0.41-0.13-0.47-0.58-0.47-0.95c0-0.59,0.18-1.05,0.85-1.05c0.71,0,0.92,0.36,0.92,1.05
		c0,0.37-0.06,0.82-0.46,0.96v0.01c0.45,0.11,0.5,0.63,0.5,1.03c0,0.65-0.12,1.33-0.92,1.33c-0.76,0-0.92-0.62-0.92-1.25
		c0-0.42,0.01-0.99,0.5-1.11V231.07z M133.77,232.22c0-0.25,0.01-0.84-0.35-0.84c-0.36,0-0.34,0.59-0.34,0.84
		c0,0.24,0.02,0.71,0.34,0.71C133.76,232.93,133.77,232.46,133.77,232.22z M133.74,230.18c0-0.2-0.03-0.59-0.31-0.59
		c-0.29,0-0.32,0.39-0.32,0.59c0,0.2,0.03,0.65,0.32,0.65C133.71,230.83,133.74,230.37,133.74,230.18z"/>
	<path d="M136.63,229.12v0.49h-0.92l-0.14,1.08c0.77-0.03,1.12,0.48,1.12,1.2c0,0.78-0.29,1.55-1.2,1.55
		c-0.25,0-0.44-0.07-0.66-0.18l0.15-0.5c0.17,0.09,0.3,0.17,0.5,0.17c0.5,0,0.64-0.57,0.64-0.95c0-0.49-0.21-0.84-0.74-0.84
		c-0.11,0-0.23,0.02-0.35,0.05l0.25-2.07H136.63z"/>
</g>
<g>
	<path d="M211.72,229.12v4.27h-0.55v-3.78h-0.42v-0.49H211.72z"/>
	<path d="M213.18,233.39l0.85-1.78l-0.01-0.01c-0.12,0.12-0.24,0.17-0.43,0.17c-0.66,0-0.74-0.73-0.74-1.24
		c0-0.66,0.05-1.46,0.91-1.46c0.86,0,0.92,0.78,0.92,1.45c0,0.93-0.24,1.53-0.64,2.36l-0.25,0.51H213.18z M214.11,230.41
		c0-0.24-0.01-0.83-0.35-0.83s-0.33,0.62-0.33,0.86c0,0.25-0.01,0.82,0.33,0.82C214.13,231.26,214.11,230.65,214.11,230.41z"/>
	<path d="M215.5,233.39l0.85-1.78l-0.01-0.01c-0.12,0.12-0.24,0.17-0.43,0.17c-0.66,0-0.74-0.73-0.74-1.24
		c0-0.66,0.05-1.46,0.91-1.46c0.86,0,0.92,0.78,0.92,1.45c0,0.93-0.24,1.53-0.64,2.36l-0.25,0.51H215.5z M216.43,230.41
		c0-0.24-0.01-0.83-0.35-0.83s-0.33,0.62-0.33,0.86c0,0.25-0.01,0.82,0.33,0.82C216.45,231.26,216.43,230.65,216.43,230.41z"/>
	<path d="M219.29,229.12v0.49h-0.92l-0.14,1.08c0.77-0.03,1.12,0.48,1.12,1.2c0,0.78-0.29,1.55-1.2,1.55
		c-0.25,0-0.44-0.07-0.66-0.18l0.15-0.5c0.17,0.09,0.3,0.17,0.5,0.17c0.5,0,0.64-0.57,0.64-0.95c0-0.49-0.21-0.84-0.74-0.84
		c-0.11,0-0.23,0.02-0.34,0.05l0.25-2.07H219.29z"/>
</g>
<g>
	<path d="M293.21,230.36c0-0.68,0.08-1.29,0.91-1.29c0.7,0,0.95,0.39,0.95,1.05c0,0.64-0.44,1.52-0.74,2.08l-0.36,0.69h1.06v0.49
		h-1.88l1.04-2.19c0.15-0.35,0.31-0.72,0.31-1.11c0-0.23-0.08-0.51-0.38-0.51c-0.38,0-0.33,0.64-0.33,0.81v0.11h-0.58V230.36z"/>
	<path d="M297.4,231.26c0,0.67,0.05,2.18-0.97,2.18s-0.97-1.51-0.97-2.18c0-0.67-0.05-2.19,0.97-2.19S297.4,230.58,297.4,231.26z
		 M296.43,229.58c-0.39,0-0.42,0.79-0.41,1.68c-0.01,0.89,0.02,1.67,0.41,1.67s0.42-0.79,0.41-1.67
		C296.85,230.37,296.82,229.58,296.43,229.58z"/>
	<path d="M299.72,231.26c0,0.67,0.05,2.18-0.97,2.18c-1.02,0-0.97-1.51-0.97-2.18c0-0.67-0.05-2.19,0.97-2.19
		C299.77,229.07,299.72,230.58,299.72,231.26z M298.75,229.58c-0.39,0-0.42,0.79-0.41,1.68c-0.01,0.89,0.02,1.67,0.41,1.67
		s0.42-0.79,0.41-1.67C299.17,230.37,299.14,229.58,298.75,229.58z"/>
	<path d="M301.96,229.12v0.49h-0.92l-0.14,1.08c0.77-0.03,1.12,0.48,1.12,1.2c0,0.78-0.29,1.55-1.2,1.55
		c-0.25,0-0.44-0.07-0.66-0.18l0.15-0.5c0.17,0.09,0.3,0.17,0.5,0.17c0.5,0,0.64-0.57,0.64-0.95c0-0.49-0.21-0.84-0.74-0.84
		c-0.11,0-0.23,0.02-0.34,0.05l0.25-2.07H301.96z"/>
</g>
<g>
	<path d="M375.87,230.36c0-0.68,0.09-1.29,0.91-1.29c0.7,0,0.95,0.39,0.95,1.05c0,0.64-0.44,1.52-0.74,2.08l-0.36,0.69h1.06v0.49
		h-1.88l1.04-2.19c0.15-0.35,0.3-0.72,0.3-1.11c0-0.23-0.08-0.51-0.38-0.51c-0.38,0-0.33,0.64-0.33,0.81v0.11h-0.58V230.36z"/>
	<path d="M380.06,231.26c0,0.67,0.05,2.18-0.97,2.18c-1.02,0-0.97-1.51-0.97-2.18c0-0.67-0.05-2.19,0.97-2.19
		C380.11,229.07,380.06,230.58,380.06,231.26z M379.09,229.58c-0.39,0-0.42,0.79-0.41,1.68c-0.01,0.89,0.02,1.67,0.41,1.67
		s0.42-0.79,0.41-1.67C379.51,230.37,379.48,229.58,379.09,229.58z"/>
	<path d="M381.69,229.12v4.27h-0.55v-3.78h-0.42v-0.49H381.69z"/>
	<path d="M384.62,229.12v0.49h-0.92l-0.14,1.08c0.77-0.03,1.12,0.48,1.12,1.2c0,0.78-0.29,1.55-1.2,1.55
		c-0.25,0-0.44-0.07-0.66-0.18l0.15-0.5c0.17,0.09,0.3,0.17,0.5,0.17c0.5,0,0.64-0.57,0.64-0.95c0-0.49-0.21-0.84-0.74-0.84
		c-0.11,0-0.23,0.02-0.35,0.05l0.25-2.07H384.62z"/>
</g>
<g>
	<path d="M22.08,163.36H17.2v-1c0-0.21-0.13-1.66,1.44-1.66c0.91,0,1.44,0.59,1.44,1.48l-0.01,0.21h2.01V163.36z M19.28,162.39
		c0.02-0.47-0.16-0.73-0.65-0.73c-0.35,0-0.63,0.14-0.63,0.55v0.18H19.28z"/>
	<path d="M17.2,158.27h0.91v0.98h1.06v-0.86h0.91v0.86h1.1v-0.99h0.91v1.95H17.2V158.27z"/>
	<path d="M22.08,157.68H17.2v-0.97c0-0.61,0.06-1.71,1.4-1.71c0.54,0,1,0.21,1.26,0.69l2.22-0.85v1.02l-2.25,0.85v0.01h2.25V157.68z
		 M19.29,156.71l0.01-0.17c0-0.44-0.3-0.61-0.7-0.61c-0.35,0-0.63,0.17-0.61,0.65v0.13H19.29z"/>
	<path d="M18.12,151.82c-0.03,0.12-0.05,0.24-0.05,0.36c0,0.85,0.77,1.22,1.52,1.22c0.72,0,1.62-0.37,1.62-1.21
		c0-0.12-0.03-0.25-0.07-0.37h0.91c0.06,0.14,0.08,0.29,0.08,0.45c0,1.39-1.25,2.16-2.54,2.16c-1.21,0-2.45-0.8-2.45-2.12
		c0-0.17,0.03-0.33,0.09-0.49H18.12z"/>
	<path d="M17.2,149.39h0.91v0.98h1.06v-0.86h0.91v0.86h1.1v-0.99h0.91v1.96H17.2V149.39z"/>
	<path d="M17.2,147.87l2.94-1.2l-0.01-0.01c-0.23,0.06-0.49,0.08-0.74,0.08H17.2v-0.96h4.88v0.91l-2.94,1.19l0.01,0.01l0.49-0.04
		l0.2-0.01h2.24v0.96H17.2V147.87z"/>
	<path d="M17.2,142.85h0.91v0.76h3.97v0.96H18.1v0.76H17.2V142.85z"/>
	<path d="M17.2,140.56l4.88-1.17v1.03l-0.82,0.18v0.98l0.82,0.17v0.96l-4.88-1.13V140.56z M19.19,140.98l-0.74,0.11v0.01l0.74,0.1
		l1.3,0.21v-0.68L19.19,140.98z"/>
	<path d="M19.36,135.87h0.38c1.04,0,2.41,0.25,2.41,1.57c0,1.31-1.41,1.74-2.49,1.74c-1.13,0-2.54-0.36-2.54-1.74
		c0-0.74,0.47-1.23,1.16-1.44l0.36,0.94c-0.25,0.05-0.63,0.12-0.63,0.49c-0.04,0.65,1.17,0.72,1.62,0.72c0.5,0,1.62-0.03,1.62-0.74
		c0-0.49-0.66-0.57-1-0.57v0.61h-0.91V135.87z"/>
	<path d="M17.2,133.42h0.91v0.98h1.06v-0.86h0.91v0.86h1.1v-0.99h0.91v1.95H17.2V133.42z"/>
</g>
<line fill="none" stroke="#000000" stroke-width="0.808" stroke-miterlimit="10" x1="41.88" y1="224.5" x2="386.8" y2="224.5"/>
<line fill="none" stroke="#000000" stroke-width="0.404" stroke-miterlimit="10" x1="49.6" y1="224.58" x2="49.6" y2="226.9"/>
<line fill="none" stroke="#000000" stroke-width="0.404" stroke-miterlimit="10" x1="90.93" y1="224.58" x2="90.93" y2="226.9"/>
<line fill="none" stroke="#000000" stroke-width="0.404" stroke-miterlimit="10" x1="132.26" y1="224.58" x2="132.26" y2="226.9"/>
<line fill="none" stroke="#000000" stroke-width="0.404" stroke-miterlimit="10" x1="173.59" y1="224.58" x2="173.59" y2="226.9"/>
<line fill="none" stroke="#000000" stroke-width="0.404" stroke-miterlimit="10" x1="214.92" y1="224.58" x2="214.92" y2="226.9"/>
<line fill="none" stroke="#000000" stroke-width="0.404" stroke-miterlimit="10" x1="256.26" y1="224.58" x2="256.26" y2="226.9"/>
<line fill="none" stroke="#000000" stroke-width="0.404" stroke-miterlimit="10" x1="297.59" y1="224.58" x2="297.59" y2="226.9"/>
<line fill="none" stroke="#000000" stroke-width="0.404" stroke-miterlimit="10" x1="338.92" y1="224.58" x2="338.92" y2="226.9"/>
<line fill="none" stroke="#000000" stroke-width="0.404" stroke-miterlimit="10" x1="380.25" y1="224.58" x2="380.25" y2="226.9"/>
</svg>
