<svg version="1.1" xmlns="http://www.w3.org/2000/svg" x="0" y="0" viewBox="0 0 311.81 190.86" style="enable-background:new 0 0 311.81 190.86" xml:space="preserve"><path style="fill:#3a53a4" d="M66.27 138.77c0 6.56-2.66 12.5-6.96 16.79-4.3 4.3-10.24 6.96-16.79 6.96s-12.5-2.66-16.79-6.96c-4.3-4.3-6.96-10.24-6.96-16.79s2.66-12.5 6.96-16.79 10.24-6.96 16.79-6.96 12.5 2.66 16.79 6.96 6.96 10.23 6.96 16.79z"/><path style="fill:#3c53a3" d="M66.27 138.75c0 6.56-2.66 12.5-6.96 16.79-4.3 4.3-10.24 6.96-16.79 6.96s-12.5-2.66-16.79-6.96c-4.3-4.3-6.96-10.24-6.96-16.79 0-6.56 2.66-12.5 6.96-16.79S35.96 115 42.52 115s12.5 2.66 16.79 6.96 6.96 10.23 6.96 16.79z"/><path style="fill:#3d53a2" d="M66.27 138.69c0 6.56-2.66 12.5-6.96 16.79-4.3 4.3-10.24 6.96-16.79 6.96s-12.5-2.66-16.79-6.96c-4.3-4.3-6.96-10.24-6.96-16.79s2.66-12.5 6.96-16.79 10.24-6.96 16.79-6.96 12.5 2.66 16.79 6.96 6.96 10.23 6.96 16.79z"/><path style="fill:#3e53a2" d="M66.27 138.58c0 6.56-2.66 12.5-6.96 16.79-4.3 4.3-10.24 6.96-16.79 6.96s-12.5-2.66-16.79-6.96c-4.3-4.3-6.96-10.24-6.96-16.79s2.66-12.5 6.96-16.79 10.24-6.96 16.79-6.96 12.5 2.66 16.79 6.96 6.96 10.23 6.96 16.79z"/><path style="fill:#3f52a1" d="M66.28 138.44c0 6.56-2.66 12.5-6.96 16.79-4.3 4.3-10.24 6.96-16.79 6.96s-12.5-2.66-16.79-6.96c-4.3-4.3-6.96-10.24-6.96-16.79s2.66-12.5 6.96-16.79 10.24-6.96 16.79-6.96 12.5 2.66 16.79 6.96 6.96 10.23 6.96 16.79z"/><path style="fill:#4152a0" d="M66.29 138.26c0 6.56-2.66 12.5-6.96 16.79-4.3 4.3-10.24 6.96-16.79 6.96s-12.5-2.66-16.79-6.96c-4.3-4.3-6.96-10.24-6.96-16.79s2.66-12.5 6.96-16.79 10.24-6.96 16.79-6.96 12.5 2.66 16.79 6.96 6.96 10.23 6.96 16.79z"/><path style="fill:#4252a0" d="M66.29 138.04c0 6.56-2.66 12.5-6.96 16.79-4.3 4.3-10.24 6.96-16.79 6.96s-12.5-2.66-16.79-6.96c-4.3-4.3-6.96-10.24-6.96-16.79s2.66-12.5 6.96-16.79c4.3-4.3 10.24-6.96 16.79-6.96s12.5 2.66 16.79 6.96a23.603 23.603 0 016.96 16.79z"/><path style="fill:#43529f" d="M66.3 137.78c0 6.56-2.66 12.5-6.96 16.79-4.3 4.3-10.24 6.96-16.79 6.96s-12.5-2.66-16.79-6.96c-4.3-4.3-6.96-10.24-6.96-16.79s2.66-12.5 6.96-16.79 10.24-6.96 16.79-6.96 12.5 2.66 16.79 6.96 6.96 10.23 6.96 16.79z"/><path style="fill:#44529f" d="M66.32 137.48c0 6.56-2.66 12.5-6.96 16.79-4.3 4.3-10.24 6.96-16.79 6.96s-12.5-2.66-16.79-6.96c-4.3-4.3-6.96-10.24-6.96-16.79s2.66-12.5 6.96-16.79 10.24-6.96 16.79-6.96 12.5 2.66 16.79 6.96 6.96 10.23 6.96 16.79z"/><path style="fill:#45529e" d="M66.34 137.15c0 6.56-2.66 12.5-6.96 16.79-4.3 4.3-10.24 6.96-16.79 6.96s-12.5-2.66-16.79-6.96c-4.3-4.3-6.96-10.24-6.96-16.79s2.66-12.5 6.96-16.79 10.24-6.96 16.79-6.96 12.5 2.66 16.79 6.96 6.96 10.23 6.96 16.79z"/><path style="fill:#46529e" d="M66.36 136.78c0 6.56-2.66 12.5-6.96 16.79-4.3 4.3-10.24 6.96-16.79 6.96s-12.5-2.66-16.79-6.96c-4.3-4.3-6.96-10.24-6.96-16.79s2.66-12.5 6.96-16.79 10.24-6.96 16.79-6.96 12.5 2.66 16.79 6.96 6.96 10.23 6.96 16.79z"/><path style="fill:#48529d" d="M66.38 136.37c0 6.56-2.66 12.5-6.96 16.79-4.3 4.3-10.24 6.96-16.79 6.96s-12.5-2.66-16.79-6.96c-4.3-4.3-6.96-10.24-6.96-16.79s2.66-12.5 6.96-16.79 10.24-6.96 16.79-6.96 12.5 2.66 16.79 6.96 6.96 10.24 6.96 16.79z"/><path style="fill:#49529d" d="M66.41 135.93c0 6.56-2.66 12.5-6.96 16.79-4.3 4.3-10.24 6.96-16.79 6.96s-12.5-2.66-16.79-6.96c-4.3-4.3-6.96-10.24-6.96-16.79s2.66-12.5 6.96-16.79 10.24-6.96 16.79-6.96 12.5 2.66 16.79 6.96 6.96 10.24 6.96 16.79z"/><path style="fill:#4a529c" d="M66.44 135.46c0 6.56-2.66 12.5-6.96 16.79-4.3 4.3-10.24 6.96-16.79 6.96s-12.5-2.66-16.79-6.96c-4.3-4.3-6.96-10.24-6.96-16.79s2.66-12.5 6.96-16.79 10.24-6.96 16.79-6.96 12.5 2.66 16.79 6.96 6.96 10.23 6.96 16.79z"/><path style="fill:#4b529c" d="M66.48 134.95c0 6.56-2.66 12.5-6.96 16.79-4.3 4.3-10.24 6.96-16.79 6.96s-12.5-2.66-16.79-6.96c-4.3-4.3-6.96-10.24-6.96-16.79s2.66-12.5 6.96-16.79 10.24-6.96 16.79-6.96 12.5 2.66 16.79 6.96 6.96 10.24 6.96 16.79z"/><path style="fill:#4c529b" d="M66.52 134.41c0 6.56-2.66 12.5-6.96 16.79-4.3 4.3-10.24 6.96-16.79 6.96s-12.5-2.66-16.79-6.96c-4.3-4.3-6.96-10.24-6.96-16.79s2.66-12.5 6.96-16.79 10.24-6.96 16.79-6.96 12.5 2.66 16.79 6.96 6.96 10.24 6.96 16.79z"/><path style="fill:#4d519b" d="M66.57 133.84c0 6.56-2.66 12.5-6.96 16.79-4.3 4.3-10.24 6.96-16.79 6.96s-12.5-2.66-16.79-6.96c-4.3-4.3-6.96-10.24-6.96-16.79s2.66-12.5 6.96-16.79 10.24-6.96 16.79-6.96 12.5 2.66 16.79 6.96 6.96 10.23 6.96 16.79z"/><path style="fill:#4e519a" d="M66.63 133.24c0 6.56-2.66 12.5-6.96 16.79-4.3 4.3-10.24 6.96-16.79 6.96s-12.5-2.66-16.79-6.96c-4.3-4.3-6.96-10.24-6.96-16.79 0-6.56 2.66-12.5 6.96-16.79s10.24-6.96 16.79-6.96 12.5 2.66 16.79 6.96 6.96 10.23 6.96 16.79z"/><path style="fill:#4f519a" d="M66.69 132.6c0 6.56-2.66 12.5-6.96 16.79-4.3 4.3-10.24 6.96-16.79 6.96s-12.5-2.66-16.79-6.96c-4.3-4.3-6.96-10.24-6.96-16.79 0-6.56 2.66-12.5 6.96-16.79s10.24-6.96 16.79-6.96 12.5 2.66 16.79 6.96 6.96 10.24 6.96 16.79z"/><path style="fill:#505199" d="M66.75 131.94c0 6.56-2.66 12.5-6.96 16.79-4.3 4.3-10.24 6.96-16.79 6.96s-12.5-2.66-16.79-6.96c-4.3-4.3-6.96-10.24-6.96-16.79 0-6.56 2.66-12.5 6.96-16.79s10.24-6.96 16.79-6.96 12.5 2.66 16.79 6.96 6.96 10.23 6.96 16.79z"/><path style="fill:#515199" d="M66.83 131.25c0 6.56-2.66 12.5-6.96 16.79-4.3 4.3-10.24 6.96-16.79 6.96s-12.5-2.66-16.79-6.96c-4.3-4.3-6.96-10.24-6.96-16.79s2.66-12.5 6.96-16.79 10.24-6.96 16.79-6.96 12.5 2.66 16.79 6.96 6.96 10.23 6.96 16.79z"/><path style="fill:#525198" d="M66.91 130.52c0 6.56-2.66 12.5-6.96 16.79-4.3 4.3-10.24 6.96-16.79 6.96s-12.5-2.66-16.79-6.96c-4.3-4.3-6.96-10.24-6.96-16.79s2.66-12.5 6.96-16.79 10.24-6.96 16.79-6.96 12.5 2.66 16.79 6.96 6.96 10.24 6.96 16.79z"/><path style="fill:#535198" d="M67 129.77c0 6.56-2.66 12.5-6.96 16.79-4.3 4.3-10.24 6.96-16.79 6.96s-12.5-2.66-16.79-6.96c-4.3-4.3-6.96-10.24-6.96-16.79s2.66-12.5 6.96-16.79 10.24-6.96 16.79-6.96 12.5 2.66 16.79 6.96S67 123.22 67 129.77z"/><path style="fill:#545197" d="M67.09 129c0 6.56-2.66 12.5-6.96 16.79-4.3 4.3-10.24 6.96-16.79 6.96s-12.5-2.66-16.79-6.96c-4.3-4.3-6.96-10.24-6.96-16.79s2.66-12.5 6.96-16.79 10.24-6.96 16.79-6.96 12.5 2.66 16.79 6.96 6.96 10.23 6.96 16.79z"/><path style="fill:#555197" d="M67.19 128.19c0 6.56-2.66 12.5-6.96 16.79-4.3 4.3-10.24 6.96-16.79 6.96s-12.5-2.66-16.79-6.96c-4.3-4.3-6.96-10.24-6.96-16.79s2.66-12.5 6.96-16.79 10.24-6.96 16.79-6.96 12.5 2.66 16.79 6.96 6.96 10.23 6.96 16.79z"/><path style="fill:#565196" d="M67.3 127.36c0 6.56-2.66 12.5-6.96 16.79-4.3 4.3-10.24 6.96-16.79 6.96s-12.5-2.66-16.79-6.96c-4.3-4.3-6.96-10.24-6.96-16.79s2.66-12.5 6.96-16.79 10.24-6.96 16.79-6.96 12.5 2.66 16.79 6.96 6.96 10.23 6.96 16.79z"/><path style="fill:#565196" d="M67.42 126.5c0 6.56-2.66 12.5-6.96 16.79-4.3 4.3-10.24 6.96-16.79 6.96s-12.5-2.66-16.79-6.96c-4.3-4.3-6.96-10.24-6.96-16.79 0-6.56 2.66-12.5 6.96-16.79s10.24-6.96 16.79-6.96 12.5 2.66 16.79 6.96 6.96 10.23 6.96 16.79z"/><path style="fill:#575195" d="M67.55 125.62c0 6.56-2.66 12.5-6.96 16.79-4.3 4.3-10.24 6.96-16.79 6.96s-12.5-2.66-16.79-6.96c-4.3-4.3-6.96-10.24-6.96-16.79s2.66-12.5 6.96-16.79 10.24-6.96 16.79-6.96 12.5 2.66 16.79 6.96 6.96 10.23 6.96 16.79z"/><path style="fill:#585195" d="M67.69 124.72c0 6.56-2.66 12.5-6.96 16.79-4.3 4.3-10.24 6.96-16.79 6.96s-12.5-2.66-16.79-6.96c-4.3-4.3-6.96-10.24-6.96-16.79 0-6.56 2.66-12.5 6.96-16.79s10.24-6.96 16.79-6.96 12.5 2.66 16.79 6.96 6.96 10.23 6.96 16.79z"/><path style="fill:#595094" d="M67.84 123.79c0 6.56-2.66 12.5-6.96 16.79-4.3 4.3-10.24 6.96-16.79 6.96s-12.5-2.66-16.79-6.96c-4.3-4.3-6.96-10.24-6.96-16.79 0-6.56 2.66-12.5 6.96-16.79s10.24-6.96 16.79-6.96 12.5 2.66 16.79 6.96 6.96 10.23 6.96 16.79z"/><path style="fill:#5a5094" d="M68 122.83c0 6.56-2.66 12.5-6.96 16.79-4.3 4.3-10.24 6.96-16.79 6.96s-12.5-2.66-16.79-6.96c-4.3-4.3-6.96-10.24-6.96-16.79 0-6.56 2.66-12.5 6.96-16.79s10.24-6.96 16.79-6.96 12.5 2.66 16.79 6.96S68 116.28 68 122.83z"/><path style="fill:#5b5093" d="M68.16 121.86c0 6.56-2.66 12.5-6.96 16.79-4.3 4.3-10.24 6.96-16.79 6.96s-12.5-2.66-16.79-6.96c-4.3-4.3-6.96-10.24-6.96-16.79s2.66-12.5 6.96-16.79 10.24-6.96 16.79-6.96 12.5 2.66 16.79 6.96 6.96 10.23 6.96 16.79z"/><path style="fill:#5c5093" d="M68.34 120.86c0 6.56-2.66 12.5-6.96 16.79-4.3 4.3-10.24 6.96-16.79 6.96s-12.5-2.66-16.79-6.96c-4.3-4.3-6.96-10.24-6.96-16.79s2.66-12.5 6.96-16.79 10.24-6.96 16.79-6.96 12.5 2.66 16.79 6.96 6.96 10.24 6.96 16.79z"/><path style="fill:#5d5093" d="M68.53 119.85c0 6.56-2.66 12.5-6.96 16.79-4.3 4.3-10.24 6.96-16.79 6.96s-12.5-2.66-16.79-6.96c-4.3-4.3-6.96-10.24-6.96-16.79s2.66-12.5 6.96-16.79 10.24-6.96 16.79-6.96 12.5 2.66 16.79 6.96 6.96 10.23 6.96 16.79z"/><path style="fill:#5e5092" d="M68.73 118.81c0 6.56-2.66 12.5-6.96 16.79-4.3 4.3-10.24 6.96-16.79 6.96s-12.5-2.66-16.79-6.96c-4.3-4.3-6.96-10.24-6.96-16.79s2.66-12.5 6.96-16.79 10.24-6.96 16.79-6.96 12.5 2.66 16.79 6.96 6.96 10.23 6.96 16.79z"/><path style="fill:#5e5092" d="M68.94 117.75c0 6.56-2.66 12.5-6.96 16.79-4.3 4.3-10.24 6.96-16.79 6.96s-12.5-2.66-16.79-6.96c-4.3-4.3-6.96-10.24-6.96-16.79 0-6.56 2.66-12.5 6.96-16.79S38.63 94 45.19 94s12.5 2.66 16.79 6.96 6.96 10.24 6.96 16.79z"/><path style="fill:#5f5091" d="M69.16 116.68c0 6.56-2.66 12.5-6.96 16.79-4.3 4.3-10.24 6.96-16.79 6.96s-12.5-2.66-16.79-6.96c-4.3-4.3-6.96-10.24-6.96-16.79s2.66-12.5 6.96-16.79 10.24-6.96 16.79-6.96 12.5 2.66 16.79 6.96 6.96 10.23 6.96 16.79z"/><path style="fill:#605091" d="M69.4 115.59c0 6.56-2.66 12.5-6.96 16.79-4.3 4.3-10.24 6.96-16.79 6.96s-12.5-2.66-16.79-6.96c-4.3-4.3-6.96-10.24-6.96-16.79s2.66-12.5 6.96-16.79 10.24-6.96 16.79-6.96 12.5 2.66 16.79 6.96c4.3 4.29 6.96 10.23 6.96 16.79z"/><path style="fill:#615090" d="M69.64 114.47c0 6.56-2.66 12.5-6.96 16.79-4.3 4.3-10.24 6.96-16.79 6.96s-12.5-2.66-16.79-6.96c-4.3-4.3-6.96-10.24-6.96-16.79s2.66-12.5 6.96-16.79 10.24-6.96 16.79-6.96 12.5 2.66 16.79 6.96 6.96 10.24 6.96 16.79z"/><path style="fill:#625090" d="M69.9 113.35c0 6.56-2.66 12.5-6.96 16.79-4.3 4.3-10.24 6.96-16.79 6.96s-12.5-2.66-16.79-6.96c-4.3-4.3-6.96-10.24-6.96-16.79 0-6.56 2.66-12.5 6.96-16.79S39.6 89.6 46.15 89.6s12.5 2.66 16.79 6.96 6.96 10.23 6.96 16.79z"/><path style="fill:#63508f" d="M70.17 112.2c0 6.56-2.66 12.5-6.96 16.79-4.3 4.3-10.24 6.96-16.79 6.96s-12.5-2.66-16.79-6.96c-4.3-4.3-6.96-10.24-6.96-16.79 0-6.56 2.66-12.5 6.96-16.79 4.3-4.3 10.24-6.96 16.79-6.96s12.5 2.66 16.79 6.96a23.62 23.62 0 016.96 16.79z"/><path style="fill:#634f8f" d="M70.46 111.04c0 6.56-2.66 12.5-6.96 16.79-4.3 4.3-10.24 6.96-16.79 6.96s-12.5-2.66-16.79-6.96-6.96-10.24-6.96-16.79 2.66-12.5 6.96-16.79 10.24-6.96 16.79-6.96 12.5 2.66 16.79 6.96c4.3 4.3 6.96 10.23 6.96 16.79z"/><path style="fill:#644f8e" d="M70.76 109.87c0 6.56-2.66 12.5-6.96 16.79s-10.24 6.96-16.79 6.96-12.5-2.66-16.79-6.96-6.96-10.24-6.96-16.79 2.66-12.5 6.96-16.79 10.24-6.96 16.79-6.96 12.5 2.66 16.79 6.96 6.96 10.23 6.96 16.79z"/><path style="fill:#654f8e" d="M71.07 108.68c0 6.56-2.66 12.5-6.96 16.79-4.3 4.3-10.24 6.96-16.79 6.96s-12.5-2.66-16.79-6.96c-4.3-4.3-6.96-10.24-6.96-16.79 0-6.56 2.66-12.5 6.96-16.79s10.24-6.96 16.79-6.96 12.5 2.66 16.79 6.96 6.96 10.23 6.96 16.79z"/><path style="fill:#664f8d" d="M71.4 107.48c0 6.56-2.66 12.5-6.96 16.79s-10.24 6.96-16.79 6.96-12.5-2.66-16.79-6.96-6.96-10.24-6.96-16.79 2.66-12.5 6.96-16.79 10.24-6.96 16.79-6.96 12.5 2.66 16.79 6.96 6.96 10.23 6.96 16.79z"/><path style="fill:#674f8d" d="M71.74 106.26c0 6.56-2.66 12.5-6.96 16.79s-10.24 6.96-16.79 6.96-12.5-2.66-16.79-6.96-6.96-10.24-6.96-16.79c0-6.56 2.66-12.5 6.96-16.79s10.24-6.96 16.79-6.96 12.5 2.66 16.79 6.96 6.96 10.23 6.96 16.79z"/><path style="fill:#684f8d" d="M72.1 105.03c0 6.56-2.66 12.5-6.96 16.79s-10.24 6.96-16.79 6.96-12.5-2.66-16.79-6.96-6.96-10.24-6.96-16.79 2.66-12.5 6.96-16.79 10.24-6.96 16.79-6.96 12.5 2.66 16.79 6.96 6.96 10.23 6.96 16.79z"/><path style="fill:#684f8c" d="M72.47 103.79c0 6.56-2.66 12.5-6.96 16.79-4.3 4.3-10.24 6.96-16.79 6.96s-12.5-2.66-16.79-6.96c-4.3-4.3-6.96-10.24-6.96-16.79 0-6.56 2.66-12.5 6.96-16.79s10.24-6.96 16.79-6.96S61.22 82.7 65.51 87s6.96 10.23 6.96 16.79z"/><path style="fill:#694f8c" d="M72.86 102.54c0 6.56-2.66 12.5-6.96 16.79s-10.24 6.96-16.79 6.96-12.5-2.66-16.79-6.96-6.96-10.24-6.96-16.79c0-6.56 2.66-12.5 6.96-16.79 4.3-4.3 10.24-6.96 16.79-6.96s12.5 2.66 16.79 6.96c4.3 4.3 6.96 10.23 6.96 16.79z"/><path style="fill:#6a4f8b" d="M73.26 101.28c0 6.56-2.66 12.5-6.96 16.79s-10.24 6.96-16.79 6.96-12.5-2.66-16.79-6.96-6.96-10.24-6.96-16.79c0-6.56 2.66-12.5 6.96-16.79s10.24-6.96 16.79-6.96 12.5 2.66 16.79 6.96 6.96 10.23 6.96 16.79z"/><path style="fill:#6b4f8b" d="M73.68 100.01c0 6.56-2.66 12.5-6.96 16.79-4.3 4.3-10.24 6.96-16.79 6.96s-12.5-2.66-16.79-6.96c-4.3-4.3-6.96-10.24-6.96-16.79 0-6.56 2.66-12.5 6.96-16.79s10.24-6.96 16.79-6.96 12.5 2.66 16.79 6.96 6.96 10.23 6.96 16.79z"/><path style="fill:#6b4f8a" d="M74.11 98.73c0 6.56-2.66 12.5-6.96 16.79s-10.24 6.96-16.79 6.96-12.5-2.66-16.79-6.96-6.96-10.24-6.96-16.79 2.66-12.5 6.96-16.79 10.24-6.96 16.79-6.96 12.5 2.66 16.79 6.96 6.96 10.23 6.96 16.79z"/><path style="fill:#6c4e8a" d="M74.57 97.44c0 6.56-2.66 12.5-6.96 16.79s-10.24 6.96-16.79 6.96-12.5-2.66-16.79-6.96-6.96-10.23-6.96-16.79 2.66-12.5 6.96-16.79 10.24-6.96 16.79-6.96 12.5 2.66 16.79 6.96 6.96 10.23 6.96 16.79z"/><path style="fill:#6d4e89" d="M75.03 96.15c0 6.56-2.66 12.5-6.96 16.79s-10.24 6.96-16.79 6.96-12.5-2.66-16.79-6.96-6.96-10.24-6.96-16.79c0-6.56 2.66-12.5 6.96-16.79s10.24-6.96 16.79-6.96 12.5 2.66 16.79 6.96 6.96 10.23 6.96 16.79z"/><path style="fill:#6e4e89" d="M75.52 94.84c0 6.56-2.66 12.5-6.96 16.79s-10.24 6.96-16.79 6.96-12.5-2.66-16.79-6.96-6.96-10.24-6.96-16.79c0-6.56 2.66-12.5 6.96-16.79s10.24-6.96 16.79-6.96 12.5 2.66 16.79 6.96 6.96 10.24 6.96 16.79z"/><path style="fill:#6e4e88" d="M76.02 93.54c0 6.56-2.66 12.5-6.96 16.79-4.3 4.3-10.24 6.96-16.79 6.96s-12.5-2.66-16.79-6.96c-4.3-4.3-6.96-10.24-6.96-16.79 0-6.56 2.66-12.5 6.96-16.79s10.24-6.96 16.79-6.96 12.5 2.66 16.79 6.96 6.96 10.23 6.96 16.79z"/><path style="fill:#6f4e88" d="M76.55 92.22c0 6.56-2.66 12.5-6.96 16.79s-10.24 6.96-16.79 6.96-12.5-2.66-16.79-6.96c-4.3-4.3-6.96-10.24-6.96-16.79S31.7 79.72 36 75.43c4.3-4.3 10.24-6.96 16.79-6.96s12.5 2.66 16.79 6.96 6.97 10.23 6.97 16.79z"/><path style="fill:#704e87" d="M77.09 90.9c0 6.56-2.66 12.5-6.96 16.79s-10.24 6.96-16.79 6.96-12.5-2.66-16.79-6.96-6.96-10.24-6.96-16.79 2.66-12.5 6.96-16.79 10.24-6.96 16.79-6.96 12.5 2.66 16.79 6.96 6.96 10.23 6.96 16.79z"/><path style="fill:#714e87" d="M77.65 89.58c0 6.56-2.66 12.5-6.96 16.79s-10.24 6.96-16.79 6.96-12.5-2.66-16.79-6.96-6.96-10.24-6.96-16.79c0-6.56 2.66-12.5 6.96-16.79 4.3-4.3 10.24-6.96 16.79-6.96s12.5 2.66 16.79 6.96c4.3 4.29 6.96 10.23 6.96 16.79z"/><path style="fill:#714e86" d="M78.22 88.25c0 6.56-2.66 12.5-6.96 16.79-4.3 4.3-10.24 6.96-16.79 6.96s-12.5-2.66-16.79-6.96-6.96-10.24-6.96-16.79c0-6.56 2.66-12.5 6.96-16.79s10.24-6.96 16.79-6.96 12.5 2.66 16.79 6.96c4.3 4.29 6.96 10.23 6.96 16.79z"/><path style="fill:#724e86" d="M78.82 86.92c0 6.56-2.66 12.5-6.96 16.79s-10.24 6.96-16.79 6.96-12.5-2.66-16.79-6.96-6.96-10.24-6.96-16.79 2.66-12.5 6.96-16.79 10.24-6.96 16.79-6.96 12.5 2.66 16.79 6.96 6.96 10.23 6.96 16.79z"/><path style="fill:#734e86" d="M79.44 85.58c0 6.56-2.66 12.5-6.96 16.79-4.3 4.3-10.24 6.96-16.79 6.96s-12.5-2.66-16.79-6.96c-4.3-4.3-6.96-10.24-6.96-16.79 0-6.56 2.66-12.5 6.96-16.79s10.24-6.96 16.79-6.96 12.5 2.66 16.79 6.96 6.96 10.24 6.96 16.79z"/><path style="fill:#744e85" d="M80.07 84.25c0 6.56-2.66 12.5-6.96 16.79S62.88 108 56.32 108s-12.5-2.66-16.79-6.96-6.96-10.24-6.96-16.79c0-6.56 2.66-12.5 6.96-16.79 4.3-4.3 10.24-6.96 16.79-6.96s12.5 2.66 16.79 6.96c4.3 4.29 6.96 10.23 6.96 16.79z"/><path style="fill:#744e85" d="M80.73 82.91c0 6.56-2.66 12.5-6.96 16.79s-10.24 6.96-16.79 6.96-12.5-2.66-16.79-6.96-6.96-10.24-6.96-16.79 2.66-12.5 6.96-16.79 10.24-6.96 16.79-6.96 12.5 2.66 16.79 6.96 6.96 10.23 6.96 16.79z"/><path style="fill:#754d84" d="M81.41 81.58c0 6.56-2.66 12.5-6.96 16.79-4.3 4.3-10.24 6.96-16.79 6.96s-12.5-2.66-16.79-6.96c-4.3-4.3-6.96-10.24-6.96-16.79 0-6.56 2.66-12.5 6.96-16.79s10.24-6.96 16.79-6.96 12.5 2.66 16.79 6.96 6.96 10.23 6.96 16.79z"/><path style="fill:#764d84" d="M82.1 80.24c0 6.56-2.66 12.5-6.96 16.79s-10.24 6.96-16.79 6.96-12.5-2.66-16.79-6.96S34.6 86.8 34.6 80.24s2.66-12.5 6.96-16.79 10.24-6.96 16.79-6.96 12.5 2.66 16.79 6.96 6.96 10.23 6.96 16.79z"/><path style="fill:#764d83" d="M82.82 78.91c0 6.56-2.66 12.5-6.96 16.79s-10.24 6.96-16.79 6.96S46.58 100 42.28 95.7s-6.96-10.24-6.96-16.79c0-6.56 2.66-12.5 6.96-16.79s10.24-6.96 16.79-6.96 12.5 2.66 16.79 6.96 6.96 10.23 6.96 16.79z"/><path style="fill:#774d83" d="M83.56 77.57c0 6.56-2.66 12.5-6.96 16.79s-10.24 6.96-16.79 6.96-12.5-2.66-16.79-6.96-6.96-10.24-6.96-16.79 2.66-12.5 6.96-16.79 10.24-6.96 16.79-6.96 12.5 2.66 16.79 6.96 6.96 10.23 6.96 16.79z"/><path style="fill:#784d82" d="M84.32 76.24c0 6.56-2.66 12.5-6.96 16.79s-10.24 6.96-16.79 6.96-12.5-2.66-16.79-6.96-6.96-10.24-6.96-16.79 2.66-12.5 6.96-16.79 10.24-6.96 16.79-6.96 12.5 2.66 16.79 6.96 6.96 10.23 6.96 16.79z"/><path style="fill:#794d82" d="M85.11 74.91c0 6.56-2.66 12.5-6.96 16.79s-10.24 6.96-16.79 6.96-12.5-2.66-16.8-6.96-6.96-10.24-6.96-16.79c0-6.56 2.66-12.5 6.96-16.79s10.24-6.96 16.79-6.96 12.5 2.66 16.79 6.96 6.97 10.23 6.97 16.79z"/><path style="fill:#794d81" d="M85.91 73.59c0 6.56-2.66 12.5-6.96 16.79s-10.24 6.96-16.79 6.96-12.5-2.66-16.79-6.96-6.96-10.24-6.96-16.79 2.66-12.5 6.96-16.79 10.24-6.96 16.79-6.96 12.5 2.66 16.79 6.96 6.96 10.23 6.96 16.79z"/><path style="fill:#7a4d81" d="M86.74 72.27c0 6.56-2.66 12.5-6.96 16.79s-10.24 6.96-16.79 6.96-12.5-2.66-16.79-6.96-6.96-10.24-6.96-16.79 2.66-12.5 6.96-16.79 10.24-6.96 16.79-6.96 12.5 2.66 16.79 6.96 6.96 10.23 6.96 16.79z"/><path style="fill:#7b4d80" d="M87.59 70.95c0 6.56-2.66 12.5-6.96 16.79S70.4 94.7 63.84 94.7s-12.5-2.66-16.79-6.96-6.96-10.24-6.96-16.79 2.66-12.5 6.96-16.79 10.24-6.96 16.79-6.96 12.5 2.66 16.79 6.96 6.96 10.23 6.96 16.79z"/><path style="fill:#7b4d80" d="M88.47 69.64c0 6.56-2.66 12.5-6.96 16.79s-10.24 6.96-16.79 6.96-12.5-2.66-16.79-6.96-6.96-10.24-6.96-16.79 2.66-12.5 6.96-16.79 10.24-6.96 16.79-6.96 12.5 2.66 16.79 6.96 6.96 10.23 6.96 16.79z"/><path style="fill:#7c4c7f" d="M89.37 68.33c0 6.56-2.66 12.5-6.96 16.79s-10.24 6.96-16.79 6.96-12.5-2.66-16.79-6.96-6.96-10.24-6.96-16.79 2.66-12.5 6.96-16.79 10.24-6.96 16.79-6.96 12.5 2.66 16.79 6.96 6.96 10.24 6.96 16.79z"/><path style="fill:#7d4c7f" d="M90.29 67.04c0 6.56-2.66 12.5-6.96 16.79s-10.24 6.96-16.79 6.96-12.5-2.66-16.79-6.96-6.96-10.24-6.96-16.79 2.66-12.5 6.96-16.79 10.24-6.96 16.79-6.96 12.5 2.66 16.79 6.96 6.96 10.23 6.96 16.79z"/><path style="fill:#7d4c7f" d="M91.24 65.75c0 6.56-2.66 12.5-6.96 16.79S74.05 89.5 67.49 89.5s-12.5-2.66-16.79-6.96-6.96-10.24-6.96-16.79c0-6.56 2.66-12.5 6.96-16.79S60.93 42 67.49 42s12.5 2.66 16.79 6.96 6.96 10.23 6.96 16.79z"/><path style="fill:#7e4c7e" d="M92.21 64.46c0 6.56-2.66 12.5-6.96 16.79s-10.24 6.96-16.79 6.96-12.5-2.66-16.79-6.96-6.96-10.24-6.96-16.79 2.66-12.5 6.96-16.79 10.24-6.96 16.79-6.96 12.5 2.66 16.79 6.96 6.96 10.24 6.96 16.79z"/><path style="fill:#7f4c7e" d="M93.2 63.19c0 6.56-2.66 12.5-6.96 16.79-4.3 4.3-10.24 6.96-16.79 6.96-6.56 0-12.5-2.66-16.79-6.96S45.7 69.75 45.7 63.19s2.66-12.5 6.96-16.79 10.24-6.96 16.79-6.96c6.56 0 12.5 2.66 16.79 6.96a23.62 23.62 0 016.96 16.79z"/><path style="fill:#7f4c7d" d="M94.23 61.93c0 6.56-2.66 12.5-6.96 16.79s-10.24 6.96-16.79 6.96c-6.56 0-12.5-2.66-16.79-6.96s-6.96-10.24-6.96-16.79 2.66-12.5 6.96-16.79 10.24-6.96 16.79-6.96c6.56 0 12.5 2.66 16.79 6.96s6.96 10.23 6.96 16.79z"/><path style="fill:#804c7d" d="M95.27 60.68c0 6.56-2.66 12.5-6.96 16.79s-10.24 6.96-16.79 6.96-12.5-2.66-16.79-6.96-6.96-10.24-6.96-16.79 2.66-12.5 6.96-16.79 10.24-6.96 16.79-6.96 12.5 2.66 16.79 6.96 6.96 10.23 6.96 16.79z"/><path style="fill:#814c7c" d="M96.35 59.43c0 6.56-2.66 12.5-6.96 16.79s-10.24 6.96-16.79 6.96c-6.56 0-12.5-2.66-16.79-6.96s-6.96-10.24-6.96-16.79 2.66-12.5 6.96-16.79 10.24-6.96 16.79-6.96c6.56 0 12.5 2.66 16.79 6.96s6.96 10.23 6.96 16.79z"/><path style="fill:#814c7c" d="M97.44 58.2c0 6.56-2.66 12.5-6.96 16.79s-10.24 6.96-16.79 6.96c-6.56 0-12.5-2.66-16.79-6.96s-6.96-10.24-6.96-16.79 2.66-12.5 6.96-16.79 10.24-6.96 16.79-6.96c6.56 0 12.5 2.66 16.79 6.96s6.96 10.23 6.96 16.79z"/><path style="fill:#824b7b" d="M98.57 56.98c0 6.56-2.66 12.5-6.96 16.79s-10.24 6.96-16.79 6.96c-6.56 0-12.5-2.66-16.79-6.96s-6.96-10.24-6.96-16.79 2.66-12.5 6.96-16.79 10.24-6.96 16.79-6.96c6.56 0 12.5 2.66 16.79 6.96s6.96 10.23 6.96 16.79z"/><path style="fill:#834b7b" d="M99.72 55.78c0 6.56-2.66 12.5-6.96 16.79s-10.24 6.96-16.79 6.96-12.5-2.66-16.79-6.96-6.96-10.24-6.96-16.79 2.66-12.5 6.96-16.79 10.24-6.96 16.79-6.96 12.5 2.66 16.79 6.96 6.96 10.23 6.96 16.79z"/><path style="fill:#834b7a" d="M100.9 54.58c0 6.56-2.66 12.5-6.96 16.79s-10.24 6.96-16.79 6.96-12.5-2.66-16.79-6.96-6.96-10.23-6.96-16.79 2.66-12.5 6.96-16.79 10.24-6.96 16.79-6.96 12.5 2.66 16.79 6.96 6.96 10.24 6.96 16.79z"/><path style="fill:#844b7a" d="M102.11 53.41c0 6.56-2.66 12.5-6.96 16.79s-10.24 6.96-16.79 6.96c-6.56 0-12.5-2.66-16.79-6.96s-6.96-10.24-6.96-16.79 2.66-12.5 6.96-16.79 10.24-6.96 16.79-6.96c6.56 0 12.5 2.66 16.79 6.96s6.96 10.23 6.96 16.79z"/><path style="fill:#854b79" d="M103.34 52.24c0 6.56-2.66 12.5-6.96 16.79s-10.24 6.96-16.79 6.96c-6.56 0-12.5-2.66-16.79-6.96s-6.96-10.24-6.96-16.79 2.66-12.5 6.96-16.79 10.24-6.96 16.79-6.96c6.56 0 12.5 2.66 16.79 6.96s6.96 10.23 6.96 16.79z"/><path style="fill:#854b79" d="M104.6 51.09c0 6.56-2.66 12.5-6.96 16.79s-10.24 6.96-16.79 6.96-12.5-2.66-16.79-6.96-6.96-10.23-6.96-16.79 2.66-12.5 6.96-16.79 10.24-6.96 16.79-6.96 12.5 2.66 16.8 6.96 6.95 10.23 6.95 16.79z"/><path style="fill:#864b78" d="M105.89 49.96c0 6.56-2.66 12.5-6.96 16.79s-10.24 6.96-16.79 6.96-12.5-2.66-16.79-6.96-6.96-10.24-6.96-16.79 2.66-12.5 6.96-16.79 10.24-6.96 16.79-6.96 12.5 2.66 16.79 6.96 6.96 10.23 6.96 16.79z"/><path style="fill:#874b78" d="M107.21 48.85c0 6.56-2.66 12.5-6.96 16.79S90.02 72.6 83.46 72.6s-12.5-2.66-16.79-6.96-6.96-10.24-6.96-16.79 2.66-12.5 6.96-16.79S76.9 25.1 83.46 25.1s12.5 2.66 16.79 6.96 6.96 10.23 6.96 16.79z"/><path style="fill:#874a77" d="M108.56 47.75c0 6.56-2.66 12.5-6.96 16.79S91.37 71.5 84.81 71.5s-12.5-2.66-16.79-6.96-6.96-10.24-6.96-16.79 2.66-12.5 6.96-16.79S78.25 24 84.81 24s12.5 2.66 16.79 6.96 6.96 10.23 6.96 16.79z"/><path style="fill:#884a77" d="M109.94 46.67c0 6.56-2.66 12.5-6.96 16.79s-10.24 6.96-16.79 6.96-12.5-2.66-16.79-6.96-6.96-10.24-6.96-16.79 2.66-12.5 6.96-16.79 10.24-6.96 16.79-6.96 12.5 2.66 16.79 6.96 6.96 10.23 6.96 16.79z"/><path style="fill:#884a76" d="M111.34 45.61c0 6.56-2.66 12.5-6.96 16.79-4.3 4.3-10.24 6.96-16.79 6.96-6.56 0-12.5-2.66-16.79-6.96s-6.96-10.24-6.96-16.79 2.66-12.5 6.96-16.79 10.24-6.96 16.79-6.96c6.56 0 12.5 2.66 16.79 6.96 4.3 4.29 6.96 10.23 6.96 16.79z"/><path style="fill:#894a76" d="M112.78 44.56c0 6.56-2.66 12.5-6.96 16.79s-10.24 6.96-16.79 6.96-12.5-2.66-16.79-6.96-6.96-10.24-6.96-16.79 2.66-12.5 6.96-16.79 10.24-6.96 16.79-6.96 12.5 2.66 16.79 6.96 6.96 10.24 6.96 16.79z"/><path style="fill:#8a4a76" d="M114.25 43.54c0 6.56-2.66 12.5-6.96 16.79s-10.24 6.96-16.79 6.96-12.5-2.66-16.8-6.95-6.96-10.24-6.96-16.79 2.66-12.5 6.96-16.79 10.24-6.96 16.79-6.96 12.5 2.66 16.79 6.96 6.97 10.22 6.97 16.78z"/><path style="fill:#8a4a75" d="M115.74 42.54c0 6.56-2.66 12.5-6.96 16.79s-10.24 6.96-16.79 6.96-12.5-2.66-16.79-6.96-6.96-10.24-6.96-16.79 2.66-12.5 6.96-16.79 10.24-6.96 16.79-6.96 12.5 2.66 16.79 6.96 6.96 10.23 6.96 16.79z"/><path style="fill:#8b4a75" d="M117.27 41.56c0 6.56-2.66 12.5-6.96 16.79s-10.24 6.96-16.79 6.96c-6.56 0-12.5-2.66-16.79-6.96-4.3-4.3-6.96-10.24-6.96-16.79s2.66-12.5 6.96-16.79c4.3-4.3 10.24-6.96 16.79-6.96 6.56 0 12.5 2.66 16.79 6.96s6.96 10.23 6.96 16.79z"/><path style="fill:#8c4a74" d="M118.83 40.6c0 6.56-2.66 12.5-6.96 16.79s-10.24 6.96-16.79 6.96-12.5-2.66-16.79-6.96-6.96-10.24-6.96-16.79 2.66-12.5 6.96-16.79 10.24-6.96 16.79-6.96 12.5 2.66 16.79 6.96 6.96 10.24 6.96 16.79z"/><path style="fill:#8c4a74" d="M120.42 39.67c0 6.56-2.66 12.5-6.96 16.79s-10.24 6.96-16.79 6.96c-6.56 0-12.5-2.66-16.79-6.96-4.3-4.3-6.96-10.24-6.96-16.79s2.66-12.5 6.96-16.79c4.3-4.3 10.24-6.96 16.79-6.96 6.56 0 12.5 2.66 16.79 6.96s6.96 10.23 6.96 16.79z"/><path style="fill:#8d4973" d="M122.04 38.76c0 6.56-2.66 12.5-6.96 16.79s-10.24 6.96-16.79 6.96-12.5-2.66-16.79-6.96-6.96-10.24-6.96-16.79 2.66-12.5 6.96-16.79 10.24-6.96 16.79-6.96 12.5 2.66 16.79 6.96 6.96 10.23 6.96 16.79z"/><path style="fill:#8e4973" d="M123.7 37.87c0 6.56-2.66 12.5-6.96 16.79s-10.24 6.96-16.79 6.96-12.5-2.66-16.79-6.96-6.96-10.23-6.96-16.79 2.66-12.5 6.96-16.79 10.24-6.96 16.79-6.96 12.5 2.66 16.79 6.96 6.96 10.23 6.96 16.79z"/><path style="fill:#8e4972" d="M125.38 37.01c0 6.56-2.66 12.5-6.96 16.79-4.3 4.3-10.24 6.96-16.79 6.96-6.56 0-12.5-2.66-16.79-6.96s-6.96-10.24-6.96-16.79 2.66-12.5 6.96-16.79 10.24-6.96 16.79-6.96c6.56 0 12.5 2.66 16.79 6.96a23.603 23.603 0 016.96 16.79z"/><path style="fill:#8f4972" d="M127.1 36.17c0 6.56-2.66 12.5-6.96 16.79s-10.24 6.96-16.79 6.96-12.5-2.66-16.79-6.96-6.96-10.23-6.96-16.79 2.66-12.5 6.96-16.79 10.24-6.96 16.79-6.96 12.5 2.66 16.79 6.96 6.96 10.23 6.96 16.79z"/><path style="fill:#8f4971" d="M128.86 35.36c0 6.56-2.66 12.5-6.96 16.79s-10.24 6.96-16.79 6.96-12.5-2.66-16.79-6.96-6.96-10.24-6.96-16.79 2.66-12.5 6.96-16.79 10.24-6.96 16.79-6.96 12.5 2.66 16.79 6.96 6.96 10.23 6.96 16.79z"/><path style="fill:#904971" d="M130.64 34.57c0 6.56-2.66 12.5-6.96 16.79s-10.24 6.96-16.79 6.96-12.5-2.66-16.79-6.96-6.96-10.24-6.96-16.79 2.66-12.5 6.96-16.79 10.24-6.96 16.79-6.96 12.5 2.66 16.79 6.96 6.96 10.23 6.96 16.79z"/><path style="fill:#914970" d="M132.46 33.81c0 6.56-2.66 12.5-6.96 16.79s-10.24 6.96-16.79 6.96-12.5-2.66-16.79-6.96-6.96-10.24-6.96-16.79 2.66-12.5 6.96-16.79 10.24-6.96 16.79-6.96 12.5 2.66 16.79 6.96 6.96 10.24 6.96 16.79z"/><path style="fill:#914970" d="M134.31 33.09c0 6.56-2.66 12.5-6.96 16.79-4.3 4.3-10.24 6.96-16.79 6.96s-12.5-2.66-16.79-6.96-6.96-10.24-6.96-16.79 2.66-12.5 6.96-16.79 10.24-6.96 16.79-6.96 12.5 2.66 16.79 6.96a23.603 23.603 0 016.96 16.79z"/><path style="fill:#92486f" d="M136.2 32.38c0 6.56-2.66 12.5-6.96 16.79-4.3 4.3-10.24 6.96-16.79 6.96-6.56 0-12.5-2.66-16.79-6.96S88.7 38.94 88.7 32.38s2.66-12.5 6.96-16.79 10.24-6.96 16.79-6.96c6.56 0 12.5 2.66 16.79 6.96 4.3 4.3 6.96 10.24 6.96 16.79z"/><path style="fill:#93486f" d="M138.12 31.71c0 6.56-2.66 12.5-6.96 16.79-4.3 4.3-10.24 6.96-16.79 6.96-6.56 0-12.5-2.66-16.79-6.96s-6.96-10.24-6.96-16.79 2.66-12.5 6.96-16.79 10.24-6.96 16.79-6.96c6.56 0 12.5 2.66 16.79 6.96a23.62 23.62 0 016.96 16.79z"/><path style="fill:#93486e" d="M140.08 31.07c0 6.56-2.66 12.5-6.96 16.79-4.3 4.3-10.24 6.96-16.79 6.96s-12.5-2.66-16.79-6.96-6.96-10.24-6.96-16.79 2.66-12.5 6.96-16.79 10.24-6.96 16.79-6.96 12.5 2.66 16.79 6.96c4.3 4.29 6.96 10.23 6.96 16.79z"/><path style="fill:#94486e" d="M142.07 30.46c0 6.56-2.66 12.5-6.96 16.79-4.3 4.3-10.24 6.96-16.79 6.96s-12.5-2.66-16.79-6.96-6.96-10.24-6.96-16.79 2.66-12.5 6.96-16.79 10.24-6.96 16.79-6.96 12.5 2.66 16.79 6.96c4.3 4.29 6.96 10.23 6.96 16.79z"/><path style="fill:#94486d" d="M144.1 29.88c0 6.56-2.66 12.5-6.96 16.79-4.3 4.3-10.24 6.96-16.79 6.96-6.56 0-12.5-2.66-16.79-6.96S96.6 36.44 96.6 29.88s2.66-12.5 6.96-16.79 10.24-6.96 16.79-6.96c6.56 0 12.5 2.66 16.79 6.96 4.3 4.29 6.96 10.23 6.96 16.79z"/><path style="fill:#95486d" d="M146.16 29.33c0 6.56-2.66 12.5-6.96 16.79-4.3 4.3-10.24 6.96-16.79 6.96-6.56 0-12.5-2.66-16.79-6.96s-6.96-10.24-6.96-16.79 2.66-12.5 6.96-16.79 10.24-6.96 16.79-6.96c6.56 0 12.5 2.66 16.79 6.96a23.62 23.62 0 016.96 16.79z"/><path style="fill:#96486d" d="M148.26 28.82c0 6.56-2.66 12.5-6.96 16.79-4.3 4.3-10.24 6.96-16.79 6.96-6.56 0-12.5-2.66-16.79-6.96s-6.96-10.24-6.96-16.79 2.66-12.5 6.96-16.79 10.24-6.96 16.79-6.96c6.56 0 12.5 2.66 16.79 6.96a23.603 23.603 0 016.96 16.79z"/><path style="fill:#96476c" d="M150.4 28.33c0 6.56-2.66 12.5-6.96 16.79-4.3 4.3-10.24 6.96-16.79 6.96s-12.5-2.66-16.79-6.96-6.96-10.24-6.96-16.79 2.66-12.5 6.96-16.79 10.24-6.96 16.79-6.96 12.5 2.66 16.79 6.96c4.3 4.3 6.96 10.24 6.96 16.79z"/><path style="fill:#97476c" d="M152.57 27.89c0 6.56-2.66 12.5-6.96 16.79-4.3 4.3-10.24 6.96-16.79 6.96-6.56 0-12.5-2.66-16.79-6.96s-6.96-10.24-6.96-16.79 2.66-12.5 6.96-16.79 10.24-6.96 16.79-6.96c6.56 0 12.5 2.66 16.79 6.96 4.3 4.29 6.96 10.23 6.96 16.79z"/><path style="fill:#98476b" d="M154.78 27.47c0 6.56-2.66 12.5-6.96 16.79-4.3 4.3-10.24 6.96-16.79 6.96s-12.5-2.66-16.79-6.96-6.96-10.24-6.96-16.79 2.66-12.5 6.96-16.79 10.24-6.96 16.79-6.96 12.5 2.66 16.79 6.96c4.3 4.3 6.96 10.23 6.96 16.79z"/><path style="fill:#98476b" d="M157.03 27.09c0 6.56-2.66 12.5-6.96 16.79-4.3 4.3-10.24 6.96-16.79 6.96-6.56 0-12.5-2.66-16.79-6.96s-6.96-10.24-6.96-16.79 2.66-12.5 6.96-16.79 10.24-6.96 16.79-6.96c6.56 0 12.5 2.66 16.79 6.96 4.3 4.3 6.96 10.24 6.96 16.79z"/><path style="fill:#99476a" d="M159.32 26.75c0 6.56-2.66 12.5-6.96 16.79-4.3 4.3-10.24 6.96-16.79 6.96s-12.5-2.66-16.79-6.96c-4.3-4.3-6.96-10.24-6.96-16.79s2.66-12.5 6.96-16.79c4.3-4.3 10.24-6.96 16.79-6.96s12.5 2.66 16.79 6.96c4.3 4.3 6.96 10.23 6.96 16.79z"/><path style="fill:#99476a" d="M161.64 26.45c0 6.56-2.66 12.5-6.96 16.79-4.3 4.3-10.24 6.96-16.79 6.96s-12.5-2.66-16.79-6.96-6.96-10.24-6.96-16.79 2.66-12.5 6.96-16.79 10.24-6.96 16.79-6.96 12.5 2.66 16.79 6.96c4.3 4.29 6.96 10.23 6.96 16.79z"/><path style="fill:#9a4669" d="M164 26.18c0 6.56-2.66 12.5-6.96 16.79-4.3 4.3-10.24 6.96-16.79 6.96s-12.5-2.66-16.79-6.96c-4.3-4.3-6.96-10.24-6.96-16.79s2.66-12.5 6.96-16.79c4.3-4.3 10.24-6.96 16.79-6.96s12.5 2.66 16.79 6.96c4.3 4.29 6.96 10.23 6.96 16.79z"/><path style="fill:#9b4669" d="M166.4 25.95c0 6.56-2.66 12.5-6.96 16.79-4.3 4.3-10.24 6.96-16.79 6.96s-12.5-2.66-16.79-6.96-6.96-10.24-6.96-16.79 2.66-12.5 6.96-16.79S136.1 2.2 142.65 2.2s12.5 2.66 16.79 6.96c4.3 4.29 6.96 10.23 6.96 16.79z"/><path style="fill:#9b4668" d="M168.84 25.75c0 6.56-2.66 12.5-6.96 16.79-4.3 4.3-10.24 6.96-16.79 6.96s-12.5-2.66-16.79-6.96c-4.3-4.3-6.96-10.24-6.96-16.79s2.66-12.5 6.96-16.79C132.6 4.66 138.54 2 145.09 2s12.5 2.66 16.79 6.96c4.3 4.3 6.96 10.24 6.96 16.79z"/><path style="fill:#9c4668" d="M171.32 25.6c0 6.56-2.66 12.5-6.96 16.79-4.3 4.3-10.24 6.96-16.79 6.96s-12.5-2.66-16.79-6.96c-4.3-4.3-6.96-10.24-6.96-16.79s2.66-12.5 6.96-16.79c4.3-4.3 10.24-6.96 16.79-6.96s12.5 2.66 16.79 6.96c4.3 4.3 6.96 10.23 6.96 16.79z"/><path style="fill:#9d4667" d="M173.84 25.49c0 6.56-2.66 12.5-6.96 16.79-4.3 4.3-10.24 6.96-16.79 6.96-6.56 0-12.5-2.66-16.79-6.96-4.3-4.3-6.96-10.24-6.96-16.79S129 12.99 133.3 8.7c4.3-4.3 10.24-6.96 16.79-6.96 6.56 0 12.5 2.66 16.79 6.96 4.3 4.29 6.96 10.23 6.96 16.79z"/><path style="fill:#9d4667" d="M176.39 25.42c0 6.56-2.66 12.5-6.96 16.79-4.3 4.3-10.24 6.96-16.79 6.96s-12.5-2.66-16.79-6.96c-4.3-4.3-6.96-10.24-6.96-16.79s2.66-12.5 6.96-16.79c4.3-4.3 10.24-6.96 16.79-6.96s12.5 2.66 16.79 6.96a23.603 23.603 0 016.96 16.79z"/><path style="fill:#9e4666" d="M178.99 25.38c0 6.56-2.66 12.5-6.96 16.79-4.3 4.3-10.24 6.96-16.79 6.96s-12.5-2.66-16.79-6.96c-4.3-4.3-6.96-10.24-6.96-16.79s2.66-12.5 6.96-16.79c4.3-4.3 10.24-6.96 16.79-6.96s12.5 2.66 16.79 6.96c4.3 4.3 6.96 10.24 6.96 16.79z"/><path style="fill:#9e4566" d="M181.64 25.39c0 6.56-2.66 12.5-6.96 16.79-4.3 4.3-10.24 6.96-16.79 6.96s-12.5-2.66-16.79-6.96c-4.3-4.3-6.96-10.24-6.96-16.79s2.66-12.5 6.96-16.79c4.3-4.3 10.24-6.96 16.79-6.96s12.5 2.66 16.79 6.96c4.31 4.3 6.96 10.24 6.96 16.79z"/><path style="fill:#9f4566" d="M184.27 25.45c0 6.56-2.66 12.5-6.96 16.79-4.3 4.3-10.24 6.96-16.79 6.96s-12.5-2.66-16.79-6.96c-4.3-4.3-6.96-10.24-6.96-16.79s2.66-12.5 6.96-16.79c4.3-4.3 10.24-6.96 16.79-6.96s12.5 2.66 16.79 6.96c4.3 4.29 6.96 10.23 6.96 16.79z"/><path style="fill:#a04565" d="M186.85 25.54c0 6.56-2.66 12.5-6.96 16.79-4.3 4.3-10.24 6.96-16.79 6.96s-12.5-2.66-16.79-6.96c-4.3-4.3-6.96-10.24-6.96-16.79s2.66-12.5 6.96-16.79c4.3-4.3 10.24-6.96 16.79-6.96s12.5 2.66 16.79 6.96c4.3 4.29 6.96 10.23 6.96 16.79z"/><path style="fill:#a04565" d="M189.39 25.67c0 6.56-2.66 12.5-6.96 16.79-4.3 4.3-10.24 6.96-16.79 6.96s-12.5-2.66-16.79-6.96c-4.3-4.3-6.96-10.24-6.96-16.79s2.66-12.5 6.96-16.79c4.3-4.3 10.24-6.96 16.79-6.96s12.5 2.66 16.79 6.96a23.603 23.603 0 016.96 16.79z"/><path style="fill:#a14564" d="M191.89 25.84c0 6.56-2.66 12.5-6.96 16.79-4.3 4.3-10.24 6.96-16.79 6.96s-12.5-2.66-16.79-6.96c-4.3-4.3-6.96-10.24-6.96-16.79s2.66-12.5 6.96-16.79c4.3-4.3 10.24-6.96 16.79-6.96s12.5 2.66 16.79 6.96a23.62 23.62 0 016.96 16.79z"/><path style="fill:#a24564" d="M194.36 26.05c0 6.56-2.66 12.5-6.96 16.79-4.3 4.3-10.24 6.96-16.79 6.96s-12.5-2.66-16.79-6.96c-4.3-4.3-6.96-10.24-6.96-16.79s2.66-12.5 6.96-16.79c4.3-4.3 10.24-6.96 16.79-6.96s12.5 2.66 16.79 6.96c4.3 4.3 6.96 10.23 6.96 16.79z"/><path style="fill:#a24563" d="M196.78 26.3c0 6.56-2.66 12.5-6.96 16.79-4.3 4.3-10.24 6.96-16.79 6.96-6.56 0-12.5-2.66-16.79-6.96-4.3-4.3-6.96-10.24-6.96-16.79s2.66-12.5 6.96-16.79c4.3-4.3 10.24-6.96 16.79-6.96 6.56 0 12.5 2.66 16.79 6.96 4.3 4.29 6.96 10.23 6.96 16.79z"/><path style="fill:#a34463" d="M199.16 26.58c0 6.56-2.66 12.5-6.96 16.79s-10.24 6.96-16.79 6.96c-6.56 0-12.5-2.66-16.79-6.96-4.3-4.3-6.96-10.24-6.96-16.79s2.66-12.5 6.96-16.79c4.3-4.3 10.24-6.96 16.79-6.96 6.56 0 12.5 2.66 16.79 6.96s6.96 10.24 6.96 16.79z"/><path style="fill:#a34462" d="M201.5 26.91c0 6.56-2.66 12.5-6.96 16.79-4.3 4.3-10.24 6.96-16.79 6.96s-12.5-2.66-16.79-6.96c-4.3-4.3-6.96-10.24-6.96-16.79s2.66-12.5 6.96-16.79c4.3-4.3 10.24-6.96 16.79-6.96s12.5 2.66 16.79 6.96c4.3 4.29 6.96 10.23 6.96 16.79z"/><path style="fill:#a44462" d="M203.8 27.26c0 6.56-2.66 12.5-6.96 16.79-4.3 4.3-10.24 6.96-16.79 6.96s-12.5-2.66-16.79-6.96c-4.3-4.3-6.96-10.24-6.96-16.79s2.66-12.5 6.96-16.79c4.3-4.3 10.24-6.96 16.79-6.96s12.5 2.66 16.79 6.96c4.3 4.3 6.96 10.23 6.96 16.79z"/><path style="fill:#a54461" d="M206.06 27.66c0 6.56-2.66 12.5-6.96 16.79-4.3 4.3-10.24 6.96-16.79 6.96-6.56 0-12.5-2.66-16.79-6.96-4.3-4.3-6.96-10.24-6.96-16.79s2.66-12.5 6.96-16.79c4.3-4.3 10.24-6.96 16.79-6.96 6.56 0 12.5 2.66 16.79 6.96 4.3 4.29 6.96 10.23 6.96 16.79z"/><path style="fill:#a54461" d="M208.28 28.08c0 6.56-2.66 12.5-6.96 16.79-4.3 4.3-10.24 6.96-16.79 6.96-6.56 0-12.5-2.66-16.79-6.96-4.3-4.3-6.96-10.24-6.96-16.79s2.66-12.5 6.96-16.79c4.3-4.3 10.24-6.96 16.79-6.96 6.56 0 12.5 2.66 16.79 6.96a23.62 23.62 0 016.96 16.79z"/><path style="fill:#a64461" d="M210.47 28.54c0 6.56-2.66 12.5-6.96 16.79-4.3 4.3-10.24 6.96-16.79 6.96-6.56 0-12.5-2.66-16.79-6.96s-6.96-10.24-6.96-16.79 2.66-12.5 6.96-16.79 10.24-6.96 16.79-6.96c6.56 0 12.5 2.66 16.79 6.96 4.3 4.3 6.96 10.24 6.96 16.79z"/><path style="fill:#a74360" d="M212.62 29.04c0 6.56-2.66 12.5-6.96 16.79s-10.24 6.96-16.79 6.96c-6.56 0-12.5-2.66-16.79-6.96-4.3-4.3-6.96-10.24-6.96-16.79s2.66-12.5 6.96-16.79c4.3-4.3 10.24-6.96 16.79-6.96 6.56 0 12.5 2.66 16.79 6.96s6.96 10.23 6.96 16.79z"/><path style="fill:#a74360" d="M214.73 29.57c0 6.56-2.66 12.5-6.96 16.79-4.3 4.3-10.24 6.96-16.79 6.96s-12.5-2.66-16.79-6.96c-4.3-4.3-6.96-10.24-6.96-16.79s2.66-12.5 6.96-16.79c4.3-4.3 10.24-6.96 16.79-6.96s12.5 2.66 16.79 6.96c4.3 4.29 6.96 10.23 6.96 16.79z"/><path style="fill:#a8435f" d="M216.8 30.13c0 6.56-2.66 12.5-6.96 16.79-4.3 4.3-10.24 6.96-16.79 6.96s-12.5-2.66-16.79-6.96c-4.3-4.3-6.96-10.24-6.96-16.79s2.66-12.5 6.96-16.79c4.3-4.3 10.24-6.96 16.79-6.96s12.5 2.66 16.79 6.96c4.3 4.29 6.96 10.23 6.96 16.79z"/><path style="fill:#a8435f" d="M218.83 30.72c0 6.56-2.66 12.5-6.96 16.79-4.3 4.3-10.24 6.96-16.79 6.96-6.56 0-12.5-2.66-16.79-6.96-4.3-4.3-6.96-10.24-6.96-16.79s2.66-12.5 6.96-16.79c4.3-4.3 10.24-6.96 16.79-6.96 6.56 0 12.5 2.66 16.79 6.96a23.603 23.603 0 016.96 16.79z"/><path style="fill:#a9435e" d="M220.83 31.34c0 6.56-2.66 12.5-6.96 16.79-4.3 4.3-10.24 6.96-16.79 6.96s-12.5-2.66-16.79-6.96c-4.3-4.3-6.96-10.24-6.96-16.79s2.66-12.5 6.96-16.79c4.3-4.3 10.24-6.96 16.79-6.96s12.5 2.66 16.79 6.96c4.3 4.29 6.96 10.23 6.96 16.79z"/><path style="fill:#aa435e" d="M222.8 31.99c0 6.56-2.66 12.5-6.96 16.79-4.3 4.3-10.24 6.96-16.79 6.96s-12.5-2.66-16.79-6.96c-4.3-4.3-6.96-10.24-6.96-16.79s2.66-12.5 6.96-16.79c4.3-4.3 10.24-6.96 16.79-6.96s12.5 2.66 16.79 6.96c4.3 4.3 6.96 10.23 6.96 16.79z"/><path style="fill:#aa425d" d="M224.72 32.67c0 6.56-2.66 12.5-6.96 16.79-4.3 4.3-10.24 6.96-16.79 6.96s-12.5-2.66-16.79-6.96c-4.3-4.3-6.96-10.24-6.96-16.79s2.66-12.5 6.96-16.79c4.3-4.3 10.24-6.96 16.79-6.96s12.5 2.66 16.79 6.96c4.3 4.3 6.96 10.24 6.96 16.79z"/><path style="fill:#ab425d" d="M226.61 33.38c0 6.56-2.66 12.5-6.96 16.79-4.3 4.3-10.24 6.96-16.79 6.96s-12.5-2.66-16.79-6.96c-4.3-4.3-6.96-10.24-6.96-16.79s2.66-12.5 6.96-16.79c4.3-4.3 10.24-6.96 16.79-6.96s12.5 2.66 16.79 6.96c4.31 4.3 6.96 10.24 6.96 16.79z"/><path style="fill:#ac425c" d="M228.47 34.12c0 6.56-2.66 12.5-6.96 16.79-4.3 4.3-10.24 6.96-16.79 6.96-6.56 0-12.5-2.66-16.79-6.96s-6.96-10.24-6.96-16.79 2.66-12.5 6.96-16.79 10.24-6.96 16.79-6.96c6.56 0 12.5 2.66 16.79 6.96 4.3 4.3 6.96 10.23 6.96 16.79z"/><path style="fill:#ac425c" d="M230.29 34.89c0 6.56-2.66 12.5-6.96 16.79-4.3 4.3-10.24 6.96-16.79 6.96s-12.5-2.66-16.79-6.96c-4.3-4.3-6.96-10.24-6.96-16.79s2.66-12.5 6.96-16.79c4.3-4.3 10.24-6.96 16.79-6.96s12.5 2.66 16.79 6.96c4.3 4.29 6.96 10.23 6.96 16.79z"/><path style="fill:#ad425c" d="M232.08 35.68c0 6.56-2.66 12.5-6.96 16.79-4.3 4.3-10.24 6.96-16.79 6.96s-12.5-2.66-16.79-6.96c-4.3-4.3-6.96-10.24-6.96-16.79s2.66-12.5 6.96-16.79c4.3-4.3 10.24-6.96 16.79-6.96s12.5 2.66 16.79 6.96c4.3 4.29 6.96 10.23 6.96 16.79z"/><path style="fill:#ad415b" d="M233.83 36.5c0 6.56-2.66 12.5-6.96 16.79-4.3 4.3-10.24 6.96-16.79 6.96s-12.5-2.66-16.79-6.96c-4.3-4.3-6.96-10.24-6.96-16.79s2.66-12.5 6.96-16.79c4.3-4.3 10.24-6.96 16.79-6.96s12.5 2.66 16.79 6.96c4.3 4.29 6.96 10.23 6.96 16.79z"/><path style="fill:#ae415b" d="M235.55 37.34c0 6.56-2.66 12.5-6.96 16.79-4.3 4.3-10.24 6.96-16.79 6.96s-12.5-2.66-16.79-6.96c-4.3-4.3-6.96-10.24-6.96-16.79s2.66-12.5 6.96-16.79c4.3-4.3 10.24-6.96 16.79-6.96s12.5 2.66 16.79 6.96c4.3 4.3 6.96 10.24 6.96 16.79z"/><path style="fill:#af415a" d="M237.23 38.21c0 6.56-2.66 12.5-6.96 16.79-4.3 4.3-10.24 6.96-16.79 6.96s-12.5-2.66-16.79-6.96c-4.3-4.3-6.96-10.24-6.96-16.79s2.66-12.5 6.96-16.79c4.3-4.3 10.24-6.96 16.79-6.96s12.5 2.66 16.79 6.96c4.3 4.3 6.96 10.23 6.96 16.79z"/><path style="fill:#af415a" d="M238.88 39.11c0 6.56-2.66 12.5-6.96 16.79-4.3 4.3-10.24 6.96-16.79 6.96s-12.5-2.66-16.79-6.96c-4.3-4.3-6.96-10.24-6.96-16.79s2.66-12.5 6.96-16.79c4.3-4.3 10.24-6.96 16.79-6.96s12.5 2.66 16.79 6.96c4.3 4.29 6.96 10.23 6.96 16.79z"/><path style="fill:#b04159" d="M240.5 40.02c0 6.56-2.66 12.5-6.96 16.79-4.3 4.3-10.24 6.96-16.79 6.96s-12.5-2.66-16.79-6.96c-4.3-4.3-6.96-10.24-6.96-16.79s2.66-12.5 6.96-16.79c4.3-4.3 10.24-6.96 16.79-6.96s12.5 2.66 16.79 6.96c4.3 4.3 6.96 10.24 6.96 16.79z"/><path style="fill:#b14059" d="M242.09 40.96c0 6.56-2.66 12.5-6.96 16.79-4.3 4.3-10.24 6.96-16.79 6.96s-12.5-2.66-16.79-6.96c-4.3-4.3-6.96-10.24-6.96-16.79s2.66-12.5 6.96-16.79c4.3-4.3 10.24-6.96 16.79-6.96s12.5 2.66 16.79 6.96c4.3 4.3 6.96 10.24 6.96 16.79z"/><path style="fill:#b14058" d="M243.64 41.93c0 6.56-2.66 12.5-6.96 16.79-4.3 4.3-10.24 6.96-16.79 6.96s-12.5-2.66-16.79-6.96c-4.3-4.3-6.96-10.24-6.96-16.79s2.66-12.5 6.96-16.79c4.3-4.3 10.24-6.96 16.79-6.96s12.5 2.66 16.79 6.96c4.3 4.29 6.96 10.23 6.96 16.79z"/><path style="fill:#b24058" d="M245.16 42.91c0 6.56-2.66 12.5-6.96 16.79-4.3 4.3-10.24 6.96-16.79 6.96s-12.5-2.66-16.79-6.96c-4.3-4.3-6.96-10.24-6.96-16.79s2.66-12.5 6.96-16.79c4.3-4.3 10.24-6.96 16.79-6.96s12.5 2.66 16.79 6.96c4.3 4.29 6.96 10.23 6.96 16.79z"/><path style="fill:#b24057" d="M246.65 43.92c0 6.56-2.66 12.5-6.96 16.79-4.3 4.3-10.24 6.96-16.79 6.96-6.56 0-12.5-2.66-16.79-6.96-4.3-4.3-6.96-10.24-6.96-16.79s2.66-12.5 6.96-16.79c4.3-4.3 10.24-6.96 16.79-6.96 6.56 0 12.5 2.66 16.79 6.96 4.3 4.29 6.96 10.23 6.96 16.79z"/><path style="fill:#b34057" d="M248.11 44.94c0 6.56-2.66 12.5-6.96 16.79-4.3 4.3-10.24 6.96-16.79 6.96s-12.5-2.66-16.79-6.96c-4.3-4.3-6.96-10.24-6.96-16.79s2.66-12.5 6.96-16.79c4.3-4.3 10.24-6.96 16.79-6.96s12.5 2.66 16.79 6.96c4.3 4.29 6.96 10.23 6.96 16.79z"/><path style="fill:#b43f56" d="M249.53 45.99c0 6.56-2.66 12.5-6.96 16.79-4.3 4.3-10.24 6.96-16.79 6.96-6.56 0-12.5-2.66-16.79-6.96s-6.96-10.24-6.96-16.79 2.66-12.5 6.96-16.79 10.24-6.96 16.79-6.96c6.56 0 12.5 2.66 16.79 6.96a23.603 23.603 0 016.96 16.79z"/><path style="fill:#b43f56" d="M250.93 47.05c0 6.56-2.66 12.5-6.96 16.79-4.3 4.3-10.24 6.96-16.79 6.96s-12.5-2.66-16.79-6.96c-4.3-4.3-6.96-10.24-6.96-16.79s2.66-12.5 6.96-16.79c4.3-4.3 10.24-6.96 16.79-6.96s12.5 2.66 16.79 6.96c4.3 4.29 6.96 10.23 6.96 16.79z"/><path style="fill:#b53f55" d="M252.3 48.13c0 6.56-2.66 12.5-6.96 16.79-4.3 4.3-10.24 6.96-16.79 6.96s-12.5-2.66-16.79-6.96c-4.3-4.3-6.96-10.24-6.96-16.79s2.66-12.5 6.96-16.79c4.3-4.3 10.24-6.96 16.79-6.96s12.5 2.66 16.79 6.96c4.3 4.3 6.96 10.23 6.96 16.79z"/><path style="fill:#b63f55" d="M253.63 49.23c0 6.56-2.66 12.5-6.96 16.79-4.3 4.3-10.24 6.96-16.79 6.96s-12.5-2.66-16.79-6.96c-4.3-4.3-6.96-10.24-6.96-16.79s2.66-12.5 6.96-16.79c4.3-4.3 10.24-6.96 16.79-6.96s12.5 2.66 16.79 6.96a23.62 23.62 0 016.96 16.79z"/><path style="fill:#b63f54" d="M254.94 50.35c0 6.56-2.66 12.5-6.96 16.79-4.3 4.3-10.24 6.96-16.79 6.96s-12.5-2.66-16.79-6.96c-4.3-4.3-6.96-10.24-6.96-16.79s2.66-12.5 6.96-16.79c4.3-4.3 10.24-6.96 16.79-6.96s12.5 2.66 16.79 6.96c4.3 4.29 6.96 10.23 6.96 16.79z"/><path style="fill:#b73e54" d="M256.22 51.48c0 6.56-2.66 12.5-6.96 16.79s-10.24 6.96-16.79 6.96c-6.56 0-12.5-2.66-16.79-6.96-4.3-4.3-6.96-10.24-6.96-16.79s2.66-12.5 6.96-16.79c4.3-4.3 10.24-6.96 16.79-6.96 6.56 0 12.5 2.66 16.79 6.96s6.96 10.23 6.96 16.79z"/><path style="fill:#b73e53" d="M257.47 52.63c0 6.56-2.66 12.5-6.96 16.79-4.3 4.3-10.24 6.96-16.79 6.96s-12.5-2.66-16.79-6.96c-4.3-4.3-6.96-10.24-6.96-16.79s2.66-12.5 6.96-16.79c4.3-4.3 10.24-6.96 16.79-6.96s12.5 2.66 16.79 6.96c4.3 4.3 6.96 10.23 6.96 16.79z"/><path style="fill:#b83e53" d="M258.69 53.8c0 6.56-2.66 12.5-6.96 16.79-4.3 4.3-10.24 6.96-16.79 6.96s-12.5-2.66-16.79-6.96c-4.3-4.3-6.96-10.24-6.96-16.79s2.66-12.5 6.96-16.79c4.3-4.3 10.24-6.96 16.79-6.96s12.5 2.66 16.79 6.96c4.3 4.29 6.96 10.23 6.96 16.79z"/><path style="fill:#b93e52" d="M259.88 54.97c0 6.56-2.66 12.5-6.96 16.79s-10.24 6.96-16.79 6.96-12.5-2.66-16.79-6.96c-4.3-4.3-6.96-10.24-6.96-16.79s2.66-12.5 6.96-16.79c4.3-4.3 10.24-6.96 16.79-6.96s12.5 2.66 16.79 6.96 6.96 10.24 6.96 16.79z"/><path style="fill:#b93e52" d="M261.04 56.17c0 6.56-2.66 12.5-6.96 16.79-4.3 4.3-10.24 6.96-16.79 6.96s-12.5-2.66-16.79-6.96c-4.3-4.3-6.96-10.24-6.96-16.79s2.66-12.5 6.96-16.79c4.3-4.3 10.24-6.96 16.79-6.96s12.5 2.66 16.79 6.96c4.3 4.29 6.96 10.23 6.96 16.79z"/><path style="fill:#ba3d51" d="M262.18 57.37c0 6.56-2.66 12.5-6.96 16.79-4.3 4.3-10.24 6.96-16.79 6.96s-12.5-2.66-16.79-6.96c-4.3-4.3-6.96-10.24-6.96-16.79s2.66-12.5 6.96-16.79c4.3-4.3 10.24-6.96 16.79-6.96s12.5 2.66 16.79 6.96c4.3 4.3 6.96 10.23 6.96 16.79z"/><path style="fill:#bb3d51" d="M263.29 58.59c0 6.56-2.66 12.5-6.96 16.79s-10.24 6.96-16.79 6.96-12.5-2.66-16.79-6.96c-4.3-4.3-6.96-10.24-6.96-16.79s2.66-12.5 6.96-16.79c4.3-4.3 10.24-6.96 16.79-6.96s12.5 2.66 16.79 6.96 6.96 10.23 6.96 16.79z"/><path style="fill:#bb3d50" d="M264.37 59.82c0 6.56-2.66 12.5-6.96 16.79-4.3 4.3-10.24 6.96-16.79 6.96-6.56 0-12.5-2.66-16.79-6.96-4.3-4.3-6.96-10.24-6.96-16.79s2.66-12.5 6.96-16.79c4.3-4.3 10.24-6.96 16.79-6.96 6.56 0 12.5 2.66 16.79 6.96 4.3 4.29 6.96 10.23 6.96 16.79z"/><path style="fill:#bc3d50" d="M265.42 61.06c0 6.56-2.66 12.5-6.96 16.79-4.3 4.3-10.24 6.96-16.79 6.96s-12.5-2.66-16.79-6.96c-4.3-4.3-6.96-10.24-6.96-16.79s2.66-12.5 6.96-16.79c4.3-4.3 10.24-6.96 16.79-6.96s12.5 2.66 16.79 6.96 6.96 10.23 6.96 16.79z"/><path style="fill:#bc3c4f" d="M266.45 62.31c0 6.56-2.66 12.5-6.96 16.79s-10.24 6.96-16.79 6.96-12.5-2.66-16.79-6.96c-4.3-4.3-6.96-10.24-6.96-16.79s2.66-12.5 6.96-16.79c4.3-4.3 10.24-6.96 16.79-6.96s12.5 2.66 16.79 6.96 6.96 10.23 6.96 16.79z"/><path style="fill:#bd3c4f" d="M267.45 63.57c0 6.56-2.66 12.5-6.96 16.79-4.3 4.3-10.24 6.96-16.79 6.96s-12.5-2.66-16.79-6.96c-4.3-4.3-6.96-10.24-6.96-16.79s2.66-12.5 6.96-16.79c4.3-4.3 10.24-6.96 16.79-6.96s12.5 2.66 16.79 6.96c4.3 4.3 6.96 10.24 6.96 16.79z"/><path style="fill:#be3c4e" d="M268.43 64.85c0 6.56-2.66 12.5-6.96 16.79s-10.24 6.96-16.79 6.96-12.5-2.66-16.79-6.96c-4.3-4.3-6.96-10.24-6.96-16.79s2.66-12.5 6.96-16.79c4.3-4.3 10.24-6.96 16.79-6.96s12.5 2.66 16.79 6.96 6.96 10.23 6.96 16.79z"/><path style="fill:#be3c4e" d="M269.38 66.12c0 6.56-2.66 12.5-6.96 16.79-4.3 4.3-10.24 6.96-16.79 6.96s-12.5-2.66-16.79-6.96c-4.3-4.3-6.96-10.24-6.96-16.79s2.66-12.5 6.96-16.79c4.3-4.3 10.24-6.96 16.79-6.96s12.5 2.66 16.79 6.96c4.3 4.3 6.96 10.24 6.96 16.79z"/><path style="fill:#bf3b4d" d="M270.31 67.41c0 6.56-2.66 12.5-6.96 16.79-4.3 4.3-10.24 6.96-16.79 6.96s-12.5-2.66-16.79-6.96c-4.3-4.3-6.96-10.24-6.96-16.79 0-6.56 2.66-12.5 6.96-16.79 4.3-4.3 10.24-6.96 16.79-6.96s12.5 2.66 16.79 6.96c4.3 4.3 6.96 10.23 6.96 16.79z"/><path style="fill:#c03b4d" d="M271.21 68.71c0 6.56-2.66 12.5-6.96 16.79s-10.24 6.96-16.79 6.96-12.5-2.66-16.79-6.96c-4.3-4.3-6.96-10.24-6.96-16.79s2.66-12.5 6.96-16.79c4.3-4.3 10.24-6.96 16.79-6.96s12.5 2.66 16.79 6.96 6.96 10.23 6.96 16.79z"/><path style="fill:#c03b4c" d="M272.09 70.01c0 6.56-2.66 12.5-6.96 16.79-4.3 4.3-10.24 6.96-16.79 6.96s-12.5-2.66-16.79-6.96c-4.3-4.3-6.96-10.24-6.96-16.79s2.66-12.5 6.96-16.79c4.3-4.3 10.24-6.96 16.79-6.96s12.5 2.66 16.79 6.96c4.3 4.29 6.96 10.23 6.96 16.79z"/><path style="fill:#c13b4c" d="M272.94 71.31c0 6.56-2.66 12.5-6.96 16.79s-10.24 6.96-16.79 6.96-12.5-2.66-16.79-6.96c-4.3-4.3-6.96-10.24-6.96-16.79s2.66-12.5 6.96-16.79c4.3-4.3 10.24-6.96 16.79-6.96s12.5 2.66 16.79 6.96 6.96 10.24 6.96 16.79z"/><path style="fill:#c13a4b" d="M273.77 72.63c0 6.56-2.66 12.5-6.96 16.79s-10.24 6.96-16.79 6.96c-6.56 0-12.5-2.66-16.79-6.96-4.3-4.3-6.96-10.24-6.96-16.79s2.66-12.5 6.96-16.79c4.3-4.3 10.24-6.96 16.79-6.96 6.56 0 12.5 2.66 16.79 6.96s6.96 10.23 6.96 16.79z"/><path style="fill:#c23a4b" d="M274.58 73.94c0 6.56-2.66 12.5-6.96 16.79s-10.24 6.96-16.79 6.96-12.5-2.66-16.79-6.96c-4.3-4.3-6.96-10.24-6.96-16.79s2.66-12.5 6.96-16.79c4.3-4.3 10.24-6.96 16.79-6.96s12.5 2.66 16.79 6.96 6.96 10.24 6.96 16.79z"/><path style="fill:#c33a4a" d="M275.36 75.26c0 6.56-2.66 12.5-6.96 16.79-4.3 4.3-10.24 6.96-16.79 6.96-6.56 0-12.5-2.66-16.79-6.96-4.3-4.3-6.96-10.24-6.96-16.79 0-6.56 2.66-12.5 6.96-16.79 4.3-4.3 10.24-6.96 16.79-6.96 6.56 0 12.5 2.66 16.79 6.96 4.3 4.3 6.96 10.24 6.96 16.79z"/><path style="fill:#c33a49" d="M276.12 76.59c0 6.56-2.66 12.5-6.96 16.79s-10.24 6.96-16.79 6.96c-6.56 0-12.5-2.66-16.79-6.96-4.3-4.3-6.96-10.24-6.96-16.79 0-6.56 2.66-12.5 6.96-16.79 4.3-4.3 10.24-6.96 16.79-6.96 6.56 0 12.5 2.66 16.79 6.96s6.96 10.23 6.96 16.79z"/><path style="fill:#c43949" d="M276.86 77.92c0 6.56-2.66 12.5-6.96 16.79-4.3 4.3-10.24 6.96-16.79 6.96-6.56 0-12.5-2.66-16.79-6.96-4.3-4.3-6.96-10.24-6.96-16.79 0-6.56 2.66-12.5 6.96-16.79 4.3-4.3 10.24-6.96 16.79-6.96 6.56 0 12.5 2.66 16.79 6.96 4.3 4.29 6.96 10.23 6.96 16.79z"/><path style="fill:#c43948" d="M277.58 79.25c0 6.56-2.66 12.5-6.96 16.79-4.3 4.3-10.24 6.96-16.79 6.96s-12.5-2.66-16.79-6.96c-4.3-4.3-6.96-10.24-6.96-16.79s2.66-12.5 6.96-16.79c4.3-4.3 10.24-6.96 16.79-6.96s12.5 2.66 16.79 6.96c4.3 4.29 6.96 10.23 6.96 16.79z"/><path style="fill:#c53948" d="M278.27 80.58c0 6.56-2.66 12.5-6.96 16.79s-10.24 6.96-16.79 6.96c-6.56 0-12.5-2.66-16.79-6.96-4.3-4.3-6.96-10.24-6.96-16.79s2.66-12.5 6.96-16.79c4.3-4.3 10.24-6.96 16.79-6.96 6.56 0 12.5 2.66 16.79 6.96s6.96 10.23 6.96 16.79z"/><path style="fill:#c63947" d="M278.95 81.91c0 6.56-2.66 12.5-6.96 16.79-4.3 4.3-10.24 6.96-16.79 6.96s-12.5-2.66-16.8-6.96c-4.3-4.3-6.96-10.24-6.96-16.79s2.66-12.5 6.96-16.79c4.3-4.3 10.24-6.96 16.79-6.96s12.5 2.66 16.79 6.96a23.612 23.612 0 016.97 16.79z"/><path style="fill:#c63847" d="M279.6 83.24c0 6.56-2.66 12.5-6.96 16.79s-10.24 6.96-16.79 6.96c-6.56 0-12.5-2.66-16.79-6.96-4.3-4.3-6.96-10.24-6.96-16.79s2.66-12.5 6.96-16.79c4.3-4.3 10.24-6.96 16.79-6.96 6.56 0 12.5 2.66 16.79 6.96s6.96 10.23 6.96 16.79z"/><path style="fill:#c73846" d="M280.23 84.57c0 6.56-2.66 12.5-6.96 16.79-4.3 4.3-10.24 6.96-16.79 6.96-6.56 0-12.5-2.66-16.79-6.96-4.3-4.3-6.96-10.24-6.96-16.79s2.66-12.5 6.96-16.79c4.3-4.3 10.24-6.96 16.79-6.96 6.56 0 12.5 2.66 16.79 6.96 4.3 4.29 6.96 10.23 6.96 16.79z"/><path style="fill:#c83846" d="M280.84 85.9c0 6.56-2.66 12.5-6.96 16.79-4.3 4.3-10.24 6.96-16.79 6.96-6.56 0-12.5-2.66-16.79-6.96-4.3-4.3-6.96-10.24-6.96-16.79s2.66-12.5 6.96-16.8c4.3-4.3 10.24-6.96 16.79-6.96 6.56 0 12.5 2.66 16.79 6.96 4.3 4.3 6.96 10.24 6.96 16.8z"/><path style="fill:#c83745" d="M281.43 87.23c0 6.56-2.66 12.5-6.96 16.79s-10.24 6.96-16.79 6.96-12.5-2.66-16.79-6.96c-4.3-4.3-6.96-10.24-6.96-16.79s2.66-12.5 6.96-16.79c4.3-4.3 10.24-6.96 16.79-6.96s12.5 2.66 16.79 6.96 6.96 10.23 6.96 16.79z"/><path style="fill:#c93745" d="M282.01 88.55c0 6.56-2.66 12.5-6.96 16.79s-10.24 6.96-16.79 6.96-12.5-2.66-16.79-6.96c-4.3-4.3-6.96-10.24-6.96-16.79s2.66-12.5 6.96-16.79c4.3-4.3 10.24-6.96 16.79-6.96s12.5 2.66 16.79 6.96 6.96 10.23 6.96 16.79z"/><path style="fill:#c93744" d="M282.56 89.87c0 6.56-2.66 12.5-6.96 16.79-4.3 4.3-10.24 6.96-16.79 6.96-6.56 0-12.5-2.66-16.79-6.96-4.3-4.3-6.96-10.24-6.96-16.79 0-6.56 2.66-12.5 6.96-16.79 4.3-4.3 10.24-6.96 16.79-6.96 6.56 0 12.5 2.66 16.79 6.96 4.3 4.3 6.96 10.23 6.96 16.79z"/><path style="fill:#ca3743" d="M283.09 91.19c0 6.56-2.66 12.5-6.96 16.79s-10.24 6.96-16.79 6.96-12.5-2.66-16.79-6.96c-4.3-4.3-6.96-10.24-6.96-16.79 0-6.56 2.66-12.5 6.96-16.79 4.3-4.3 10.24-6.96 16.79-6.96s12.5 2.66 16.79 6.96 6.96 10.23 6.96 16.79z"/><path style="fill:#cb3643" d="M283.61 92.5c0 6.56-2.66 12.5-6.96 16.79-4.3 4.3-10.24 6.96-16.79 6.96s-12.5-2.66-16.79-6.96c-4.3-4.3-6.96-10.24-6.96-16.79 0-6.56 2.66-12.5 6.96-16.79 4.3-4.3 10.24-6.96 16.79-6.96s12.5 2.66 16.79 6.96c4.3 4.3 6.96 10.24 6.96 16.79z"/><path style="fill:#cb3642" d="M284.11 93.81c0 6.56-2.66 12.5-6.96 16.79-4.3 4.3-10.24 6.96-16.79 6.96s-12.5-2.66-16.79-6.96c-4.3-4.3-6.96-10.24-6.96-16.79s2.66-12.5 6.96-16.79c4.3-4.3 10.24-6.96 16.79-6.96s12.5 2.66 16.79 6.96c4.3 4.3 6.96 10.23 6.96 16.79z"/><path style="fill:#cc3642" d="M284.58 95.12c0 6.56-2.66 12.5-6.96 16.79-4.3 4.3-10.24 6.96-16.79 6.96-6.56 0-12.5-2.66-16.79-6.96-4.3-4.3-6.96-10.24-6.96-16.79s2.66-12.5 6.96-16.79c4.3-4.3 10.24-6.96 16.79-6.96 6.56 0 12.5 2.66 16.79 6.96a23.603 23.603 0 016.96 16.79z"/><path style="fill:#cc3641" d="M285.04 96.41c0 6.56-2.66 12.5-6.96 16.79s-10.24 6.96-16.79 6.96-12.5-2.66-16.79-6.96-6.96-10.24-6.96-16.79 2.66-12.5 6.96-16.79 10.24-6.96 16.79-6.96 12.5 2.66 16.79 6.96 6.96 10.23 6.96 16.79z"/><path style="fill:#cd3541" d="M285.49 97.7c0 6.56-2.66 12.5-6.96 16.79-4.3 4.3-10.24 6.96-16.79 6.96-6.56 0-12.5-2.66-16.79-6.96-4.3-4.3-6.96-10.24-6.96-16.79s2.66-12.5 6.96-16.79c4.3-4.3 10.24-6.96 16.79-6.96 6.56 0 12.5 2.66 16.79 6.96 4.3 4.29 6.96 10.23 6.96 16.79z"/><path style="fill:#ce3540" d="M285.91 98.98c0 6.56-2.66 12.5-6.96 16.79-4.3 4.3-10.24 6.96-16.79 6.96-6.56 0-12.5-2.66-16.79-6.96-4.3-4.3-6.96-10.24-6.96-16.79s2.66-12.5 6.96-16.79c4.3-4.3 10.24-6.96 16.79-6.96 6.56 0 12.5 2.66 16.79 6.96a23.62 23.62 0 016.96 16.79z"/><path style="fill:#ce353f" d="M286.32 100.26c0 6.56-2.66 12.5-6.96 16.79s-10.24 6.96-16.79 6.96-12.5-2.66-16.79-6.96c-4.3-4.3-6.96-10.24-6.96-16.79 0-6.56 2.66-12.5 6.96-16.79 4.3-4.3 10.24-6.96 16.79-6.96s12.5 2.66 16.79 6.96a23.603 23.603 0 016.96 16.79z"/><path style="fill:#cf343f" d="M286.72 101.52c0 6.56-2.66 12.5-6.96 16.79-4.3 4.3-10.24 6.96-16.79 6.96s-12.5-2.66-16.79-6.96c-4.3-4.3-6.96-10.24-6.96-16.79 0-6.56 2.66-12.5 6.96-16.79 4.3-4.3 10.24-6.96 16.79-6.96s12.5 2.66 16.79 6.96 6.96 10.23 6.96 16.79z"/><path style="fill:#cf343e" d="M287.1 102.77c0 6.56-2.66 12.5-6.96 16.79s-10.24 6.96-16.79 6.96-12.5-2.66-16.79-6.96c-4.3-4.3-6.96-10.24-6.96-16.79s2.66-12.5 6.96-16.79c4.3-4.3 10.24-6.96 16.79-6.96s12.5 2.66 16.79 6.96 6.96 10.23 6.96 16.79z"/><path style="fill:#d0343e" d="M287.46 104.02c0 6.56-2.66 12.5-6.96 16.79-4.3 4.3-10.24 6.96-16.79 6.96s-12.5-2.66-16.79-6.96c-4.3-4.3-6.96-10.24-6.96-16.79 0-6.56 2.66-12.5 6.96-16.79s10.24-6.96 16.79-6.96 12.5 2.66 16.79 6.96c4.3 4.29 6.96 10.23 6.96 16.79z"/><path style="fill:#d1333d" d="M287.8 105.25c0 6.56-2.66 12.5-6.96 16.79S270.61 129 264.05 129s-12.5-2.66-16.79-6.96-6.96-10.24-6.96-16.79c0-6.56 2.66-12.5 6.96-16.79s10.24-6.96 16.79-6.96 12.5 2.66 16.79 6.96 6.96 10.23 6.96 16.79z"/><path style="fill:#d1333d" d="M288.14 106.47c0 6.56-2.66 12.5-6.96 16.79-4.3 4.3-10.24 6.96-16.79 6.96s-12.5-2.66-16.79-6.96c-4.3-4.3-6.96-10.24-6.96-16.79 0-6.56 2.66-12.5 6.96-16.79 4.3-4.3 10.24-6.96 16.79-6.96s12.5 2.66 16.79 6.96c4.3 4.3 6.96 10.23 6.96 16.79z"/><path style="fill:#d2333c" d="M288.45 107.68c0 6.56-2.66 12.5-6.96 16.79s-10.24 6.96-16.79 6.96-12.5-2.66-16.79-6.96c-4.3-4.3-6.96-10.24-6.96-16.79s2.66-12.5 6.96-16.79c4.3-4.3 10.24-6.96 16.79-6.96s12.5 2.66 16.79 6.96 6.96 10.23 6.96 16.79z"/><path style="fill:#d2323c" d="M288.76 108.88c0 6.56-2.66 12.5-6.96 16.79-4.3 4.3-10.24 6.96-16.79 6.96s-12.5-2.66-16.79-6.96c-4.3-4.3-6.96-10.24-6.96-16.79s2.66-12.5 6.96-16.79c4.3-4.3 10.24-6.96 16.79-6.96s12.5 2.66 16.79 6.96 6.96 10.23 6.96 16.79z"/><path style="fill:#d3323b" d="M289.04 110.06c0 6.56-2.66 12.5-6.96 16.79s-10.24 6.96-16.79 6.96-12.5-2.66-16.79-6.96c-4.3-4.3-6.96-10.24-6.96-16.79s2.66-12.5 6.96-16.79c4.3-4.3 10.24-6.96 16.79-6.96s12.5 2.66 16.79 6.96 6.96 10.23 6.96 16.79z"/><path style="fill:#d3323a" d="M289.32 111.23c0 6.56-2.66 12.5-6.96 16.79-4.3 4.3-10.24 6.96-16.79 6.96s-12.5-2.66-16.79-6.96c-4.3-4.3-6.96-10.24-6.96-16.79 0-6.56 2.66-12.5 6.96-16.79 4.3-4.3 10.24-6.96 16.79-6.96s12.5 2.66 16.79 6.96c4.3 4.29 6.96 10.23 6.96 16.79z"/><path style="fill:#d4323a" d="M289.58 112.38c0 6.56-2.66 12.5-6.96 16.79-4.3 4.3-10.24 6.96-16.79 6.96s-12.5-2.66-16.79-6.96c-4.3-4.3-6.96-10.24-6.96-16.79s2.66-12.5 6.96-16.79c4.3-4.3 10.24-6.96 16.79-6.96s12.5 2.66 16.79 6.96 6.96 10.23 6.96 16.79z"/><path style="fill:#d53139" d="M289.83 113.52c0 6.56-2.66 12.5-6.96 16.79-4.3 4.3-10.24 6.96-16.79 6.96s-12.5-2.66-16.79-6.96c-4.3-4.3-6.96-10.24-6.96-16.79s2.66-12.5 6.96-16.79c4.3-4.3 10.24-6.96 16.79-6.96s12.5 2.66 16.79 6.96 6.96 10.23 6.96 16.79z"/><path style="fill:#d53139" d="M290.06 114.64c0 6.56-2.66 12.5-6.96 16.79-4.3 4.3-10.24 6.96-16.79 6.96-6.56 0-12.5-2.66-16.79-6.96-4.3-4.3-6.96-10.24-6.96-16.79s2.66-12.5 6.96-16.79c4.3-4.3 10.24-6.96 16.79-6.96 6.56 0 12.5 2.66 16.79 6.96a23.603 23.603 0 016.96 16.79z"/><path style="fill:#d63038" d="M290.29 115.74c0 6.56-2.66 12.5-6.96 16.79-4.3 4.3-10.24 6.96-16.79 6.96s-12.5-2.66-16.79-6.96c-4.3-4.3-6.96-10.24-6.96-16.79 0-6.56 2.66-12.5 6.96-16.79 4.3-4.3 10.24-6.96 16.79-6.96s12.5 2.66 16.79 6.96c4.3 4.3 6.96 10.23 6.96 16.79z"/><path style="fill:#d63038" d="M290.5 116.83c0 6.56-2.66 12.5-6.96 16.79-4.3 4.3-10.24 6.96-16.79 6.96s-12.5-2.66-16.79-6.96c-4.3-4.3-6.96-10.24-6.96-16.79 0-6.56 2.66-12.5 6.96-16.79 4.3-4.3 10.24-6.96 16.79-6.96s12.5 2.66 16.79 6.96 6.96 10.23 6.96 16.79z"/><path style="fill:#d73037" d="M290.7 117.9c0 6.56-2.66 12.5-6.96 16.79-4.3 4.3-10.24 6.96-16.79 6.96s-12.5-2.66-16.79-6.96c-4.3-4.3-6.96-10.24-6.96-16.79s2.66-12.5 6.96-16.79 10.24-6.96 16.79-6.96 12.5 2.66 16.79 6.96c4.3 4.29 6.96 10.23 6.96 16.79z"/><path style="fill:#d82f36" d="M290.89 118.95c0 6.56-2.66 12.5-6.96 16.79-4.3 4.3-10.24 6.96-16.79 6.96s-12.5-2.66-16.79-6.96c-4.3-4.3-6.96-10.24-6.96-16.79s2.66-12.5 6.96-16.79c4.3-4.3 10.24-6.96 16.79-6.96s12.5 2.66 16.79 6.96c4.3 4.29 6.96 10.23 6.96 16.79z"/><path style="fill:#d82f36" d="M291.06 119.98c0 6.56-2.66 12.5-6.96 16.79-4.3 4.3-10.24 6.96-16.79 6.96s-12.5-2.66-16.79-6.96c-4.3-4.3-6.96-10.24-6.96-16.79s2.66-12.5 6.96-16.79 10.24-6.96 16.79-6.96 12.5 2.66 16.79 6.96a23.603 23.603 0 016.96 16.79z"/><path style="fill:#d92f35" d="M291.23 120.99c0 6.56-2.66 12.5-6.96 16.79-4.3 4.3-10.24 6.96-16.79 6.96s-12.5-2.66-16.79-6.96c-4.3-4.3-6.96-10.24-6.96-16.79s2.66-12.5 6.96-16.79c4.3-4.3 10.24-6.96 16.79-6.96s12.5 2.66 16.79 6.96 6.96 10.23 6.96 16.79z"/><path style="fill:#d92e35" d="M291.39 121.98c0 6.56-2.66 12.5-6.96 16.79-4.3 4.3-10.24 6.96-16.79 6.96s-12.5-2.66-16.79-6.96c-4.3-4.3-6.96-10.24-6.96-16.79 0-6.56 2.66-12.5 6.96-16.79 4.3-4.3 10.24-6.96 16.79-6.96s12.5 2.66 16.79 6.96 6.96 10.23 6.96 16.79z"/><path style="fill:#da2e34" d="M291.53 122.94c0 6.56-2.66 12.5-6.96 16.79-4.3 4.3-10.24 6.96-16.79 6.96s-12.5-2.66-16.79-6.96c-4.3-4.3-6.96-10.24-6.96-16.79 0-6.56 2.66-12.5 6.96-16.79 4.3-4.3 10.24-6.96 16.79-6.96s12.5 2.66 16.79 6.96c4.31 4.3 6.96 10.24 6.96 16.79z"/><path style="fill:#db2d34" d="M291.67 123.89c0 6.56-2.66 12.5-6.96 16.79-4.3 4.3-10.24 6.96-16.79 6.96s-12.5-2.66-16.79-6.96c-4.3-4.3-6.96-10.24-6.96-16.79s2.66-12.5 6.96-16.79c4.3-4.3 10.24-6.96 16.79-6.96s12.5 2.66 16.79 6.96c4.3 4.29 6.96 10.23 6.96 16.79z"/><path style="fill:#db2d33" d="M291.8 124.81c0 6.56-2.66 12.5-6.96 16.79-4.3 4.3-10.24 6.96-16.79 6.96s-12.5-2.66-16.79-6.96c-4.3-4.3-6.96-10.24-6.96-16.79 0-6.56 2.66-12.5 6.96-16.79 4.3-4.3 10.24-6.96 16.79-6.96s12.5 2.66 16.79 6.96c4.3 4.3 6.96 10.24 6.96 16.79z"/><path style="fill:#dc2d33" d="M291.92 125.71c0 6.56-2.66 12.5-6.96 16.79-4.3 4.3-10.24 6.96-16.79 6.96s-12.5-2.66-16.79-6.96c-4.3-4.3-6.96-10.24-6.96-16.79s2.66-12.5 6.96-16.79 10.24-6.96 16.79-6.96 12.5 2.66 16.79 6.96 6.96 10.23 6.96 16.79z"/><path style="fill:#dc2c32" d="M292.02 126.59c0 6.56-2.66 12.5-6.96 16.79-4.3 4.3-10.24 6.96-16.79 6.96s-12.5-2.66-16.79-6.96c-4.3-4.3-6.96-10.24-6.96-16.79s2.66-12.5 6.96-16.79c4.3-4.3 10.24-6.96 16.79-6.96s12.5 2.66 16.79 6.96a23.603 23.603 0 016.96 16.79z"/><path style="fill:#dd2c31" d="M292.13 127.44c0 6.56-2.66 12.5-6.96 16.79-4.3 4.3-10.24 6.96-16.79 6.96s-12.5-2.66-16.79-6.96c-4.3-4.3-6.96-10.24-6.96-16.79 0-6.56 2.66-12.5 6.96-16.79 4.3-4.3 10.24-6.96 16.79-6.96s12.5 2.66 16.79 6.96 6.96 10.23 6.96 16.79z"/><path style="fill:#de2c31" d="M292.22 128.26c0 6.56-2.66 12.5-6.96 16.79-4.3 4.3-10.24 6.96-16.79 6.96s-12.5-2.66-16.79-6.96c-4.3-4.3-6.96-10.24-6.96-16.79 0-6.56 2.66-12.5 6.96-16.79 4.3-4.3 10.24-6.96 16.79-6.96s12.5 2.66 16.79 6.96c4.3 4.3 6.96 10.24 6.96 16.79z"/><path style="fill:#de2b30" d="M292.3 129.06c0 6.56-2.66 12.5-6.96 16.79-4.3 4.3-10.24 6.96-16.79 6.96-6.56 0-12.5-2.66-16.79-6.96-4.3-4.3-6.96-10.24-6.96-16.79 0-6.56 2.66-12.5 6.96-16.79s10.24-6.96 16.79-6.96c6.56 0 12.5 2.66 16.79 6.96 4.31 4.3 6.96 10.24 6.96 16.79z"/><path style="fill:#df2b30" d="M292.38 129.84c0 6.56-2.66 12.5-6.96 16.79-4.3 4.3-10.24 6.96-16.79 6.96s-12.5-2.66-16.79-6.96c-4.3-4.3-6.96-10.24-6.96-16.79 0-6.56 2.66-12.5 6.96-16.79 4.3-4.3 10.24-6.96 16.79-6.96s12.5 2.66 16.79 6.96c4.3 4.29 6.96 10.23 6.96 16.79z"/><path style="fill:#df2b2f" d="M292.45 130.58c0 6.56-2.66 12.5-6.96 16.79-4.3 4.3-10.24 6.96-16.79 6.96-6.56 0-12.5-2.66-16.79-6.96-4.3-4.3-6.96-10.24-6.96-16.79s2.66-12.5 6.96-16.79 10.24-6.96 16.79-6.96c6.56 0 12.5 2.66 16.79 6.96 4.3 4.3 6.96 10.23 6.96 16.79z"/><path style="fill:#e02a2f" d="M292.52 131.3c0 6.56-2.66 12.5-6.96 16.79-4.3 4.3-10.24 6.96-16.79 6.96-6.56 0-12.5-2.66-16.79-6.96-4.3-4.3-6.96-10.24-6.96-16.79 0-6.56 2.66-12.5 6.96-16.79 4.3-4.3 10.24-6.96 16.79-6.96 6.56 0 12.5 2.66 16.79 6.96 4.3 4.29 6.96 10.23 6.96 16.79z"/><path style="fill:#e02a2e" d="M292.58 131.99c0 6.56-2.66 12.5-6.96 16.79-4.3 4.3-10.24 6.96-16.79 6.96s-12.5-2.66-16.79-6.96c-4.3-4.3-6.96-10.24-6.96-16.79 0-6.56 2.66-12.5 6.96-16.79s10.24-6.96 16.79-6.96 12.5 2.66 16.79 6.96c4.3 4.29 6.96 10.23 6.96 16.79z"/><path style="fill:#e1292e" d="M292.63 132.65c0 6.56-2.66 12.5-6.96 16.79-4.3 4.3-10.24 6.96-16.79 6.96s-12.5-2.66-16.79-6.96c-4.3-4.3-6.96-10.24-6.96-16.79 0-6.56 2.66-12.5 6.96-16.79 4.3-4.3 10.24-6.96 16.79-6.96s12.5 2.66 16.79 6.96 6.96 10.23 6.96 16.79z"/><path style="fill:#e2292d" d="M292.67 133.28c0 6.56-2.66 12.5-6.96 16.79-4.3 4.3-10.24 6.96-16.79 6.96s-12.5-2.66-16.79-6.96c-4.3-4.3-6.96-10.24-6.96-16.79s2.66-12.5 6.96-16.79 10.24-6.96 16.79-6.96 12.5 2.66 16.79 6.96 6.96 10.23 6.96 16.79z"/><path style="fill:#e2292d" d="M292.71 133.88c0 6.56-2.66 12.5-6.96 16.79-4.3 4.3-10.24 6.96-16.79 6.96s-12.5-2.66-16.79-6.96c-4.3-4.3-6.96-10.24-6.96-16.79 0-6.56 2.66-12.5 6.96-16.79 4.3-4.3 10.24-6.96 16.79-6.96s12.5 2.66 16.79 6.96a23.603 23.603 0 016.96 16.79z"/><path style="fill:#e3282c" d="M292.75 134.44c0 6.56-2.66 12.5-6.96 16.79-4.3 4.3-10.24 6.96-16.79 6.96s-12.5-2.66-16.79-6.96c-4.3-4.3-6.96-10.24-6.96-16.79s2.66-12.5 6.96-16.79c4.3-4.3 10.24-6.96 16.79-6.96s12.5 2.66 16.79 6.96 6.96 10.24 6.96 16.79z"/><path style="fill:#e3282b" d="M292.78 134.98c0 6.56-2.66 12.5-6.96 16.79-4.3 4.3-10.24 6.96-16.79 6.96s-12.5-2.66-16.79-6.96c-4.3-4.3-6.96-10.24-6.96-16.79s2.66-12.5 6.96-16.79c4.3-4.3 10.24-6.96 16.79-6.96s12.5 2.66 16.79 6.96c4.3 4.29 6.96 10.23 6.96 16.79z"/><path style="fill:#e4272b" d="M292.81 135.48c0 6.56-2.66 12.5-6.96 16.79-4.3 4.3-10.24 6.96-16.79 6.96s-12.5-2.66-16.79-6.96c-4.3-4.3-6.96-10.24-6.96-16.79s2.66-12.5 6.96-16.79c4.3-4.3 10.24-6.96 16.79-6.96s12.5 2.66 16.79 6.96c4.3 4.3 6.96 10.23 6.96 16.79z"/><path style="fill:#e5272a" d="M292.83 135.95c0 6.56-2.66 12.5-6.96 16.79-4.3 4.3-10.24 6.96-16.79 6.96s-12.5-2.66-16.79-6.96c-4.3-4.3-6.96-10.24-6.96-16.79s2.66-12.5 6.96-16.79 10.24-6.96 16.79-6.96 12.5 2.66 16.79 6.96 6.96 10.23 6.96 16.79z"/><path style="fill:#e5272a" d="M292.85 136.39c0 6.56-2.66 12.5-6.96 16.79-4.3 4.3-10.24 6.96-16.79 6.96s-12.5-2.66-16.79-6.96c-4.3-4.3-6.96-10.24-6.96-16.79 0-6.56 2.66-12.5 6.96-16.79 4.3-4.3 10.24-6.96 16.79-6.96s12.5 2.66 16.79 6.96 6.96 10.23 6.96 16.79z"/><path style="fill:#e62629" d="M292.86 136.79c0 6.56-2.66 12.5-6.96 16.79-4.3 4.3-10.24 6.96-16.79 6.96s-12.5-2.66-16.79-6.96c-4.3-4.3-6.96-10.24-6.96-16.79s2.66-12.5 6.96-16.79c4.3-4.3 10.24-6.96 16.79-6.96s12.5 2.66 16.79 6.96a23.62 23.62 0 016.96 16.79z"/><path style="fill:#e62629" d="M292.88 137.16c0 6.56-2.66 12.5-6.96 16.79-4.3 4.3-10.24 6.96-16.79 6.96s-12.5-2.66-16.79-6.96c-4.3-4.3-6.96-10.24-6.96-16.79s2.66-12.5 6.96-16.79 10.24-6.96 16.79-6.96 12.5 2.66 16.79 6.96 6.96 10.23 6.96 16.79z"/><path style="fill:#e72528" d="M292.89 137.49c0 6.56-2.66 12.5-6.96 16.79-4.3 4.3-10.24 6.96-16.79 6.96s-12.5-2.66-16.79-6.96c-4.3-4.3-6.96-10.24-6.96-16.79s2.66-12.5 6.96-16.79 10.24-6.96 16.79-6.96 12.5 2.66 16.79 6.96 6.96 10.23 6.96 16.79z"/><path style="fill:#e82528" d="M292.89 137.78c0 6.56-2.66 12.5-6.96 16.79-4.3 4.3-10.24 6.96-16.79 6.96-6.56 0-12.5-2.66-16.79-6.96-4.3-4.3-6.96-10.24-6.96-16.79s2.66-12.5 6.96-16.79 10.24-6.96 16.79-6.96c6.56 0 12.5 2.66 16.79 6.96 4.3 4.3 6.96 10.23 6.96 16.79z"/><path style="fill:#e82427" d="M292.9 138.04c0 6.56-2.66 12.5-6.96 16.79-4.3 4.3-10.24 6.96-16.79 6.96s-12.5-2.66-16.79-6.96c-4.3-4.3-6.96-10.24-6.96-16.79s2.66-12.5 6.96-16.79 10.24-6.96 16.79-6.96 12.5 2.66 16.79 6.96 6.96 10.23 6.96 16.79z"/><path style="fill:#e92427" d="M292.9 138.26c0 6.56-2.66 12.5-6.96 16.79-4.3 4.3-10.24 6.96-16.79 6.96s-12.5-2.66-16.79-6.96c-4.3-4.3-6.96-10.24-6.96-16.79s2.66-12.5 6.96-16.79c4.3-4.3 10.24-6.96 16.79-6.96s12.5 2.66 16.79 6.96c4.3 4.29 6.96 10.23 6.96 16.79z"/><path style="fill:#ea2326" d="M292.9 138.44c0 6.56-2.66 12.5-6.96 16.79-4.3 4.3-10.24 6.96-16.79 6.96s-12.5-2.66-16.79-6.96c-4.3-4.3-6.96-10.24-6.96-16.79s2.66-12.5 6.96-16.79c4.3-4.3 10.24-6.96 16.79-6.96s12.5 2.66 16.79 6.96a23.603 23.603 0 016.96 16.79z"/><path style="fill:#ea2326" d="M292.91 138.58c0 6.56-2.66 12.5-6.96 16.79-4.3 4.3-10.24 6.96-16.79 6.96s-12.5-2.66-16.79-6.96c-4.3-4.3-6.96-10.24-6.96-16.79s2.66-12.5 6.96-16.79 10.24-6.96 16.79-6.96 12.5 2.66 16.79 6.96 6.96 10.23 6.96 16.79z"/><path style="fill:#eb2225" d="M292.91 138.68c0 6.56-2.66 12.5-6.96 16.79-4.3 4.3-10.24 6.96-16.79 6.96s-12.5-2.66-16.79-6.96c-4.3-4.3-6.96-10.24-6.96-16.79s2.66-12.5 6.96-16.79 10.24-6.96 16.79-6.96 12.5 2.66 16.79 6.96 6.96 10.24 6.96 16.79z"/><path style="fill:#ec2225" d="M292.91 138.75c0 6.56-2.66 12.5-6.96 16.79-4.3 4.3-10.24 6.96-16.79 6.96-6.56 0-12.5-2.66-16.79-6.96-4.3-4.3-6.96-10.24-6.96-16.79s2.66-12.5 6.96-16.79c4.3-4.3 10.24-6.96 16.79-6.96 6.56 0 12.5 2.66 16.79 6.96 4.3 4.29 6.96 10.23 6.96 16.79z"/><path style="fill:#ed2124" d="M292.91 138.77c0 6.56-2.66 12.5-6.96 16.79-4.3 4.3-10.24 6.96-16.79 6.96s-12.5-2.66-16.79-6.96c-4.3-4.3-6.96-10.24-6.96-16.79s2.66-12.5 6.96-16.79c4.3-4.3 10.24-6.96 16.79-6.96s12.5 2.66 16.79 6.96c4.3 4.29 6.96 10.23 6.96 16.79z"/><g><rect x="11.91" y="112.27" style="fill:#fff" width="289.67" height="88.33"/><text transform="translate(6.519 127.883)"><tspan x="0" y="0" style="fill:#3a53a4;font-family:'Asap-Regular';font-size:7px">Improvement in technology</tspan><tspan x="24.85" y="16" style="fill:#3a53a4;font-family:'Asap-Regular';font-size:7px">Equilibrium</tspan><tspan x="10.87" y="32" style="fill:#3a53a4;font-family:'Asap-Regular';font-size:7px">Subsistence incomes</tspan><tspan x="31.96" y="40" style="fill:#3a53a4;font-family:'Asap-Regular';font-size:7px">prevail</tspan><tspan x="11.57" y="56" style="fill:#3a53a4;font-family:'Asap-Regular';font-size:7px">Population constant</tspan></text><path style="fill:#3a53a4" d="M94.86 116.28v70.69H4.31v-70.69h90.55m1.47-1.48H2.83v73.64h93.5V114.8z"/><text transform="translate(245.622 130.916)"><tspan x="0" y="0" style="fill:#ed2124;font-family:'Asap-Regular';font-size:7px">Equilibrium</tspan><tspan x="-13.98" y="16" style="fill:#ed2124;font-family:'Asap-Regular';font-size:7px">Subsistence incomes</tspan><tspan x="7.11" y="24" style="fill:#ed2124;font-family:'Asap-Regular';font-size:7px">prevail</tspan><tspan x="-17.22" y="40" style="fill:#ed2124;font-family:'Asap-Regular';font-size:7px">Population constant at</tspan><tspan x="-.5" y="48" style="fill:#ed2124;font-family:'Asap-Regular';font-size:7px">higher level</tspan></text><text transform="translate(102.954 123.854)"><tspan x="0" y="0" style="fill:#fff;font-family:'Asap-Regular';font-size:6px">Improvement</tspan><tspan x="-.19" y="7.2" style="fill:#fff;font-family:'Asap-Regular';font-size:6px">in technology</tspan></text><text transform="translate(37.836 87.275)"><tspan x="0" y="0" style="fill:#fff;font-family:'Asap-Regular';font-size:7px">Average</tspan><tspan x="-3.59" y="8.4" style="fill:#fff;font-family:'Asap-Regular';font-size:7px">output per</tspan><tspan x="-5.57" y="16.8" style="fill:#fff;font-family:'Asap-Regular';font-size:7px">farmer rises</tspan></text><text transform="translate(64.998 46.078)"><tspan x="0" y="0" style="fill:#fff;font-family:'Asap-Regular';font-size:7px">Farmers</tspan><tspan x=".41" y="8.4" style="fill:#fff;font-family:'Asap-Regular';font-size:7px">incomes</tspan><tspan x="7.73" y="16.8" style="fill:#fff;font-family:'Asap-Regular';font-size:7px">rise</tspan></text><text transform="translate(110.753 26.346)"><tspan x="0" y="0" style="fill:#fff;font-family:'Asap-Regular';font-size:7px">Population</tspan><tspan x="9.97" y="8.4" style="fill:#fff;font-family:'Asap-Regular';font-size:7px">rises</tspan></text><text transform="translate(166.772 25.828)"><tspan x="0" y="0" style="fill:#fff;font-family:'Asap-Regular';font-size:7px">Less land</tspan><tspan x="-2.29" y="8.4" style="fill:#fff;font-family:'Asap-Regular';font-size:7px">per farmer</tspan></text><text transform="translate(223.389 46.078)"><tspan x="0" y="0" style="fill:#fff;font-family:'Asap-Regular';font-size:7px">Average</tspan><tspan x="-3.59" y="8.4" style="fill:#fff;font-family:'Asap-Regular';font-size:7px">output per</tspan><tspan x="-5.16" y="16.8" style="fill:#fff;font-family:'Asap-Regular';font-size:7px">farmer falls</tspan></text><text transform="translate(247.289 87.275)"><tspan x="0" y="0" style="fill:#fff;font-family:'Asap-Regular';font-size:7px">Farmers</tspan><tspan x=".41" y="8.4" style="fill:#fff;font-family:'Asap-Regular';font-size:7px">incomes</tspan><tspan x="8.15" y="16.8" style="fill:#fff;font-family:'Asap-Regular';font-size:7px">fall</tspan></text><polyline style="fill:none;stroke:#fff;stroke-width:.6623;stroke-linecap:round;stroke-linejoin:round;stroke-miterlimit:10" points="61.39 72.46 64.99 69.92 66.27 74.13"/><polyline style="fill:none;stroke:#fff;stroke-width:.6623;stroke-linecap:round;stroke-linejoin:round;stroke-miterlimit:10" points="101.39 35.36 105.79 35.48 104.3 39.62"/><polyline style="fill:none;stroke:#fff;stroke-width:.6623;stroke-linecap:round;stroke-linejoin:round;stroke-miterlimit:10" points="208.66 34.6 211.39 38.05 207.26 39.56"/><polyline style="fill:none;stroke:#fff;stroke-width:.6623;stroke-linecap:round;stroke-linejoin:round;stroke-miterlimit:10" points="154.01 23.1 157.57 25.69 154 28.26"/><polyline style="fill:none;stroke:#fff;stroke-width:.6623;stroke-linecap:round;stroke-linejoin:round;stroke-miterlimit:10" points="251.96 69.98 250.88 74.24 247.17 71.89"/><path style="fill:#ed2124" d="M307.75 116.03v71.18h-91.04v-71.18h91.04m1.23-1.23h-93.5v73.64h93.5V114.8z"/></g></svg>